<svg xmlns="http://www.w3.org/2000/svg" xmlns:xlink="http://www.w3.org/1999/xlink" contentStyleType="text/css" height="508px" preserveAspectRatio="none" style="width:1053px;height:508px;background:#FFFFFF;" version="1.1" viewBox="0 0 1053 508" width="1053px" zoomAndPan="magnify"><defs/><g><!--class AstHandler--><g id="elem_AstHandler"><rect codeLine="7" fill="#F1F1F1" height="48" id="AstHandler" rx="2.5" ry="2.5" style="stroke:#181818;stroke-width:0.5;" width="107" x="524" y="439"/><rect fill="#444444" height="32" rx="2.5" ry="2.5" style="stroke:#444444;stroke-width:0.5;" width="107" x="524" y="439"/><rect fill="#444444" height="2.5" style="stroke:#444444;stroke-width:0.5;" width="107" x="524" y="468.5"/><rect codeLine="7" fill="none" height="48" id="AstHandler" rx="2.5" ry="2.5" style="stroke:#181818;stroke-width:0.5;" width="107" x="524" y="439"/><ellipse cx="539" cy="455" fill="#ADD1B2" rx="11" ry="11" style="stroke:#181818;stroke-width:1.0;"/><path d="M541.9688,460.6406 Q541.3906,460.9375 540.75,461.0781 Q540.1094,461.2344 539.4063,461.2344 Q536.9063,461.2344 535.5781,459.5938 Q534.2656,457.9375 534.2656,454.8125 Q534.2656,451.6875 535.5781,450.0313 Q536.9063,448.375 539.4063,448.375 Q540.1094,448.375 540.75,448.5313 Q541.4063,448.6875 541.9688,448.9844 L541.9688,451.7031 Q541.3438,451.125 540.75,450.8594 Q540.1563,450.5781 539.5313,450.5781 Q538.1875,450.5781 537.5,451.6563 Q536.8125,452.7188 536.8125,454.8125 Q536.8125,456.9063 537.5,457.9844 Q538.1875,459.0469 539.5313,459.0469 Q540.1563,459.0469 540.75,458.7813 Q541.3438,458.5 541.9688,457.9219 L541.9688,460.6406 Z " fill="#000000"/><text fill="#FFFFFF" font-family="sans-serif" font-size="14" lengthAdjust="spacing" textLength="75" x="553" y="459.8467">AstHandler</text><line style="stroke:#181818;stroke-width:0.5;" x1="525" x2="630" y1="471" y2="471"/><line style="stroke:#181818;stroke-width:0.5;" x1="525" x2="630" y1="479" y2="479"/></g><!--class DetectionMethod--><g id="elem_DetectionMethod"><rect codeLine="8" fill="#FFFFFF" height="48" id="DetectionMethod" rx="2.5" ry="2.5" style="stroke:#181818;stroke-width:0.5;" width="153" x="169" y="115"/><ellipse cx="184" cy="131" fill="#B4A7E5" rx="11" ry="11" style="stroke:#181818;stroke-width:1.0;"/><path d="M179.9219,126.7656 L179.9219,124.6094 L187.3125,124.6094 L187.3125,126.7656 L184.8438,126.7656 L184.8438,134.8438 L187.3125,134.8438 L187.3125,137 L179.9219,137 L179.9219,134.8438 L182.3906,134.8438 L182.3906,126.7656 L179.9219,126.7656 Z " fill="#000000"/><text fill="#000000" font-family="sans-serif" font-size="14" font-style="italic" lengthAdjust="spacing" textLength="121" x="198" y="135.8467">DetectionMethod</text><line style="stroke:#181818;stroke-width:0.5;" x1="170" x2="321" y1="147" y2="147"/><line style="stroke:#181818;stroke-width:0.5;" x1="170" x2="321" y1="155" y2="155"/></g><!--class ExtractMethodPreconditions--><g id="elem_ExtractMethodPreconditions"><rect codeLine="9" fill="#F1F1F1" height="48" id="ExtractMethodPreconditions" rx="2.5" ry="2.5" style="stroke:#181818;stroke-width:0.5;" width="227" x="493" y="223"/><rect fill="#444444" height="32" rx="2.5" ry="2.5" style="stroke:#444444;stroke-width:0.5;" width="227" x="493" y="223"/><rect fill="#444444" height="2.5" style="stroke:#444444;stroke-width:0.5;" width="227" x="493" y="252.5"/><rect codeLine="9" fill="none" height="48" id="ExtractMethodPreconditions" rx="2.5" ry="2.5" style="stroke:#181818;stroke-width:0.5;" width="227" x="493" y="223"/><ellipse cx="508" cy="239" fill="#ADD1B2" rx="11" ry="11" style="stroke:#181818;stroke-width:1.0;"/><path d="M510.9688,244.6406 Q510.3906,244.9375 509.75,245.0781 Q509.1094,245.2344 508.4063,245.2344 Q505.9063,245.2344 504.5781,243.5938 Q503.2656,241.9375 503.2656,238.8125 Q503.2656,235.6875 504.5781,234.0313 Q505.9063,232.375 508.4063,232.375 Q509.1094,232.375 509.75,232.5313 Q510.4063,232.6875 510.9688,232.9844 L510.9688,235.7031 Q510.3438,235.125 509.75,234.8594 Q509.1563,234.5781 508.5313,234.5781 Q507.1875,234.5781 506.5,235.6563 Q505.8125,236.7188 505.8125,238.8125 Q505.8125,240.9063 506.5,241.9844 Q507.1875,243.0469 508.5313,243.0469 Q509.1563,243.0469 509.75,242.7813 Q510.3438,242.5 510.9688,241.9219 L510.9688,244.6406 Z " fill="#000000"/><text fill="#FFFFFF" font-family="sans-serif" font-size="14" lengthAdjust="spacing" textLength="195" x="522" y="243.8467">ExtractMethodPreconditions</text><line style="stroke:#181818;stroke-width:0.5;" x1="494" x2="719" y1="255" y2="255"/><line style="stroke:#181818;stroke-width:0.5;" x1="494" x2="719" y1="263" y2="263"/></g><!--class FragmentsSplitter--><g id="elem_FragmentsSplitter"><rect codeLine="10" fill="#F1F1F1" height="48" id="FragmentsSplitter" rx="2.5" ry="2.5" style="stroke:#181818;stroke-width:0.5;" width="154" x="275.5" y="331"/><rect fill="#444444" height="32" rx="2.5" ry="2.5" style="stroke:#444444;stroke-width:0.5;" width="154" x="275.5" y="331"/><rect fill="#444444" height="2.5" style="stroke:#444444;stroke-width:0.5;" width="154" x="275.5" y="360.5"/><rect codeLine="10" fill="none" height="48" id="FragmentsSplitter" rx="2.5" ry="2.5" style="stroke:#181818;stroke-width:0.5;" width="154" x="275.5" y="331"/><ellipse cx="290.5" cy="347" fill="#ADD1B2" rx="11" ry="11" style="stroke:#181818;stroke-width:1.0;"/><path d="M293.4688,352.6406 Q292.8906,352.9375 292.25,353.0781 Q291.6094,353.2344 290.9063,353.2344 Q288.4063,353.2344 287.0781,351.5938 Q285.7656,349.9375 285.7656,346.8125 Q285.7656,343.6875 287.0781,342.0313 Q288.4063,340.375 290.9063,340.375 Q291.6094,340.375 292.25,340.5313 Q292.9063,340.6875 293.4688,340.9844 L293.4688,343.7031 Q292.8438,343.125 292.25,342.8594 Q291.6563,342.5781 291.0313,342.5781 Q289.6875,342.5781 289,343.6563 Q288.3125,344.7188 288.3125,346.8125 Q288.3125,348.9063 289,349.9844 Q289.6875,351.0469 291.0313,351.0469 Q291.6563,351.0469 292.25,350.7813 Q292.8438,350.5 293.4688,349.9219 L293.4688,352.6406 Z " fill="#000000"/><text fill="#FFFFFF" font-family="sans-serif" font-size="14" lengthAdjust="spacing" textLength="122" x="304.5" y="351.8467">FragmentsSplitter</text><line style="stroke:#181818;stroke-width:0.5;" x1="276.5" x2="428.5" y1="363" y2="363"/><line style="stroke:#181818;stroke-width:0.5;" x1="276.5" x2="428.5" y1="371" y2="371"/></g><!--class SiblingPreconditions--><g id="elem_SiblingPreconditions"><rect codeLine="11" fill="#F1F1F1" height="48" id="SiblingPreconditions" rx="2.5" ry="2.5" style="stroke:#181818;stroke-width:0.5;" width="172" x="569.5" y="331"/><rect fill="#444444" height="32" rx="2.5" ry="2.5" style="stroke:#444444;stroke-width:0.5;" width="172" x="569.5" y="331"/><rect fill="#444444" height="2.5" style="stroke:#444444;stroke-width:0.5;" width="172" x="569.5" y="360.5"/><rect codeLine="11" fill="none" height="48" id="SiblingPreconditions" rx="2.5" ry="2.5" style="stroke:#181818;stroke-width:0.5;" width="172" x="569.5" y="331"/><ellipse cx="584.5" cy="347" fill="#ADD1B2" rx="11" ry="11" style="stroke:#181818;stroke-width:1.0;"/><path d="M587.4688,352.6406 Q586.8906,352.9375 586.25,353.0781 Q585.6094,353.2344 584.9063,353.2344 Q582.4063,353.2344 581.0781,351.5938 Q579.7656,349.9375 579.7656,346.8125 Q579.7656,343.6875 581.0781,342.0313 Q582.4063,340.375 584.9063,340.375 Q585.6094,340.375 586.25,340.5313 Q586.9063,340.6875 587.4688,340.9844 L587.4688,343.7031 Q586.8438,343.125 586.25,342.8594 Q585.6563,342.5781 585.0313,342.5781 Q583.6875,342.5781 583,343.6563 Q582.3125,344.7188 582.3125,346.8125 Q582.3125,348.9063 583,349.9844 Q583.6875,351.0469 585.0313,351.0469 Q585.6563,351.0469 586.25,350.7813 Q586.8438,350.5 587.4688,349.9219 L587.4688,352.6406 Z " fill="#000000"/><text fill="#FFFFFF" font-family="sans-serif" font-size="14" lengthAdjust="spacing" textLength="140" x="598.5" y="351.8467">SiblingPreconditions</text><line style="stroke:#181818;stroke-width:0.5;" x1="570.5" x2="740.5" y1="363" y2="363"/><line style="stroke:#181818;stroke-width:0.5;" x1="570.5" x2="740.5" y1="371" y2="371"/></g><!--class SuperInvocationPreconditions--><g id="elem_SuperInvocationPreconditions"><rect codeLine="12" fill="#F1F1F1" height="48" id="SuperInvocationPreconditions" rx="2.5" ry="2.5" style="stroke:#181818;stroke-width:0.5;" width="238" x="776.5" y="331"/><rect fill="#444444" height="32" rx="2.5" ry="2.5" style="stroke:#444444;stroke-width:0.5;" width="238" x="776.5" y="331"/><rect fill="#444444" height="2.5" style="stroke:#444444;stroke-width:0.5;" width="238" x="776.5" y="360.5"/><rect codeLine="12" fill="none" height="48" id="SuperInvocationPreconditions" rx="2.5" ry="2.5" style="stroke:#181818;stroke-width:0.5;" width="238" x="776.5" y="331"/><ellipse cx="791.5" cy="347" fill="#ADD1B2" rx="11" ry="11" style="stroke:#181818;stroke-width:1.0;"/><path d="M794.4688,352.6406 Q793.8906,352.9375 793.25,353.0781 Q792.6094,353.2344 791.9063,353.2344 Q789.4063,353.2344 788.0781,351.5938 Q786.7656,349.9375 786.7656,346.8125 Q786.7656,343.6875 788.0781,342.0313 Q789.4063,340.375 791.9063,340.375 Q792.6094,340.375 793.25,340.5313 Q793.9063,340.6875 794.4688,340.9844 L794.4688,343.7031 Q793.8438,343.125 793.25,342.8594 Q792.6563,342.5781 792.0313,342.5781 Q790.6875,342.5781 790,343.6563 Q789.3125,344.7188 789.3125,346.8125 Q789.3125,348.9063 790,349.9844 Q790.6875,351.0469 792.0313,351.0469 Q792.6563,351.0469 793.25,350.7813 Q793.8438,350.5 794.4688,349.9219 L794.4688,352.6406 Z " fill="#000000"/><text fill="#FFFFFF" font-family="sans-serif" font-size="14" lengthAdjust="spacing" textLength="206" x="805.5" y="351.8467">SuperInvocationPreconditions</text><line style="stroke:#181818;stroke-width:0.5;" x1="777.5" x2="1013.5" y1="363" y2="363"/><line style="stroke:#181818;stroke-width:0.5;" x1="777.5" x2="1013.5" y1="371" y2="371"/></g><!--class ZafeirisEtAl2016--><g id="elem_ZafeirisEtAl2016"><rect codeLine="13" fill="#FFFFFF" height="48" id="ZafeirisEtAl2016" rx="2.5" ry="2.5" style="stroke:#181818;stroke-width:0.5;" width="144" x="303.5" y="7"/><ellipse cx="318.5" cy="23" fill="#ADD1B2" rx="11" ry="11" style="stroke:#181818;stroke-width:1.0;"/><path d="M321.4688,28.6406 Q320.8906,28.9375 320.25,29.0781 Q319.6094,29.2344 318.9063,29.2344 Q316.4063,29.2344 315.0781,27.5938 Q313.7656,25.9375 313.7656,22.8125 Q313.7656,19.6875 315.0781,18.0313 Q316.4063,16.375 318.9063,16.375 Q319.6094,16.375 320.25,16.5313 Q320.9063,16.6875 321.4688,16.9844 L321.4688,19.7031 Q320.8438,19.125 320.25,18.8594 Q319.6563,18.5781 319.0313,18.5781 Q317.6875,18.5781 317,19.6563 Q316.3125,20.7188 316.3125,22.8125 Q316.3125,24.9063 317,25.9844 Q317.6875,27.0469 319.0313,27.0469 Q319.6563,27.0469 320.25,26.7813 Q320.8438,26.5 321.4688,25.9219 L321.4688,28.6406 Z " fill="#000000"/><text fill="#000000" font-family="sans-serif" font-size="14" lengthAdjust="spacing" textLength="112" x="332.5" y="27.8467">ZafeirisEtAl2016</text><line style="stroke:#181818;stroke-width:0.5;" x1="304.5" x2="446.5" y1="39" y2="39"/><line style="stroke:#181818;stroke-width:0.5;" x1="304.5" x2="446.5" y1="47" y2="47"/></g><!--class ZafeirisEtAl2016Canditate--><g id="elem_ZafeirisEtAl2016Canditate"><rect codeLine="14" fill="#FFFFFF" height="48" id="ZafeirisEtAl2016Canditate" rx="2.5" ry="2.5" style="stroke:#181818;stroke-width:0.5;" width="210" x="247.5" y="223"/><ellipse cx="262.5" cy="239" fill="#ADD1B2" rx="11" ry="11" style="stroke:#181818;stroke-width:1.0;"/><path d="M265.4688,244.6406 Q264.8906,244.9375 264.25,245.0781 Q263.6094,245.2344 262.9063,245.2344 Q260.4063,245.2344 259.0781,243.5938 Q257.7656,241.9375 257.7656,238.8125 Q257.7656,235.6875 259.0781,234.0313 Q260.4063,232.375 262.9063,232.375 Q263.6094,232.375 264.25,232.5313 Q264.9063,232.6875 265.4688,232.9844 L265.4688,235.7031 Q264.8438,235.125 264.25,234.8594 Q263.6563,234.5781 263.0313,234.5781 Q261.6875,234.5781 261,235.6563 Q260.3125,236.7188 260.3125,238.8125 Q260.3125,240.9063 261,241.9844 Q261.6875,243.0469 263.0313,243.0469 Q263.6563,243.0469 264.25,242.7813 Q264.8438,242.5 265.4688,241.9219 L265.4688,244.6406 Z " fill="#000000"/><text fill="#000000" font-family="sans-serif" font-size="14" lengthAdjust="spacing" textLength="178" x="276.5" y="243.8467">ZafeirisEtAl2016Canditate</text><line style="stroke:#181818;stroke-width:0.5;" x1="248.5" x2="456.5" y1="255" y2="255"/><line style="stroke:#181818;stroke-width:0.5;" x1="248.5" x2="456.5" y1="263" y2="263"/></g><!--class ZafeirisEtAl2016Executor--><g id="elem_ZafeirisEtAl2016Executor"><rect codeLine="15" fill="#F1F1F1" height="48" id="ZafeirisEtAl2016Executor" rx="2.5" ry="2.5" style="stroke:#181818;stroke-width:0.5;" width="205" x="7" y="223"/><rect fill="#444444" height="32" rx="2.5" ry="2.5" style="stroke:#444444;stroke-width:0.5;" width="205" x="7" y="223"/><rect fill="#444444" height="2.5" style="stroke:#444444;stroke-width:0.5;" width="205" x="7" y="252.5"/><rect codeLine="15" fill="none" height="48" id="ZafeirisEtAl2016Executor" rx="2.5" ry="2.5" style="stroke:#181818;stroke-width:0.5;" width="205" x="7" y="223"/><ellipse cx="22" cy="239" fill="#ADD1B2" rx="11" ry="11" style="stroke:#181818;stroke-width:1.0;"/><path d="M24.9688,244.6406 Q24.3906,244.9375 23.75,245.0781 Q23.1094,245.2344 22.4063,245.2344 Q19.9063,245.2344 18.5781,243.5938 Q17.2656,241.9375 17.2656,238.8125 Q17.2656,235.6875 18.5781,234.0313 Q19.9063,232.375 22.4063,232.375 Q23.1094,232.375 23.75,232.5313 Q24.4063,232.6875 24.9688,232.9844 L24.9688,235.7031 Q24.3438,235.125 23.75,234.8594 Q23.1563,234.5781 22.5313,234.5781 Q21.1875,234.5781 20.5,235.6563 Q19.8125,236.7188 19.8125,238.8125 Q19.8125,240.9063 20.5,241.9844 Q21.1875,243.0469 22.5313,243.0469 Q23.1563,243.0469 23.75,242.7813 Q24.3438,242.5 24.9688,241.9219 L24.9688,244.6406 Z " fill="#000000"/><text fill="#FFFFFF" font-family="sans-serif" font-size="14" lengthAdjust="spacing" textLength="173" x="36" y="243.8467">ZafeirisEtAl2016Executor</text><line style="stroke:#181818;stroke-width:0.5;" x1="8" x2="211" y1="255" y2="255"/><line style="stroke:#181818;stroke-width:0.5;" x1="8" x2="211" y1="263" y2="263"/></g><!--class ZafeirisEtAl2016Verifier--><g id="elem_ZafeirisEtAl2016Verifier"><rect codeLine="16" fill="#F1F1F1" height="48" id="ZafeirisEtAl2016Verifier" rx="2.5" ry="2.5" style="stroke:#181818;stroke-width:0.5;" width="191" x="695" y="115"/><rect fill="#444444" height="32" rx="2.5" ry="2.5" style="stroke:#444444;stroke-width:0.5;" width="191" x="695" y="115"/><rect fill="#444444" height="2.5" style="stroke:#444444;stroke-width:0.5;" width="191" x="695" y="144.5"/><rect codeLine="16" fill="none" height="48" id="ZafeirisEtAl2016Verifier" rx="2.5" ry="2.5" style="stroke:#181818;stroke-width:0.5;" width="191" x="695" y="115"/><ellipse cx="710" cy="131" fill="#ADD1B2" rx="11" ry="11" style="stroke:#181818;stroke-width:1.0;"/><path d="M712.9688,136.6406 Q712.3906,136.9375 711.75,137.0781 Q711.1094,137.2344 710.4063,137.2344 Q707.9063,137.2344 706.5781,135.5938 Q705.2656,133.9375 705.2656,130.8125 Q705.2656,127.6875 706.5781,126.0313 Q707.9063,124.375 710.4063,124.375 Q711.1094,124.375 711.75,124.5313 Q712.4063,124.6875 712.9688,124.9844 L712.9688,127.7031 Q712.3438,127.125 711.75,126.8594 Q711.1563,126.5781 710.5313,126.5781 Q709.1875,126.5781 708.5,127.6563 Q707.8125,128.7188 707.8125,130.8125 Q707.8125,132.9063 708.5,133.9844 Q709.1875,135.0469 710.5313,135.0469 Q711.1563,135.0469 711.75,134.7813 Q712.3438,134.5 712.9688,133.9219 L712.9688,136.6406 Z " fill="#000000"/><text fill="#FFFFFF" font-family="sans-serif" font-size="14" lengthAdjust="spacing" textLength="159" x="724" y="135.8467">ZafeirisEtAl2016Verifier</text><line style="stroke:#181818;stroke-width:0.5;" x1="696" x2="885" y1="147" y2="147"/><line style="stroke:#181818;stroke-width:0.5;" x1="696" x2="885" y1="155" y2="155"/></g><!--link ExtractMethodPreconditions to AstHandler--><g id="link_ExtractMethodPreconditions_AstHandler"><path codeLine="18" d="M551.3,271.36 C551.3,312.95 551.3,391.2 551.3,432.73 " fill="none" id="ExtractMethodPreconditions-to-AstHandler" style="stroke:#181818;stroke-width:1.0;stroke-dasharray:7.0,7.0;"/><polygon fill="#181818" points="551.3,438.73,555.3,429.73,551.3,433.73,547.3,429.73,551.3,438.73" style="stroke:#181818;stroke-width:1.0;"/><text fill="#000000" font-family="sans-serif" font-size="13" lengthAdjust="spacing" textLength="41" x="509.3" y="368.1069">create</text></g><!--link ExtractMethodPreconditions to AstHandler--><g id="link_ExtractMethodPreconditions_AstHandler"><path codeLine="19" d="M560.4,283.36 C560.4,324.95 560.4,391.2 560.4,432.73 " fill="none" id="ExtractMethodPreconditions-AstHandler" style="stroke:#181818;stroke-width:1.0;"/><polygon fill="#181818" points="560.4,271.36,556.4,277.36,560.4,283.36,564.4,277.36,560.4,271.36" style="stroke:#181818;stroke-width:1.0;"/><polygon fill="#181818" points="560.4,438.73,564.4,429.73,560.4,433.73,556.4,429.73,560.4,438.73" style="stroke:#181818;stroke-width:1.0;"/><text fill="#000000" font-family="sans-serif" font-size="13" lengthAdjust="spacing" textLength="8" x="540.1881" y="291.209">1</text><text fill="#000000" font-family="sans-serif" font-size="13" lengthAdjust="spacing" textLength="70" x="479.6544" y="412.7248">astHandler</text><text fill="#000000" font-family="sans-serif" font-size="13" lengthAdjust="spacing" textLength="8" x="510.6544" y="427.8577">1</text></g><!--link ExtractMethodPreconditions to FragmentsSplitter--><g id="link_ExtractMethodPreconditions_FragmentsSplitter"><path codeLine="20" d="M508.5,271.47 C508.5,299.92 508.5,343 508.5,343 C508.5,343 474.89,343 435.59,343 " fill="none" id="ExtractMethodPreconditions-to-FragmentsSplitter" style="stroke:#181818;stroke-width:1.0;stroke-dasharray:7.0,7.0;"/><polygon fill="#181818" points="429.59,343,438.59,347,434.59,343,438.59,339,429.59,343" style="stroke:#181818;stroke-width:1.0;"/><text fill="#000000" font-family="sans-serif" font-size="13" lengthAdjust="spacing" textLength="41" x="462.81" y="339.0669">create</text></g><!--link FragmentsSplitter to AstHandler--><g id="link_FragmentsSplitter_AstHandler"><path codeLine="21" d="M429.93,355 C482.39,355 542.2,355 542.2,355 C542.2,355 542.2,400.92 542.2,432.76 " fill="none" id="FragmentsSplitter-to-AstHandler" style="stroke:#181818;stroke-width:1.0;stroke-dasharray:7.0,7.0;"/><polygon fill="#181818" points="542.2,438.76,546.2,429.76,542.2,433.76,538.2,429.76,542.2,438.76" style="stroke:#181818;stroke-width:1.0;"/><text fill="#000000" font-family="sans-serif" font-size="13" lengthAdjust="spacing" textLength="41" x="528.95" y="351.0669">create</text></g><!--link FragmentsSplitter to AstHandler--><g id="link_FragmentsSplitter_AstHandler"><path codeLine="22" d="M441.88,367 C490.89,367 533.1,367 533.1,367 C533.1,367 533.1,404.08 533.1,432.53 " fill="none" id="FragmentsSplitter-AstHandler" style="stroke:#181818;stroke-width:1.0;"/><polygon fill="#181818" points="429.88,367,435.88,371,441.88,367,435.88,363,429.88,367" style="stroke:#181818;stroke-width:1.0;"/><polygon fill="#181818" points="533.1,438.53,537.1,429.53,533.1,433.53,529.1,429.53,533.1,438.53" style="stroke:#181818;stroke-width:1.0;"/><text fill="#000000" font-family="sans-serif" font-size="13" lengthAdjust="spacing" textLength="8" x="437.3822" y="364.4879">1</text><text fill="#000000" font-family="sans-serif" font-size="13" lengthAdjust="spacing" textLength="70" x="445.7313" y="448.5544">astHandler</text><text fill="#000000" font-family="sans-serif" font-size="13" lengthAdjust="spacing" textLength="8" x="476.7313" y="463.6872">1</text></g><!--link SiblingPreconditions to AstHandler--><g id="link_SiblingPreconditions_AstHandler"><path codeLine="23" d="M590,391.24 C590,409.02 590,415.08 590,432.84 " fill="none" id="SiblingPreconditions-AstHandler" style="stroke:#181818;stroke-width:1.0;"/><polygon fill="#181818" points="590,379.24,586,385.24,590,391.24,594,385.24,590,379.24" style="stroke:#181818;stroke-width:1.0;"/><polygon fill="#181818" points="590,438.84,594,429.84,590,433.84,586,429.84,590,438.84" style="stroke:#181818;stroke-width:1.0;"/><text fill="#000000" font-family="sans-serif" font-size="13" lengthAdjust="spacing" textLength="8" x="565.0594" y="399.0597">1</text><text fill="#000000" font-family="sans-serif" font-size="13" lengthAdjust="spacing" textLength="70" x="599.7969" y="412.8575">astHandler</text><text fill="#000000" font-family="sans-serif" font-size="13" lengthAdjust="spacing" textLength="8" x="630.7969" y="427.9903">1</text></g><!--link SiblingPreconditions to AstHandler--><g id="link_SiblingPreconditions_AstHandler"><path codeLine="24" d="M610.5,379.24 C610.5,397.02 610.5,415.08 610.5,432.84 " fill="none" id="SiblingPreconditions-to-AstHandler" style="stroke:#181818;stroke-width:1.0;stroke-dasharray:7.0,7.0;"/><polygon fill="#181818" points="610.5,438.84,614.5,429.84,610.5,433.84,606.5,429.84,610.5,438.84" style="stroke:#181818;stroke-width:1.0;"/><text fill="#000000" font-family="sans-serif" font-size="13" lengthAdjust="spacing" textLength="41" x="568.5" y="405.1069">create</text></g><!--link SuperInvocationPreconditions to AstHandler--><g id="link_SuperInvocationPreconditions_AstHandler"><path codeLine="25" d="M855.83,379.24 C855.83,412.44 855.83,468 855.83,468 C855.83,468 718.44,468 637.5,468 " fill="none" id="SuperInvocationPreconditions-to-AstHandler" style="stroke:#181818;stroke-width:1.0;stroke-dasharray:7.0,7.0;"/><polygon fill="#181818" points="631.5,468,640.5,472,636.5,468,640.5,464,631.5,468" style="stroke:#181818;stroke-width:1.0;"/><text fill="#000000" font-family="sans-serif" font-size="13" lengthAdjust="spacing" textLength="41" x="746.04" y="464.0669">create</text></g><!--link SuperInvocationPreconditions to AstHandler--><g id="link_SuperInvocationPreconditions_AstHandler"><path codeLine="26" d="M935.17,391.3 C935.17,427.15 935.17,478 935.17,478 C935.17,478 737.35,478 637.43,478 " fill="none" id="SuperInvocationPreconditions-AstHandler" style="stroke:#181818;stroke-width:1.0;"/><polygon fill="#181818" points="935.17,379.3,931.17,385.3,935.17,391.3,939.17,385.3,935.17,379.3" style="stroke:#181818;stroke-width:1.0;"/><polygon fill="#181818" points="631.43,478,640.43,482,636.43,478,640.43,474,631.43,478" style="stroke:#181818;stroke-width:1.0;"/><text fill="#000000" font-family="sans-serif" font-size="13" lengthAdjust="spacing" textLength="8" x="935.8646" y="399.1343">1</text><text fill="#000000" font-family="sans-serif" font-size="13" lengthAdjust="spacing" textLength="61" x="638.9495" y="460.0787">astParser</text><text fill="#000000" font-family="sans-serif" font-size="13" lengthAdjust="spacing" textLength="8" x="665.4495" y="475.2115">1</text></g><!--link ZafeirisEtAl2016 to DetectionMethod--><g id="link_ZafeirisEtAl2016_DetectionMethod"><path codeLine="27" d="M312.75,55.24 C312.75,73.02 312.75,79.08 312.75,96.84 " fill="none" id="ZafeirisEtAl2016-to-DetectionMethod" style="stroke:#181818;stroke-width:1.0;stroke-dasharray:7.0,7.0;"/><polygon fill="none" points="312.75,114.84,318.75,96.84,306.75,96.84,312.75,114.84" style="stroke:#181818;stroke-width:1.0;"/></g><!--link ZafeirisEtAl2016 to ZafeirisEtAl2016Executor--><g id="link_ZafeirisEtAl2016_ZafeirisEtAl2016Executor"><path codeLine="28" d="M303.32,31 C218.16,31 88,31 88,31 C88,31 88,160.15 88,216.64 " fill="none" id="ZafeirisEtAl2016-to-ZafeirisEtAl2016Executor" style="stroke:#181818;stroke-width:1.0;stroke-dasharray:7.0,7.0;"/><polygon fill="#181818" points="88,222.64,92,213.64,88,217.64,84,213.64,88,222.64" style="stroke:#181818;stroke-width:1.0;"/><text fill="#000000" font-family="sans-serif" font-size="13" lengthAdjust="spacing" textLength="41" x="57.84" y="27.0669">create</text></g><!--link ZafeirisEtAl2016 to ZafeirisEtAl2016Verifier--><g id="link_ZafeirisEtAl2016_ZafeirisEtAl2016Verifier"><path codeLine="29" d="M384.75,55.46 C384.75,85.07 384.75,131 384.75,131 C384.75,131 568.63,131 688.6,131 " fill="none" id="ZafeirisEtAl2016-to-ZafeirisEtAl2016Verifier" style="stroke:#181818;stroke-width:1.0;stroke-dasharray:7.0,7.0;"/><polygon fill="#181818" points="694.6,131,685.6,127,689.6,131,685.6,135,694.6,131" style="stroke:#181818;stroke-width:1.0;"/><text fill="#000000" font-family="sans-serif" font-size="13" lengthAdjust="spacing" textLength="41" x="459.91" y="127.0669">create</text></g><!--link ZafeirisEtAl2016Canditate to FragmentsSplitter--><g id="link_ZafeirisEtAl2016Canditate_FragmentsSplitter"><path codeLine="30" d="M352.5,271.24 C352.5,289.02 352.5,307.08 352.5,324.84 " fill="none" id="ZafeirisEtAl2016Canditate-to-FragmentsSplitter" style="stroke:#181818;stroke-width:1.0;stroke-dasharray:7.0,7.0;"/><polygon fill="#181818" points="352.5,330.84,356.5,321.84,352.5,325.84,348.5,321.84,352.5,330.84" style="stroke:#181818;stroke-width:1.0;"/><text fill="#000000" font-family="sans-serif" font-size="13" lengthAdjust="spacing" textLength="41" x="310.5" y="297.1069">create</text></g><!--link ZafeirisEtAl2016Executor to AstHandler--><g id="link_ZafeirisEtAl2016Executor_AstHandler"><path codeLine="31" d="M109.5,271.27 C109.5,326.14 109.5,455 109.5,455 C109.5,455 394.89,455 517.81,455 " fill="none" id="ZafeirisEtAl2016Executor-to-AstHandler" style="stroke:#181818;stroke-width:1.0;stroke-dasharray:7.0,7.0;"/><polygon fill="#181818" points="523.81,455,514.81,451,518.81,455,514.81,459,523.81,455" style="stroke:#181818;stroke-width:1.0;"/><text fill="#000000" font-family="sans-serif" font-size="13" lengthAdjust="spacing" textLength="41" x="182.79" y="451.0669">create</text></g><!--link ZafeirisEtAl2016Executor to AstHandler--><g id="link_ZafeirisEtAl2016Executor_AstHandler"><path codeLine="32" d="M58.25,283.4 C58.25,341.45 58.25,471 58.25,471 C58.25,471 385.22,471 517.89,471 " fill="none" id="ZafeirisEtAl2016Executor-AstHandler" style="stroke:#181818;stroke-width:1.0;"/><polygon fill="#181818" points="58.25,271.4,54.25,277.4,58.25,283.4,62.25,277.4,58.25,271.4" style="stroke:#181818;stroke-width:1.0;"/><polygon fill="#181818" points="523.89,471,514.89,467,518.89,471,514.89,475,523.89,471" style="stroke:#181818;stroke-width:1.0;"/><text fill="#000000" font-family="sans-serif" font-size="13" lengthAdjust="spacing" textLength="8" x="36.7828" y="291.2587">1</text><text fill="#000000" font-family="sans-serif" font-size="13" lengthAdjust="spacing" textLength="70" x="445.9982" y="485.1272">astHandler</text><text fill="#000000" font-family="sans-serif" font-size="13" lengthAdjust="spacing" textLength="8" x="476.9982" y="500.26">1</text></g><!--link ZafeirisEtAl2016Executor to FragmentsSplitter--><g id="link_ZafeirisEtAl2016Executor_FragmentsSplitter"><path codeLine="33" d="M160.75,271.24 C160.75,303.08 160.75,355 160.75,355 C160.75,355 215.84,355 269.06,355 " fill="none" id="ZafeirisEtAl2016Executor-to-FragmentsSplitter" style="stroke:#181818;stroke-width:1.0;stroke-dasharray:7.0,7.0;"/><polygon fill="#181818" points="275.06,355,266.06,351,270.06,355,266.06,359,275.06,355" style="stroke:#181818;stroke-width:1.0;"/><text fill="#000000" font-family="sans-serif" font-size="13" lengthAdjust="spacing" textLength="41" x="134.02" y="351.0669">create</text></g><!--link ZafeirisEtAl2016Verifier to AstHandler--><g id="link_ZafeirisEtAl2016Verifier_AstHandler"><path codeLine="34" d="M753.17,163.33 C753.17,236.4 753.17,449 753.17,449 C753.17,449 688.82,449 637.16,449 " fill="none" id="ZafeirisEtAl2016Verifier-to-AstHandler" style="stroke:#181818;stroke-width:1.0;stroke-dasharray:7.0,7.0;"/><polygon fill="#181818" points="631.16,449,640.16,453,636.16,449,640.16,445,631.16,449" style="stroke:#181818;stroke-width:1.0;"/><text fill="#000000" font-family="sans-serif" font-size="13" lengthAdjust="spacing" textLength="41" x="743.42" y="380.2369">create</text></g><!--link ZafeirisEtAl2016Verifier to AstHandler--><g id="link_ZafeirisEtAl2016Verifier_AstHandler"><path codeLine="35" d="M764.83,175.31 C764.83,249.99 764.83,459 764.83,459 C764.83,459 692.78,459 637.43,459 " fill="none" id="ZafeirisEtAl2016Verifier-AstHandler" style="stroke:#181818;stroke-width:1.0;"/><polygon fill="#181818" points="764.83,163.31,760.83,169.31,764.83,175.31,768.83,169.31,764.83,163.31" style="stroke:#181818;stroke-width:1.0;"/><polygon fill="#181818" points="631.43,459,640.43,463,636.43,459,640.43,455,631.43,459" style="stroke:#181818;stroke-width:1.0;"/><text fill="#000000" font-family="sans-serif" font-size="13" lengthAdjust="spacing" textLength="8" x="749.5979" y="183.1468">1</text><text fill="#000000" font-family="sans-serif" font-size="13" lengthAdjust="spacing" textLength="70" x="639.0724" y="439.4455">astHandler</text><text fill="#000000" font-family="sans-serif" font-size="13" lengthAdjust="spacing" textLength="8" x="670.0724" y="454.5783">1</text></g><!--link ZafeirisEtAl2016Verifier to ExtractMethodPreconditions--><g id="link_ZafeirisEtAl2016Verifier_ExtractMethodPreconditions"><path codeLine="36" d="M703.33,175.24 C703.33,193.02 703.33,199.08 703.33,216.84 " fill="none" id="ZafeirisEtAl2016Verifier-ExtractMethodPreconditions" style="stroke:#181818;stroke-width:1.0;"/><polygon fill="#181818" points="703.33,163.24,699.33,169.24,703.33,175.24,707.33,169.24,703.33,163.24" style="stroke:#181818;stroke-width:1.0;"/><polygon fill="#181818" points="703.33,222.84,707.33,213.84,703.33,217.84,699.33,213.84,703.33,222.84" style="stroke:#181818;stroke-width:1.0;"/><text fill="#000000" font-family="sans-serif" font-size="13" lengthAdjust="spacing" textLength="8" x="679.0903" y="180.9724">1</text><text fill="#000000" font-family="sans-serif" font-size="13" lengthAdjust="spacing" textLength="179" x="525.8418" y="196.8575">extractMethodPreconditions</text><text fill="#000000" font-family="sans-serif" font-size="13" lengthAdjust="spacing" textLength="8" x="611.3418" y="211.9903">1</text></g><!--link ZafeirisEtAl2016Verifier to ExtractMethodPreconditions--><g id="link_ZafeirisEtAl2016Verifier_ExtractMethodPreconditions"><path codeLine="37" d="M711.67,163.24 C711.67,181.02 711.67,199.08 711.67,216.84 " fill="none" id="ZafeirisEtAl2016Verifier-to-ExtractMethodPreconditions" style="stroke:#181818;stroke-width:1.0;stroke-dasharray:7.0,7.0;"/><polygon fill="#181818" points="711.67,222.84,715.67,213.84,711.67,217.84,707.67,213.84,711.67,222.84" style="stroke:#181818;stroke-width:1.0;"/><text fill="#000000" font-family="sans-serif" font-size="13" lengthAdjust="spacing" textLength="41" x="712.67" y="189.1069">create</text></g><!--link ZafeirisEtAl2016Verifier to SiblingPreconditions--><g id="link_ZafeirisEtAl2016Verifier_SiblingPreconditions"><path codeLine="38" d="M727.17,175.36 C727.17,216.95 727.17,283.2 727.17,324.73 " fill="none" id="ZafeirisEtAl2016Verifier-SiblingPreconditions" style="stroke:#181818;stroke-width:1.0;"/><polygon fill="#181818" points="727.17,163.36,723.17,169.36,727.17,175.36,731.17,169.36,727.17,163.36" style="stroke:#181818;stroke-width:1.0;"/><polygon fill="#181818" points="727.17,330.73,731.17,321.73,727.17,325.73,723.17,321.73,727.17,330.73" style="stroke:#181818;stroke-width:1.0;"/><text fill="#000000" font-family="sans-serif" font-size="13" lengthAdjust="spacing" textLength="8" x="702.7583" y="183.209">1</text><text fill="#000000" font-family="sans-serif" font-size="13" lengthAdjust="spacing" textLength="126" x="602.9582" y="304.7248">siblingPreconditions</text><text fill="#000000" font-family="sans-serif" font-size="13" lengthAdjust="spacing" textLength="8" x="661.9582" y="319.8577">1</text></g><!--link ZafeirisEtAl2016Verifier to SiblingPreconditions--><g id="link_ZafeirisEtAl2016Verifier_SiblingPreconditions"><path codeLine="39" d="M734.33,163.36 C734.33,204.95 734.33,283.2 734.33,324.73 " fill="none" id="ZafeirisEtAl2016Verifier-to-SiblingPreconditions" style="stroke:#181818;stroke-width:1.0;stroke-dasharray:7.0,7.0;"/><polygon fill="#181818" points="734.33,330.73,738.33,321.73,734.33,325.73,730.33,321.73,734.33,330.73" style="stroke:#181818;stroke-width:1.0;"/><text fill="#000000" font-family="sans-serif" font-size="13" lengthAdjust="spacing" textLength="41" x="735.33" y="243.1069">create</text></g><!--link ZafeirisEtAl2016Verifier to SuperInvocationPreconditions--><g id="link_ZafeirisEtAl2016Verifier_SuperInvocationPreconditions"><path codeLine="40" d="M813,163.36 C813,204.95 813,283.2 813,324.73 " fill="none" id="ZafeirisEtAl2016Verifier-to-SuperInvocationPreconditions" style="stroke:#181818;stroke-width:1.0;stroke-dasharray:7.0,7.0;"/><polygon fill="#181818" points="813,330.73,817,321.73,813,325.73,809,321.73,813,330.73" style="stroke:#181818;stroke-width:1.0;"/><text fill="#000000" font-family="sans-serif" font-size="13" lengthAdjust="spacing" textLength="41" x="771" y="260.1069">create</text></g><!--link ZafeirisEtAl2016Verifier to SuperInvocationPreconditions--><g id="link_ZafeirisEtAl2016Verifier_SuperInvocationPreconditions"><path codeLine="41" d="M849.5,175.36 C849.5,216.95 849.5,283.2 849.5,324.73 " fill="none" id="ZafeirisEtAl2016Verifier-SuperInvocationPreconditions" style="stroke:#181818;stroke-width:1.0;"/><polygon fill="#181818" points="849.5,163.36,845.5,169.36,849.5,175.36,853.5,169.36,849.5,163.36" style="stroke:#181818;stroke-width:1.0;"/><polygon fill="#181818" points="849.5,330.73,853.5,321.73,849.5,325.73,845.5,321.73,849.5,330.73" style="stroke:#181818;stroke-width:1.0;"/><text fill="#000000" font-family="sans-serif" font-size="13" lengthAdjust="spacing" textLength="8" x="854.9063" y="183.209">1</text><text fill="#000000" font-family="sans-serif" font-size="13" lengthAdjust="spacing" textLength="187" x="859.2969" y="304.7248">superInvocationPreconditions</text><text fill="#000000" font-family="sans-serif" font-size="13" lengthAdjust="spacing" textLength="8" x="948.7969" y="319.8577">1</text></g><!--link ZafeirisEtAl2016Verifier to ZafeirisEtAl2016Canditate--><g id="link_ZafeirisEtAl2016Verifier_ZafeirisEtAl2016Canditate"><path codeLine="42" d="M694.55,147 C594.62,147 452.5,147 452.5,147 C452.5,147 452.5,186.93 452.5,216.54 " fill="none" id="ZafeirisEtAl2016Verifier-to-ZafeirisEtAl2016Canditate" style="stroke:#181818;stroke-width:1.0;stroke-dasharray:7.0,7.0;"/><polygon fill="#181818" points="452.5,222.54,456.5,213.54,452.5,217.54,448.5,213.54,452.5,222.54" style="stroke:#181818;stroke-width:1.0;"/><text fill="#000000" font-family="sans-serif" font-size="13" lengthAdjust="spacing" textLength="41" x="493.75" y="160.0669">create</text></g><!--SRC=[lLJBJiCm4BpdArRf3QaIe8e31oGUZU20X5I90ozfSRQjHMf7zXR1D_49tFWodBP0IvE5OC2tnBFZsR5ts9R05cujivr0hXqfrjOa_awR4XrEG1NeVMOD7zh2Ei1f029hjGJnJ8uiFvOausPKnuGvkGDKToDdfoQVmpkzNcy9MMX35HzOnsER9BDAIFSz7wF92t8fe8UFpqIRe668Yk28UDx3AONI73fPbYtg-m_iKF5yuooqQaskAwXV03A7emaPzeEoq1mO5_y7-ZOe6jML3AObkHDpRnLMl-iW5pWaxRJlytwnlRcriopfyzuXLiN8987w3wI2lQvX-voS7keWFcbk6AhLlSpHZoc_xkx1afbGitOXVNbIZeAob-Vq2-9qAuMDxcLPe3OLTuhlt5ScxCb7jLAzTcEIQXaSOOTC76b7tUFx9_88IwIv-4FYEZlEqFdlkR4sgKqFv0RMSkQdLA7_flckxJ-6-2qPlaNy4KMHOoUt5_4KPEB8oMYZEigErKlvHJjMYN_PZY_8gJ73PuV94T_A8fagpY9Vauup_N9ijj8lKqMy7Jae8uqHkES6YOUtwaFEfTK-NW40]--></g></svg>