<svg xmlns="http://www.w3.org/2000/svg" xmlns:xlink="http://www.w3.org/1999/xlink" contentStyleType="text/css" height="408px" preserveAspectRatio="none" style="width:1622px;height:408px;background:#FFFFFF;" version="1.1" viewBox="0 0 1622 408" width="1622px" zoomAndPan="magnify"><defs/><g><!--class AstHandler--><g id="elem_AstHandler"><rect codeLine="7" fill="#F1F1F1" height="48" id="AstHandler" rx="2.5" ry="2.5" style="stroke:#181818;stroke-width:0.5;" width="107" x="593.5" y="331.5659"/><rect fill="#444444" height="32" rx="2.5" ry="2.5" style="stroke:#444444;stroke-width:0.5;" width="107" x="593.5" y="331.5659"/><rect fill="#444444" height="2.5" style="stroke:#444444;stroke-width:0.5;" width="107" x="593.5" y="361.0659"/><rect codeLine="7" fill="none" height="48" id="AstHandler" rx="2.5" ry="2.5" style="stroke:#181818;stroke-width:0.5;" width="107" x="593.5" y="331.5659"/><ellipse cx="608.5" cy="347.5659" fill="#ADD1B2" rx="11" ry="11" style="stroke:#181818;stroke-width:1.0;"/><path d="M611.4688,353.2065 Q610.8906,353.5034 610.25,353.644 Q609.6094,353.8003 608.9063,353.8003 Q606.4063,353.8003 605.0781,352.1597 Q603.7656,350.5034 603.7656,347.3784 Q603.7656,344.2534 605.0781,342.5972 Q606.4063,340.9409 608.9063,340.9409 Q609.6094,340.9409 610.25,341.0972 Q610.9063,341.2534 611.4688,341.5503 L611.4688,344.269 Q610.8438,343.6909 610.25,343.4253 Q609.6563,343.144 609.0313,343.144 Q607.6875,343.144 607,344.2222 Q606.3125,345.2847 606.3125,347.3784 Q606.3125,349.4722 607,350.5503 Q607.6875,351.6128 609.0313,351.6128 Q609.6563,351.6128 610.25,351.3472 Q610.8438,351.0659 611.4688,350.4878 L611.4688,353.2065 Z " fill="#000000"/><text fill="#FFFFFF" font-family="sans-serif" font-size="14" lengthAdjust="spacing" textLength="75" x="622.5" y="352.4126">AstHandler</text><line style="stroke:#181818;stroke-width:0.5;" x1="594.5" x2="699.5" y1="363.5659" y2="363.5659"/><line style="stroke:#181818;stroke-width:0.5;" x1="594.5" x2="699.5" y1="371.5659" y2="371.5659"/></g><!--class DetectionMethod--><g id="elem_DetectionMethod"><rect codeLine="8" fill="#FFFFFF" height="48" id="DetectionMethod" rx="2.5" ry="2.5" style="stroke:#181818;stroke-width:0.5;" width="153" x="1384.5" y="115.5659"/><ellipse cx="1399.5" cy="131.5659" fill="#B4A7E5" rx="11" ry="11" style="stroke:#181818;stroke-width:1.0;"/><path d="M1395.4219,127.3315 L1395.4219,125.1753 L1402.8125,125.1753 L1402.8125,127.3315 L1400.3438,127.3315 L1400.3438,135.4097 L1402.8125,135.4097 L1402.8125,137.5659 L1395.4219,137.5659 L1395.4219,135.4097 L1397.8906,135.4097 L1397.8906,127.3315 L1395.4219,127.3315 Z " fill="#000000"/><text fill="#000000" font-family="sans-serif" font-size="14" font-style="italic" lengthAdjust="spacing" textLength="121" x="1413.5" y="136.4126">DetectionMethod</text><line style="stroke:#181818;stroke-width:0.5;" x1="1385.5" x2="1536.5" y1="147.5659" y2="147.5659"/><line style="stroke:#181818;stroke-width:0.5;" x1="1385.5" x2="1536.5" y1="155.5659" y2="155.5659"/></g><!--class LiteralValueExtractor--><g id="elem_LiteralValueExtractor"><rect codeLine="9" fill="#F1F1F1" height="48" id="LiteralValueExtractor" rx="2.5" ry="2.5" style="stroke:#181818;stroke-width:0.5;" width="171" x="327.5" y="223.5659"/><rect fill="#444444" height="32" rx="2.5" ry="2.5" style="stroke:#444444;stroke-width:0.5;" width="171" x="327.5" y="223.5659"/><rect fill="#444444" height="2.5" style="stroke:#444444;stroke-width:0.5;" width="171" x="327.5" y="253.0659"/><rect codeLine="9" fill="none" height="48" id="LiteralValueExtractor" rx="2.5" ry="2.5" style="stroke:#181818;stroke-width:0.5;" width="171" x="327.5" y="223.5659"/><ellipse cx="342.5" cy="239.5659" fill="#ADD1B2" rx="11" ry="11" style="stroke:#181818;stroke-width:1.0;"/><path d="M345.4688,245.2065 Q344.8906,245.5034 344.25,245.644 Q343.6094,245.8003 342.9063,245.8003 Q340.4063,245.8003 339.0781,244.1597 Q337.7656,242.5034 337.7656,239.3784 Q337.7656,236.2534 339.0781,234.5972 Q340.4063,232.9409 342.9063,232.9409 Q343.6094,232.9409 344.25,233.0972 Q344.9063,233.2534 345.4688,233.5503 L345.4688,236.269 Q344.8438,235.6909 344.25,235.4253 Q343.6563,235.144 343.0313,235.144 Q341.6875,235.144 341,236.2222 Q340.3125,237.2847 340.3125,239.3784 Q340.3125,241.4722 341,242.5503 Q341.6875,243.6128 343.0313,243.6128 Q343.6563,243.6128 344.25,243.3472 Q344.8438,243.0659 345.4688,242.4878 L345.4688,245.2065 Z " fill="#000000"/><text fill="#FFFFFF" font-family="sans-serif" font-size="14" lengthAdjust="spacing" textLength="139" x="356.5" y="244.4126">LiteralValueExtractor</text><line style="stroke:#181818;stroke-width:0.5;" x1="328.5" x2="497.5" y1="255.5659" y2="255.5659"/><line style="stroke:#181818;stroke-width:0.5;" x1="328.5" x2="497.5" y1="263.5659" y2="263.5659"/></g><!--class RefactoringCandidatesVerifier--><g id="elem_RefactoringCandidatesVerifier"><rect codeLine="10" fill="#FFFFFF" height="48" id="RefactoringCandidatesVerifier" rx="2.5" ry="2.5" style="stroke:#181818;stroke-width:0.5;" width="236" x="866" y="331.5659"/><ellipse cx="881" cy="347.5659" fill="#B4A7E5" rx="11" ry="11" style="stroke:#181818;stroke-width:1.0;"/><path d="M876.9219,343.3315 L876.9219,341.1753 L884.3125,341.1753 L884.3125,343.3315 L881.8438,343.3315 L881.8438,351.4097 L884.3125,351.4097 L884.3125,353.5659 L876.9219,353.5659 L876.9219,351.4097 L879.3906,351.4097 L879.3906,343.3315 L876.9219,343.3315 Z " fill="#000000"/><text fill="#000000" font-family="sans-serif" font-size="14" font-style="italic" lengthAdjust="spacing" textLength="204" x="895" y="352.4126">RefactoringCandidatesVerifier</text><line style="stroke:#181818;stroke-width:0.5;" x1="867" x2="1101" y1="363.5659" y2="363.5659"/><line style="stroke:#181818;stroke-width:0.5;" x1="867" x2="1101" y1="371.5659" y2="371.5659"/></g><!--class RefactoringExecutor--><g id="elem_RefactoringExecutor"><rect codeLine="11" fill="#FFFFFF" height="48" id="RefactoringExecutor" rx="2.5" ry="2.5" style="stroke:#181818;stroke-width:0.5;" width="172" x="116" y="331.5659"/><ellipse cx="131" cy="347.5659" fill="#B4A7E5" rx="11" ry="11" style="stroke:#181818;stroke-width:1.0;"/><path d="M126.9219,343.3315 L126.9219,341.1753 L134.3125,341.1753 L134.3125,343.3315 L131.8438,343.3315 L131.8438,351.4097 L134.3125,351.4097 L134.3125,353.5659 L126.9219,353.5659 L126.9219,351.4097 L129.3906,351.4097 L129.3906,343.3315 L126.9219,343.3315 Z " fill="#000000"/><text fill="#000000" font-family="sans-serif" font-size="14" font-style="italic" lengthAdjust="spacing" textLength="140" x="145" y="352.4126">RefactoringExecutor</text><line style="stroke:#181818;stroke-width:0.5;" x1="117" x2="287" y1="363.5659" y2="363.5659"/><line style="stroke:#181818;stroke-width:0.5;" x1="117" x2="287" y1="371.5659" y2="371.5659"/></g><!--class WeiEtAl2014--><g id="elem_WeiEtAl2014"><rect codeLine="12" fill="#FFFFFF" height="48" id="WeiEtAl2014" rx="2.5" ry="2.5" style="stroke:#181818;stroke-width:0.5;" width="119" x="924.5" y="7.5659"/><ellipse cx="939.5" cy="23.5659" fill="#ADD1B2" rx="11" ry="11" style="stroke:#181818;stroke-width:1.0;"/><path d="M942.4688,29.2065 Q941.8906,29.5034 941.25,29.644 Q940.6094,29.8003 939.9063,29.8003 Q937.4063,29.8003 936.0781,28.1597 Q934.7656,26.5034 934.7656,23.3784 Q934.7656,20.2534 936.0781,18.5972 Q937.4063,16.9409 939.9063,16.9409 Q940.6094,16.9409 941.25,17.0972 Q941.9063,17.2534 942.4688,17.5503 L942.4688,20.269 Q941.8438,19.6909 941.25,19.4253 Q940.6563,19.144 940.0313,19.144 Q938.6875,19.144 938,20.2222 Q937.3125,21.2847 937.3125,23.3784 Q937.3125,25.4722 938,26.5503 Q938.6875,27.6128 940.0313,27.6128 Q940.6563,27.6128 941.25,27.3472 Q941.8438,27.0659 942.4688,26.4878 L942.4688,29.2065 Z " fill="#000000"/><text fill="#000000" font-family="sans-serif" font-size="14" lengthAdjust="spacing" textLength="87" x="953.5" y="28.4126">WeiEtAl2014</text><line style="stroke:#181818;stroke-width:0.5;" x1="925.5" x2="1042.5" y1="39.5659" y2="39.5659"/><line style="stroke:#181818;stroke-width:0.5;" x1="925.5" x2="1042.5" y1="47.5659" y2="47.5659"/></g><!--class WeiEtAl2014Canditate--><g id="elem_WeiEtAl2014Canditate"><rect codeLine="13" fill="#FFFFFF" height="48" id="WeiEtAl2014Canditate" rx="2.5" ry="2.5" style="stroke:#181818;stroke-width:0.5;" width="185" x="1268.5" y="331.5659"/><ellipse cx="1283.5" cy="347.5659" fill="#ADD1B2" rx="11" ry="11" style="stroke:#181818;stroke-width:1.0;"/><path d="M1286.4688,353.2065 Q1285.8906,353.5034 1285.25,353.644 Q1284.6094,353.8003 1283.9063,353.8003 Q1281.4063,353.8003 1280.0781,352.1597 Q1278.7656,350.5034 1278.7656,347.3784 Q1278.7656,344.2534 1280.0781,342.5972 Q1281.4063,340.9409 1283.9063,340.9409 Q1284.6094,340.9409 1285.25,341.0972 Q1285.9063,341.2534 1286.4688,341.5503 L1286.4688,344.269 Q1285.8438,343.6909 1285.25,343.4253 Q1284.6563,343.144 1284.0313,343.144 Q1282.6875,343.144 1282,344.2222 Q1281.3125,345.2847 1281.3125,347.3784 Q1281.3125,349.4722 1282,350.5503 Q1282.6875,351.6128 1284.0313,351.6128 Q1284.6563,351.6128 1285.25,351.3472 Q1285.8438,351.0659 1286.4688,350.4878 L1286.4688,353.2065 Z " fill="#000000"/><text fill="#000000" font-family="sans-serif" font-size="14" lengthAdjust="spacing" textLength="153" x="1297.5" y="352.4126">WeiEtAl2014Canditate</text><line style="stroke:#181818;stroke-width:0.5;" x1="1269.5" x2="1452.5" y1="363.5659" y2="363.5659"/><line style="stroke:#181818;stroke-width:0.5;" x1="1269.5" x2="1452.5" y1="371.5659" y2="371.5659"/></g><!--class WeiEtAl2014Executor--><g id="elem_WeiEtAl2014Executor"><rect codeLine="14" fill="#FFFFFF" height="48" id="WeiEtAl2014Executor" rx="2.5" ry="2.5" style="stroke:#181818;stroke-width:0.5;" width="180" x="112" y="223.5659"/><ellipse cx="127" cy="239.5659" fill="#B4A7E5" rx="11" ry="11" style="stroke:#181818;stroke-width:1.0;"/><path d="M122.9219,235.3315 L122.9219,233.1753 L130.3125,233.1753 L130.3125,235.3315 L127.8438,235.3315 L127.8438,243.4097 L130.3125,243.4097 L130.3125,245.5659 L122.9219,245.5659 L122.9219,243.4097 L125.3906,243.4097 L125.3906,235.3315 L122.9219,235.3315 Z " fill="#000000"/><text fill="#000000" font-family="sans-serif" font-size="14" font-style="italic" lengthAdjust="spacing" textLength="148" x="141" y="244.4126">WeiEtAl2014Executor</text><line style="stroke:#181818;stroke-width:0.5;" x1="113" x2="291" y1="255.5659" y2="255.5659"/><line style="stroke:#181818;stroke-width:0.5;" x1="113" x2="291" y1="263.5659" y2="263.5659"/></g><!--class WeiEtAl2014FactoryCanditate--><g id="elem_WeiEtAl2014FactoryCanditate"><rect codeLine="15" fill="#FFFFFF" height="48" id="WeiEtAl2014FactoryCanditate" rx="2.5" ry="2.5" style="stroke:#181818;stroke-width:0.5;" width="235" x="1102.5" y="223.5659"/><ellipse cx="1117.5" cy="239.5659" fill="#ADD1B2" rx="11" ry="11" style="stroke:#181818;stroke-width:1.0;"/><path d="M1120.4688,245.2065 Q1119.8906,245.5034 1119.25,245.644 Q1118.6094,245.8003 1117.9063,245.8003 Q1115.4063,245.8003 1114.0781,244.1597 Q1112.7656,242.5034 1112.7656,239.3784 Q1112.7656,236.2534 1114.0781,234.5972 Q1115.4063,232.9409 1117.9063,232.9409 Q1118.6094,232.9409 1119.25,233.0972 Q1119.9063,233.2534 1120.4688,233.5503 L1120.4688,236.269 Q1119.8438,235.6909 1119.25,235.4253 Q1118.6563,235.144 1118.0313,235.144 Q1116.6875,235.144 1116,236.2222 Q1115.3125,237.2847 1115.3125,239.3784 Q1115.3125,241.4722 1116,242.5503 Q1116.6875,243.6128 1118.0313,243.6128 Q1118.6563,243.6128 1119.25,243.3472 Q1119.8438,243.0659 1120.4688,242.4878 L1120.4688,245.2065 Z " fill="#000000"/><text fill="#000000" font-family="sans-serif" font-size="14" lengthAdjust="spacing" textLength="203" x="1131.5" y="244.4126">WeiEtAl2014FactoryCanditate</text><line style="stroke:#181818;stroke-width:0.5;" x1="1103.5" x2="1336.5" y1="255.5659" y2="255.5659"/><line style="stroke:#181818;stroke-width:0.5;" x1="1103.5" x2="1336.5" y1="263.5659" y2="263.5659"/></g><!--class WeiEtAl2014FactoryExecutor--><g id="elem_WeiEtAl2014FactoryExecutor"><rect codeLine="16" fill="#F1F1F1" height="48" id="WeiEtAl2014FactoryExecutor" rx="2.5" ry="2.5" style="stroke:#181818;stroke-width:0.5;" width="230" x="7" y="115.5659"/><rect fill="#444444" height="32" rx="2.5" ry="2.5" style="stroke:#444444;stroke-width:0.5;" width="230" x="7" y="115.5659"/><rect fill="#444444" height="2.5" style="stroke:#444444;stroke-width:0.5;" width="230" x="7" y="145.0659"/><rect codeLine="16" fill="none" height="48" id="WeiEtAl2014FactoryExecutor" rx="2.5" ry="2.5" style="stroke:#181818;stroke-width:0.5;" width="230" x="7" y="115.5659"/><ellipse cx="22" cy="131.5659" fill="#ADD1B2" rx="11" ry="11" style="stroke:#181818;stroke-width:1.0;"/><path d="M24.9688,137.2065 Q24.3906,137.5034 23.75,137.644 Q23.1094,137.8003 22.4063,137.8003 Q19.9063,137.8003 18.5781,136.1597 Q17.2656,134.5034 17.2656,131.3784 Q17.2656,128.2534 18.5781,126.5972 Q19.9063,124.9409 22.4063,124.9409 Q23.1094,124.9409 23.75,125.0972 Q24.4063,125.2534 24.9688,125.5503 L24.9688,128.269 Q24.3438,127.6909 23.75,127.4253 Q23.1563,127.144 22.5313,127.144 Q21.1875,127.144 20.5,128.2222 Q19.8125,129.2847 19.8125,131.3784 Q19.8125,133.4722 20.5,134.5503 Q21.1875,135.6128 22.5313,135.6128 Q23.1563,135.6128 23.75,135.3472 Q24.3438,135.0659 24.9688,134.4878 L24.9688,137.2065 Z " fill="#000000"/><text fill="#FFFFFF" font-family="sans-serif" font-size="14" lengthAdjust="spacing" textLength="198" x="36" y="136.4126">WeiEtAl2014FactoryExecutor</text><line style="stroke:#181818;stroke-width:0.5;" x1="8" x2="236" y1="147.5659" y2="147.5659"/><line style="stroke:#181818;stroke-width:0.5;" x1="8" x2="236" y1="155.5659" y2="155.5659"/></g><!--class WeiEtAl2014FactoryVerifier--><g id="elem_WeiEtAl2014FactoryVerifier"><rect codeLine="17" fill="#F1F1F1" height="48" id="WeiEtAl2014FactoryVerifier" rx="2.5" ry="2.5" style="stroke:#181818;stroke-width:0.5;" width="216" x="876" y="115.5659"/><rect fill="#444444" height="32" rx="2.5" ry="2.5" style="stroke:#444444;stroke-width:0.5;" width="216" x="876" y="115.5659"/><rect fill="#444444" height="2.5" style="stroke:#444444;stroke-width:0.5;" width="216" x="876" y="145.0659"/><rect codeLine="17" fill="none" height="48" id="WeiEtAl2014FactoryVerifier" rx="2.5" ry="2.5" style="stroke:#181818;stroke-width:0.5;" width="216" x="876" y="115.5659"/><ellipse cx="891" cy="131.5659" fill="#ADD1B2" rx="11" ry="11" style="stroke:#181818;stroke-width:1.0;"/><path d="M893.9688,137.2065 Q893.3906,137.5034 892.75,137.644 Q892.1094,137.8003 891.4063,137.8003 Q888.9063,137.8003 887.5781,136.1597 Q886.2656,134.5034 886.2656,131.3784 Q886.2656,128.2534 887.5781,126.5972 Q888.9063,124.9409 891.4063,124.9409 Q892.1094,124.9409 892.75,125.0972 Q893.4063,125.2534 893.9688,125.5503 L893.9688,128.269 Q893.3438,127.6909 892.75,127.4253 Q892.1563,127.144 891.5313,127.144 Q890.1875,127.144 889.5,128.2222 Q888.8125,129.2847 888.8125,131.3784 Q888.8125,133.4722 889.5,134.5503 Q890.1875,135.6128 891.5313,135.6128 Q892.1563,135.6128 892.75,135.3472 Q893.3438,135.0659 893.9688,134.4878 L893.9688,137.2065 Z " fill="#000000"/><text fill="#FFFFFF" font-family="sans-serif" font-size="14" lengthAdjust="spacing" textLength="184" x="905" y="136.4126">WeiEtAl2014FactoryVerifier</text><line style="stroke:#181818;stroke-width:0.5;" x1="877" x2="1091" y1="147.5659" y2="147.5659"/><line style="stroke:#181818;stroke-width:0.5;" x1="877" x2="1091" y1="155.5659" y2="155.5659"/></g><!--class WeiEtAl2014StrategyCanditate--><g id="elem_WeiEtAl2014StrategyCanditate"><rect codeLine="18" fill="#FFFFFF" height="48" id="WeiEtAl2014StrategyCanditate" rx="2.5" ry="2.5" style="stroke:#181818;stroke-width:0.5;" width="242" x="1373" y="223.5659"/><ellipse cx="1388" cy="239.5659" fill="#ADD1B2" rx="11" ry="11" style="stroke:#181818;stroke-width:1.0;"/><path d="M1390.9688,245.2065 Q1390.3906,245.5034 1389.75,245.644 Q1389.1094,245.8003 1388.4063,245.8003 Q1385.9063,245.8003 1384.5781,244.1597 Q1383.2656,242.5034 1383.2656,239.3784 Q1383.2656,236.2534 1384.5781,234.5972 Q1385.9063,232.9409 1388.4063,232.9409 Q1389.1094,232.9409 1389.75,233.0972 Q1390.4063,233.2534 1390.9688,233.5503 L1390.9688,236.269 Q1390.3438,235.6909 1389.75,235.4253 Q1389.1563,235.144 1388.5313,235.144 Q1387.1875,235.144 1386.5,236.2222 Q1385.8125,237.2847 1385.8125,239.3784 Q1385.8125,241.4722 1386.5,242.5503 Q1387.1875,243.6128 1388.5313,243.6128 Q1389.1563,243.6128 1389.75,243.3472 Q1390.3438,243.0659 1390.9688,242.4878 L1390.9688,245.2065 Z " fill="#000000"/><text fill="#000000" font-family="sans-serif" font-size="14" lengthAdjust="spacing" textLength="210" x="1402" y="244.4126">WeiEtAl2014StrategyCanditate</text><line style="stroke:#181818;stroke-width:0.5;" x1="1374" x2="1614" y1="255.5659" y2="255.5659"/><line style="stroke:#181818;stroke-width:0.5;" x1="1374" x2="1614" y1="263.5659" y2="263.5659"/></g><!--class WeiEtAl2014StrategyExecutor--><g id="elem_WeiEtAl2014StrategyExecutor"><rect codeLine="19" fill="#F1F1F1" height="48" id="WeiEtAl2014StrategyExecutor" rx="2.5" ry="2.5" style="stroke:#181818;stroke-width:0.5;" width="237" x="603.5" y="115.5659"/><rect fill="#444444" height="32" rx="2.5" ry="2.5" style="stroke:#444444;stroke-width:0.5;" width="237" x="603.5" y="115.5659"/><rect fill="#444444" height="2.5" style="stroke:#444444;stroke-width:0.5;" width="237" x="603.5" y="145.0659"/><rect codeLine="19" fill="none" height="48" id="WeiEtAl2014StrategyExecutor" rx="2.5" ry="2.5" style="stroke:#181818;stroke-width:0.5;" width="237" x="603.5" y="115.5659"/><ellipse cx="618.5" cy="131.5659" fill="#ADD1B2" rx="11" ry="11" style="stroke:#181818;stroke-width:1.0;"/><path d="M621.4688,137.2065 Q620.8906,137.5034 620.25,137.644 Q619.6094,137.8003 618.9063,137.8003 Q616.4063,137.8003 615.0781,136.1597 Q613.7656,134.5034 613.7656,131.3784 Q613.7656,128.2534 615.0781,126.5972 Q616.4063,124.9409 618.9063,124.9409 Q619.6094,124.9409 620.25,125.0972 Q620.9063,125.2534 621.4688,125.5503 L621.4688,128.269 Q620.8438,127.6909 620.25,127.4253 Q619.6563,127.144 619.0313,127.144 Q617.6875,127.144 617,128.2222 Q616.3125,129.2847 616.3125,131.3784 Q616.3125,133.4722 617,134.5503 Q617.6875,135.6128 619.0313,135.6128 Q619.6563,135.6128 620.25,135.3472 Q620.8438,135.0659 621.4688,134.4878 L621.4688,137.2065 Z " fill="#000000"/><text fill="#FFFFFF" font-family="sans-serif" font-size="14" lengthAdjust="spacing" textLength="205" x="632.5" y="136.4126">WeiEtAl2014StrategyExecutor</text><line style="stroke:#181818;stroke-width:0.5;" x1="604.5" x2="839.5" y1="147.5659" y2="147.5659"/><line style="stroke:#181818;stroke-width:0.5;" x1="604.5" x2="839.5" y1="155.5659" y2="155.5659"/></g><!--class WeiEtAl2014StrategyVerifier--><g id="elem_WeiEtAl2014StrategyVerifier"><rect codeLine="20" fill="#F1F1F1" height="48" id="WeiEtAl2014StrategyVerifier" rx="2.5" ry="2.5" style="stroke:#181818;stroke-width:0.5;" width="223" x="1126.5" y="115.5659"/><rect fill="#444444" height="32" rx="2.5" ry="2.5" style="stroke:#444444;stroke-width:0.5;" width="223" x="1126.5" y="115.5659"/><rect fill="#444444" height="2.5" style="stroke:#444444;stroke-width:0.5;" width="223" x="1126.5" y="145.0659"/><rect codeLine="20" fill="none" height="48" id="WeiEtAl2014StrategyVerifier" rx="2.5" ry="2.5" style="stroke:#181818;stroke-width:0.5;" width="223" x="1126.5" y="115.5659"/><ellipse cx="1141.5" cy="131.5659" fill="#ADD1B2" rx="11" ry="11" style="stroke:#181818;stroke-width:1.0;"/><path d="M1144.4688,137.2065 Q1143.8906,137.5034 1143.25,137.644 Q1142.6094,137.8003 1141.9063,137.8003 Q1139.4063,137.8003 1138.0781,136.1597 Q1136.7656,134.5034 1136.7656,131.3784 Q1136.7656,128.2534 1138.0781,126.5972 Q1139.4063,124.9409 1141.9063,124.9409 Q1142.6094,124.9409 1143.25,125.0972 Q1143.9063,125.2534 1144.4688,125.5503 L1144.4688,128.269 Q1143.8438,127.6909 1143.25,127.4253 Q1142.6563,127.144 1142.0313,127.144 Q1140.6875,127.144 1140,128.2222 Q1139.3125,129.2847 1139.3125,131.3784 Q1139.3125,133.4722 1140,134.5503 Q1140.6875,135.6128 1142.0313,135.6128 Q1142.6563,135.6128 1143.25,135.3472 Q1143.8438,135.0659 1144.4688,134.4878 L1144.4688,137.2065 Z " fill="#000000"/><text fill="#FFFFFF" font-family="sans-serif" font-size="14" lengthAdjust="spacing" textLength="191" x="1155.5" y="136.4126">WeiEtAl2014StrategyVerifier</text><line style="stroke:#181818;stroke-width:0.5;" x1="1127.5" x2="1348.5" y1="147.5659" y2="147.5659"/><line style="stroke:#181818;stroke-width:0.5;" x1="1127.5" x2="1348.5" y1="155.5659" y2="155.5659"/></g><!--class WeiEtAl2014Verifier--><g id="elem_WeiEtAl2014Verifier"><rect codeLine="21" fill="#F1F1F1" height="48" id="WeiEtAl2014Verifier" rx="2.5" ry="2.5" style="stroke:#181818;stroke-width:0.5;" width="166" x="901" y="223.5659"/><rect fill="#444444" height="32" rx="2.5" ry="2.5" style="stroke:#444444;stroke-width:0.5;" width="166" x="901" y="223.5659"/><rect fill="#444444" height="2.5" style="stroke:#444444;stroke-width:0.5;" width="166" x="901" y="253.0659"/><rect codeLine="21" fill="none" height="48" id="WeiEtAl2014Verifier" rx="2.5" ry="2.5" style="stroke:#181818;stroke-width:0.5;" width="166" x="901" y="223.5659"/><ellipse cx="916" cy="239.5659" fill="#ADD1B2" rx="11" ry="11" style="stroke:#181818;stroke-width:1.0;"/><path d="M918.9688,245.2065 Q918.3906,245.5034 917.75,245.644 Q917.1094,245.8003 916.4063,245.8003 Q913.9063,245.8003 912.5781,244.1597 Q911.2656,242.5034 911.2656,239.3784 Q911.2656,236.2534 912.5781,234.5972 Q913.9063,232.9409 916.4063,232.9409 Q917.1094,232.9409 917.75,233.0972 Q918.4063,233.2534 918.9688,233.5503 L918.9688,236.269 Q918.3438,235.6909 917.75,235.4253 Q917.1563,235.144 916.5313,235.144 Q915.1875,235.144 914.5,236.2222 Q913.8125,237.2847 913.8125,239.3784 Q913.8125,241.4722 914.5,242.5503 Q915.1875,243.6128 916.5313,243.6128 Q917.1563,243.6128 917.75,243.3472 Q918.3438,243.0659 918.9688,242.4878 L918.9688,245.2065 Z " fill="#000000"/><text fill="#FFFFFF" font-family="sans-serif" font-size="14" lengthAdjust="spacing" textLength="134" x="930" y="244.4126">WeiEtAl2014Verifier</text><line style="stroke:#181818;stroke-width:0.5;" x1="902" x2="1066" y1="255.5659" y2="255.5659"/><line style="stroke:#181818;stroke-width:0.5;" x1="902" x2="1066" y1="263.5659" y2="263.5659"/></g><!--class ExtractMethodPreconditions--><g id="elem_ExtractMethodPreconditions"><rect fill="#F1F1F1" height="48" id="ExtractMethodPreconditions" rx="2.5" ry="2.5" style="stroke:#181818;stroke-width:0.5;" width="227" x="533.5" y="223.5659"/><rect fill="#444444" height="32" rx="2.5" ry="2.5" style="stroke:#444444;stroke-width:0.5;" width="227" x="533.5" y="223.5659"/><rect fill="#444444" height="2.5" style="stroke:#444444;stroke-width:0.5;" width="227" x="533.5" y="253.0659"/><rect fill="none" height="48" id="ExtractMethodPreconditions" rx="2.5" ry="2.5" style="stroke:#181818;stroke-width:0.5;" width="227" x="533.5" y="223.5659"/><ellipse cx="548.5" cy="239.5659" fill="#ADD1B2" rx="11" ry="11" style="stroke:#181818;stroke-width:1.0;"/><path d="M551.4688,245.2065 Q550.8906,245.5034 550.25,245.644 Q549.6094,245.8003 548.9063,245.8003 Q546.4063,245.8003 545.0781,244.1597 Q543.7656,242.5034 543.7656,239.3784 Q543.7656,236.2534 545.0781,234.5972 Q546.4063,232.9409 548.9063,232.9409 Q549.6094,232.9409 550.25,233.0972 Q550.9063,233.2534 551.4688,233.5503 L551.4688,236.269 Q550.8438,235.6909 550.25,235.4253 Q549.6563,235.144 549.0313,235.144 Q547.6875,235.144 547,236.2222 Q546.3125,237.2847 546.3125,239.3784 Q546.3125,241.4722 547,242.5503 Q547.6875,243.6128 549.0313,243.6128 Q549.6563,243.6128 550.25,243.3472 Q550.8438,243.0659 551.4688,242.4878 L551.4688,245.2065 Z " fill="#000000"/><text fill="#FFFFFF" font-family="sans-serif" font-size="14" lengthAdjust="spacing" textLength="195" x="562.5" y="244.4126">ExtractMethodPreconditions</text><line style="stroke:#181818;stroke-width:0.5;" x1="534.5" x2="759.5" y1="255.5659" y2="255.5659"/><line style="stroke:#181818;stroke-width:0.5;" x1="534.5" x2="759.5" y1="263.5659" y2="263.5659"/></g><!--link ExtractMethodPreconditions to AstHandler--><g id="link_ExtractMethodPreconditions_AstHandler"><path codeLine="23" d="M629.17,271.8059 C629.17,289.5859 629.17,307.6459 629.17,325.4059 " fill="none" id="ExtractMethodPreconditions-to-AstHandler" style="stroke:#181818;stroke-width:1.0;stroke-dasharray:7.0,7.0;"/><polygon fill="#181818" points="629.17,331.4059,633.17,322.4059,629.17,326.4059,625.17,322.4059,629.17,331.4059" style="stroke:#181818;stroke-width:1.0;"/><text fill="#000000" font-family="sans-serif" font-size="13" lengthAdjust="spacing" textLength="41" x="587.17" y="297.6728">create</text></g><!--link ExtractMethodPreconditions to AstHandler--><g id="link_ExtractMethodPreconditions_AstHandler"><path codeLine="24" d="M664.83,283.8059 C664.83,301.5859 664.83,307.6459 664.83,325.4059 " fill="none" id="ExtractMethodPreconditions-AstHandler" style="stroke:#181818;stroke-width:1.0;"/><polygon fill="#181818" points="664.83,271.8059,660.83,277.8059,664.83,283.8059,668.83,277.8059,664.83,271.8059" style="stroke:#181818;stroke-width:1.0;"/><polygon fill="#181818" points="664.83,331.4059,668.83,322.4059,664.83,326.4059,660.83,322.4059,664.83,331.4059" style="stroke:#181818;stroke-width:1.0;"/><text fill="#000000" font-family="sans-serif" font-size="13" lengthAdjust="spacing" textLength="8" x="660.2011" y="291.6256">1</text><text fill="#000000" font-family="sans-serif" font-size="13" lengthAdjust="spacing" textLength="70" x="591.2887" y="305.4235">astHandler</text><text fill="#000000" font-family="sans-serif" font-size="13" lengthAdjust="spacing" textLength="8" x="622.2887" y="320.5563">1</text></g><!--link LiteralValueExtractor to AstHandler--><g id="link_LiteralValueExtractor_AstHandler"><path codeLine="25" d="M441.5,283.7759 C441.5,311.6259 441.5,341.5659 441.5,341.5659 C441.5,341.5659 526.12,341.5659 587.01,341.5659 " fill="none" id="LiteralValueExtractor-AstHandler" style="stroke:#181818;stroke-width:1.0;"/><polygon fill="#181818" points="441.5,271.7759,437.5,277.7759,441.5,283.7759,445.5,277.7759,441.5,271.7759" style="stroke:#181818;stroke-width:1.0;"/><polygon fill="#181818" points="593.01,341.5659,584.01,337.5659,588.01,341.5659,584.01,345.5659,593.01,341.5659" style="stroke:#181818;stroke-width:1.0;"/><text fill="#000000" font-family="sans-serif" font-size="13" lengthAdjust="spacing" textLength="8" x="439.4719" y="291.5883">1</text><text fill="#000000" font-family="sans-serif" font-size="13" lengthAdjust="spacing" textLength="70" x="515.3624" y="321.152">astHandler</text><text fill="#000000" font-family="sans-serif" font-size="13" lengthAdjust="spacing" textLength="8" x="546.3624" y="336.2849">1</text></g><!--link LiteralValueExtractor to AstHandler--><g id="link_LiteralValueExtractor_AstHandler"><path codeLine="26" d="M384.5,271.9459 C384.5,302.6859 384.5,351.5659 384.5,351.5659 C384.5,351.5659 510.45,351.5659 587.25,351.5659 " fill="none" id="LiteralValueExtractor-to-AstHandler" style="stroke:#181818;stroke-width:1.0;stroke-dasharray:7.0,7.0;"/><polygon fill="#181818" points="593.25,351.5659,584.25,347.5659,588.25,351.5659,584.25,355.5659,593.25,351.5659" style="stroke:#181818;stroke-width:1.0;"/><text fill="#000000" font-family="sans-serif" font-size="13" lengthAdjust="spacing" textLength="41" x="407.06" y="347.6328">create</text></g><!--link WeiEtAl2014 to DetectionMethod--><g id="link_WeiEtAl2014_DetectionMethod"><path codeLine="27" d="M1043.93,23.5659 C1172.04,23.5659 1461,23.5659 1461,23.5659 C1461,23.5659 1461,63.2359 1461,97.2459 " fill="none" id="WeiEtAl2014-to-DetectionMethod" style="stroke:#181818;stroke-width:1.0;stroke-dasharray:7.0,7.0;"/><polygon fill="none" points="1461,115.2459,1467,97.2459,1455,97.2459,1461,115.2459" style="stroke:#181818;stroke-width:1.0;"/></g><!--link WeiEtAl2014 to WeiEtAl2014FactoryExecutor--><g id="link_WeiEtAl2014_WeiEtAl2014FactoryExecutor"><path codeLine="28" d="M924.07,23.5659 C728.59,23.5659 122,23.5659 122,23.5659 C122,23.5659 122,75.2359 122,109.2459 " fill="none" id="WeiEtAl2014-to-WeiEtAl2014FactoryExecutor" style="stroke:#181818;stroke-width:1.0;stroke-dasharray:7.0,7.0;"/><polygon fill="#181818" points="122,115.2459,126,106.2459,122,110.2459,118,106.2459,122,115.2459" style="stroke:#181818;stroke-width:1.0;"/><text fill="#000000" font-family="sans-serif" font-size="13" lengthAdjust="spacing" textLength="41" x="435.19" y="19.6328">create</text></g><!--link WeiEtAl2014 to WeiEtAl2014FactoryVerifier--><g id="link_WeiEtAl2014_WeiEtAl2014FactoryVerifier"><path codeLine="29" d="M984,55.8059 C984,73.5859 984,91.6459 984,109.4059 " fill="none" id="WeiEtAl2014-to-WeiEtAl2014FactoryVerifier" style="stroke:#181818;stroke-width:1.0;stroke-dasharray:7.0,7.0;"/><polygon fill="#181818" points="984,115.4059,988,106.4059,984,110.4059,980,106.4059,984,115.4059" style="stroke:#181818;stroke-width:1.0;"/><text fill="#000000" font-family="sans-serif" font-size="13" lengthAdjust="spacing" textLength="41" x="942" y="81.6728">create</text></g><!--link WeiEtAl2014 to WeiEtAl2014StrategyExecutor--><g id="link_WeiEtAl2014_WeiEtAl2014StrategyExecutor"><path codeLine="30" d="M924.22,39.5659 C846.89,39.5659 722,39.5659 722,39.5659 C722,39.5659 722,79.4959 722,109.1059 " fill="none" id="WeiEtAl2014-to-WeiEtAl2014StrategyExecutor" style="stroke:#181818;stroke-width:1.0;stroke-dasharray:7.0,7.0;"/><polygon fill="#181818" points="722,115.1059,726,106.1059,722,110.1059,718,106.1059,722,115.1059" style="stroke:#181818;stroke-width:1.0;"/><text fill="#000000" font-family="sans-serif" font-size="13" lengthAdjust="spacing" textLength="41" x="743.34" y="35.6328">create</text></g><!--link WeiEtAl2014 to WeiEtAl2014StrategyVerifier--><g id="link_WeiEtAl2014_WeiEtAl2014StrategyVerifier"><path codeLine="31" d="M1043.87,39.5659 C1118.97,39.5659 1238,39.5659 1238,39.5659 C1238,39.5659 1238,79.4959 1238,109.1059 " fill="none" id="WeiEtAl2014-to-WeiEtAl2014StrategyVerifier" style="stroke:#181818;stroke-width:1.0;stroke-dasharray:7.0,7.0;"/><polygon fill="#181818" points="1238,115.1059,1242,106.1059,1238,110.1059,1234,106.1059,1238,115.1059" style="stroke:#181818;stroke-width:1.0;"/><text fill="#000000" font-family="sans-serif" font-size="13" lengthAdjust="spacing" textLength="41" x="1136.7" y="35.6328">create</text></g><!--link WeiEtAl2014Executor to RefactoringExecutor--><g id="link_WeiEtAl2014Executor_RefactoringExecutor"><path codeLine="32" d="M202,271.8059 C202,289.5859 202,295.6459 202,313.4059 " fill="none" id="WeiEtAl2014Executor-to-RefactoringExecutor" style="stroke:#181818;stroke-width:1.0;"/><polygon fill="none" points="202,331.4059,208,313.4059,196,313.4059,202,331.4059" style="stroke:#181818;stroke-width:1.0;"/></g><!--link WeiEtAl2014FactoryCanditate to WeiEtAl2014Canditate--><g id="link_WeiEtAl2014FactoryCanditate_WeiEtAl2014Canditate"><path codeLine="33" d="M1303,271.8059 C1303,289.5859 1303,295.6459 1303,313.4059 " fill="none" id="WeiEtAl2014FactoryCanditate-to-WeiEtAl2014Canditate" style="stroke:#181818;stroke-width:1.0;"/><polygon fill="none" points="1303,331.4059,1309,313.4059,1297,313.4059,1303,331.4059" style="stroke:#181818;stroke-width:1.0;"/></g><!--link WeiEtAl2014FactoryExecutor to AstHandler--><g id="link_WeiEtAl2014FactoryExecutor_AstHandler"><path codeLine="34" d="M237.45,135.5659 C278.93,135.5659 315.67,135.5659 315.67,135.5659 C315.67,135.5659 315.67,360.5659 315.67,360.5659 C315.67,360.5659 493.14,360.5659 587.03,360.5659 " fill="none" id="WeiEtAl2014FactoryExecutor-to-AstHandler" style="stroke:#181818;stroke-width:1.0;stroke-dasharray:7.0,7.0;"/><polygon fill="#181818" points="593.03,360.5659,584.03,356.5659,588.03,360.5659,584.03,364.5659,593.03,360.5659" style="stroke:#181818;stroke-width:1.0;"/><text fill="#000000" font-family="sans-serif" font-size="13" lengthAdjust="spacing" textLength="41" x="316.67" y="343.7028">create</text></g><!--link WeiEtAl2014FactoryExecutor to AstHandler--><g id="link_WeiEtAl2014FactoryExecutor_AstHandler"><path codeLine="35" d="M249.42,144.5659 C285.39,144.5659 303.83,144.5659 303.83,144.5659 C303.83,144.5659 303.83,370.5659 303.83,370.5659 C303.83,370.5659 490.36,370.5659 587,370.5659 " fill="none" id="WeiEtAl2014FactoryExecutor-AstHandler" style="stroke:#181818;stroke-width:1.0;"/><polygon fill="#181818" points="237.42,144.5659,243.42,148.5659,249.42,144.5659,243.42,140.5659,237.42,144.5659" style="stroke:#181818;stroke-width:1.0;"/><polygon fill="#181818" points="593,370.5659,584,366.5659,588,370.5659,584,374.5659,593,370.5659" style="stroke:#181818;stroke-width:1.0;"/><text fill="#000000" font-family="sans-serif" font-size="13" lengthAdjust="spacing" textLength="8" x="245.0703" y="141.4769">1</text><text fill="#000000" font-family="sans-serif" font-size="13" lengthAdjust="spacing" textLength="70" x="515.6297" y="385.1282">astHandler</text><text fill="#000000" font-family="sans-serif" font-size="13" lengthAdjust="spacing" textLength="8" x="546.6297" y="400.261">1</text></g><!--link WeiEtAl2014FactoryExecutor to WeiEtAl2014Executor--><g id="link_WeiEtAl2014FactoryExecutor_WeiEtAl2014Executor"><path codeLine="36" d="M174.5,163.8059 C174.5,181.5859 174.5,187.6459 174.5,205.4059 " fill="none" id="WeiEtAl2014FactoryExecutor-to-WeiEtAl2014Executor" style="stroke:#181818;stroke-width:1.0;stroke-dasharray:7.0,7.0;"/><polygon fill="none" points="174.5,223.4059,180.5,205.4059,168.5,205.4059,174.5,223.4059" style="stroke:#181818;stroke-width:1.0;"/></g><!--link WeiEtAl2014FactoryVerifier to WeiEtAl2014FactoryCanditate--><g id="link_WeiEtAl2014FactoryVerifier_WeiEtAl2014FactoryCanditate"><path codeLine="37" d="M1079.5,163.8859 C1079.5,197.8959 1079.5,255.5659 1079.5,255.5659 C1079.5,255.5659 1082.56,255.5659 1096.07,255.5659 " fill="none" id="WeiEtAl2014FactoryVerifier-to-WeiEtAl2014FactoryCanditate" style="stroke:#181818;stroke-width:1.0;stroke-dasharray:7.0,7.0;"/><polygon fill="#181818" points="1102.07,255.5659,1093.07,251.5659,1097.07,255.5659,1093.07,259.5659,1102.07,255.5659" style="stroke:#181818;stroke-width:1.0;"/><text fill="#000000" font-family="sans-serif" font-size="13" lengthAdjust="spacing" textLength="41" x="1037.5" y="217.0828">create</text></g><!--link WeiEtAl2014FactoryVerifier to WeiEtAl2014Verifier--><g id="link_WeiEtAl2014FactoryVerifier_WeiEtAl2014Verifier"><path codeLine="38" d="M984,163.8059 C984,181.5859 984,187.6459 984,205.4059 " fill="none" id="WeiEtAl2014FactoryVerifier-to-WeiEtAl2014Verifier" style="stroke:#181818;stroke-width:1.0;"/><polygon fill="none" points="984,223.4059,990,205.4059,978,205.4059,984,223.4059" style="stroke:#181818;stroke-width:1.0;"/></g><!--link WeiEtAl2014StrategyCanditate to WeiEtAl2014Canditate--><g id="link_WeiEtAl2014StrategyCanditate_WeiEtAl2014Canditate"><path codeLine="39" d="M1413.25,271.8059 C1413.25,289.5859 1413.25,295.6459 1413.25,313.4059 " fill="none" id="WeiEtAl2014StrategyCanditate-to-WeiEtAl2014Canditate" style="stroke:#181818;stroke-width:1.0;"/><polygon fill="none" points="1413.25,331.4059,1419.25,313.4059,1407.25,313.4059,1413.25,331.4059" style="stroke:#181818;stroke-width:1.0;"/></g><!--link WeiEtAl2014StrategyExecutor to AstHandler--><g id="link_WeiEtAl2014StrategyExecutor_AstHandler"><path codeLine="40" d="M787.17,175.9359 C787.17,229.6559 787.17,341.5659 787.17,341.5659 C787.17,341.5659 746.32,341.5659 706.79,341.5659 " fill="none" id="WeiEtAl2014StrategyExecutor-AstHandler" style="stroke:#181818;stroke-width:1.0;"/><polygon fill="#181818" points="787.17,163.9359,783.17,169.9359,787.17,175.9359,791.17,169.9359,787.17,163.9359" style="stroke:#181818;stroke-width:1.0;"/><polygon fill="#181818" points="700.79,341.5659,709.79,345.5659,705.79,341.5659,709.79,337.5659,700.79,341.5659" style="stroke:#181818;stroke-width:1.0;"/><text fill="#000000" font-family="sans-serif" font-size="13" lengthAdjust="spacing" textLength="8" x="794.0802" y="183.7873">1</text><text fill="#000000" font-family="sans-serif" font-size="13" lengthAdjust="spacing" textLength="70" x="708.4204" y="321.152">astHandler</text><text fill="#000000" font-family="sans-serif" font-size="13" lengthAdjust="spacing" textLength="8" x="739.4204" y="336.2849">1</text></g><!--link WeiEtAl2014StrategyExecutor to AstHandler--><g id="link_WeiEtAl2014StrategyExecutor_AstHandler"><path codeLine="41" d="M813.83,163.8859 C813.83,219.5659 813.83,351.5659 813.83,351.5659 C813.83,351.5659 755.48,351.5659 706.71,351.5659 " fill="none" id="WeiEtAl2014StrategyExecutor-to-AstHandler" style="stroke:#181818;stroke-width:1.0;stroke-dasharray:7.0,7.0;"/><polygon fill="#181818" points="700.71,351.5659,709.71,355.5659,705.71,351.5659,709.71,347.5659,700.71,351.5659" style="stroke:#181818;stroke-width:1.0;"/><text fill="#000000" font-family="sans-serif" font-size="13" lengthAdjust="spacing" textLength="41" x="771.83" y="310.3528">create</text></g><!--link WeiEtAl2014StrategyExecutor to LiteralValueExtractor--><g id="link_WeiEtAl2014StrategyExecutor_LiteralValueExtractor"><path codeLine="42" d="M603.42,154.5659 C516.28,154.5659 413,154.5659 413,154.5659 C413,154.5659 413,189.5759 413,217.1359 " fill="none" id="WeiEtAl2014StrategyExecutor-to-LiteralValueExtractor" style="stroke:#181818;stroke-width:1.0;stroke-dasharray:7.0,7.0;"/><polygon fill="#181818" points="413,223.1359,417,214.1359,413,218.1359,409,214.1359,413,223.1359" style="stroke:#181818;stroke-width:1.0;"/><text fill="#000000" font-family="sans-serif" font-size="13" lengthAdjust="spacing" textLength="41" x="431.93" y="150.6328">create</text></g><!--link WeiEtAl2014StrategyExecutor to WeiEtAl2014Executor--><g id="link_WeiEtAl2014StrategyExecutor_WeiEtAl2014Executor"><path codeLine="43" d="M603.29,125.5659 C467.73,125.5659 264.5,125.5659 264.5,125.5659 C264.5,125.5659 264.5,169.5659 264.5,205.1659 " fill="none" id="WeiEtAl2014StrategyExecutor-to-WeiEtAl2014Executor" style="stroke:#181818;stroke-width:1.0;stroke-dasharray:7.0,7.0;"/><polygon fill="none" points="264.5,223.1659,270.5,205.1659,258.5,205.1659,264.5,223.1659" style="stroke:#181818;stroke-width:1.0;"/></g><!--link WeiEtAl2014StrategyVerifier to WeiEtAl2014StrategyCanditate--><g id="link_WeiEtAl2014StrategyVerifier_WeiEtAl2014StrategyCanditate"><path codeLine="44" d="M1349.93,139.5659 C1366.83,139.5659 1378.75,139.5659 1378.75,139.5659 C1378.75,139.5659 1378.75,185.4859 1378.75,217.3259 " fill="none" id="WeiEtAl2014StrategyVerifier-to-WeiEtAl2014StrategyCanditate" style="stroke:#181818;stroke-width:1.0;stroke-dasharray:7.0,7.0;"/><polygon fill="#181818" points="1378.75,223.3259,1382.75,214.3259,1378.75,218.3259,1374.75,214.3259,1378.75,223.3259" style="stroke:#181818;stroke-width:1.0;"/><text fill="#000000" font-family="sans-serif" font-size="13" lengthAdjust="spacing" textLength="41" x="1336.75" y="180.1028">create</text></g><!--link WeiEtAl2014StrategyVerifier to WeiEtAl2014Verifier--><g id="link_WeiEtAl2014StrategyVerifier_WeiEtAl2014Verifier"><path codeLine="45" d="M1126.22,139.5659 C1109.1,139.5659 1097,139.5659 1097,139.5659 C1097,139.5659 1097,239.5659 1097,239.5659 C1097,239.5659 1102.25,239.5659 1085.31,239.5659 " fill="none" id="WeiEtAl2014StrategyVerifier-to-WeiEtAl2014Verifier" style="stroke:#181818;stroke-width:1.0;"/><polygon fill="none" points="1067.31,239.5659,1085.31,245.5659,1085.31,233.5659,1067.31,239.5659" style="stroke:#181818;stroke-width:1.0;"/></g><!--link WeiEtAl2014Verifier to AstHandler--><g id="link_WeiEtAl2014Verifier_AstHandler"><path codeLine="46" d="M900.81,239.5659 C873.03,239.5659 849,239.5659 849,239.5659 C849,239.5659 849,360.5659 849,360.5659 C849,360.5659 766.71,360.5659 706.87,360.5659 " fill="none" id="WeiEtAl2014Verifier-to-AstHandler" style="stroke:#181818;stroke-width:1.0;stroke-dasharray:7.0,7.0;"/><polygon fill="#181818" points="700.87,360.5659,709.87,364.5659,705.87,360.5659,709.87,356.5659,700.87,360.5659" style="stroke:#181818;stroke-width:1.0;"/><text fill="#000000" font-family="sans-serif" font-size="13" lengthAdjust="spacing" textLength="41" x="807" y="344.2928">create</text></g><!--link WeiEtAl2014Verifier to AstHandler--><g id="link_WeiEtAl2014Verifier_AstHandler"><path codeLine="47" d="M888.68,255.5659 C865,255.5659 857.5,255.5659 857.5,255.5659 C857.5,255.5659 857.5,370.5659 857.5,370.5659 C857.5,370.5659 769.3,370.5659 706.94,370.5659 " fill="none" id="WeiEtAl2014Verifier-AstHandler" style="stroke:#181818;stroke-width:1.0;"/><polygon fill="#181818" points="900.68,255.5659,894.68,251.5659,888.68,255.5659,894.68,259.5659,900.68,255.5659" style="stroke:#181818;stroke-width:1.0;"/><polygon fill="#181818" points="700.94,370.5659,709.94,374.5659,705.94,370.5659,709.94,366.5659,700.94,370.5659" style="stroke:#181818;stroke-width:1.0;"/><text fill="#000000" font-family="sans-serif" font-size="13" lengthAdjust="spacing" textLength="8" x="884.9031" y="252.6833">1</text><text fill="#000000" font-family="sans-serif" font-size="13" lengthAdjust="spacing" textLength="70" x="708.5833" y="385.2224">astHandler</text><text fill="#000000" font-family="sans-serif" font-size="13" lengthAdjust="spacing" textLength="8" x="739.5833" y="400.3552">1</text></g><!--link WeiEtAl2014Verifier to RefactoringCandidatesVerifier--><g id="link_WeiEtAl2014Verifier_RefactoringCandidatesVerifier"><path codeLine="48" d="M984,271.8059 C984,289.5859 984,295.6459 984,313.4059 " fill="none" id="WeiEtAl2014Verifier-to-RefactoringCandidatesVerifier" style="stroke:#181818;stroke-width:1.0;stroke-dasharray:7.0,7.0;"/><polygon fill="none" points="984,331.4059,990,313.4059,978,313.4059,984,331.4059" style="stroke:#181818;stroke-width:1.0;"/></g><!--SRC=[jPPBJiCm48RtESKex90gKTGL2oGUZLY0X4221GzfIAR5QcfNzbI2Ct44TfmCD-d3IPoajC6xnh-_6S_y7fNL35Z1cs9MKqY4ffY5ae6P23b3ZLE8KpGcKf8lLAequDmAaKNiI0oJ9iMVCshMPQWhmeJqESQJiLPpcUJoWy5Wu2XJ8Md10wNvNGL1TXB2CyDNA9EKT0XeOFCp4DBcCCAOu98ulyCDsQC974HHj3n_BQm8qmTCvpJyO8qnA_Ve7OsoJqAEBonN9CXa7aYBaI2TWxpYuGV5zhgv19R17aaC-ImzFkeFt1oSpraCjZ7AQ4TJG5SHKPR2PubK9rl1QWMhkrO5zxPQJEFMI2jTVQYLeZxMUYTODYdlvAtrfbf4jxqri5YzfmJDEoKllLDmp02UTGBXprUioOR- -GvRm64_XCFUqon58HVi4DViPsdtcaC5Nfkjj_yLlaT9NBzwrWRy2fKtLifnQvJDiTwb- -Je1QzVScVWijix1pifruFTWct0IuFPRlacbRzRbN5I8dc7LnEf4AyJRth0UxwehRCk5c2xKhgUQ_EdMzBM0fJ0tXuLDDKKgpDzrsvxta5tJV70kx5IAxXvrkuA_fEDF8EWTMWupMhFiGZUnKQUxMxwum5tvwhch8jJi_fdy1S0]--></g></svg>