<svg xmlns="http://www.w3.org/2000/svg" xmlns:xlink="http://www.w3.org/1999/xlink" contentStyleType="text/css" height="293px" preserveAspectRatio="none" style="width:1027px;height:293px;background:#FFFFFF;" version="1.1" viewBox="0 0 1027 293" width="1027px" zoomAndPan="magnify"><defs/><g><!--cluster domain--><g id="cluster_domain"><path d="M555.5,6 L613.5,6 A3.75,3.75 0 0 1 616,8.5 L623,28.2969 L1017.5,28.2969 A2.5,2.5 0 0 1 1020,30.7969 L1020,168.5 A2.5,2.5 0 0 1 1017.5,171 L555.5,171 A2.5,2.5 0 0 1 553,168.5 L553,8.5 A2.5,2.5 0 0 1 555.5,6 " fill="#FFE4B5" style="stroke:#000000;stroke-width:1.5;"/><line style="stroke:#000000;stroke-width:1.5;" x1="553" x2="623" y1="28.2969" y2="28.2969"/><text fill="#000000" font-family="sans-serif" font-size="14" font-weight="bold" lengthAdjust="spacing" textLength="57" x="557" y="20.9951">domain</text></g><!--cluster methdos--><g id="cluster_methdos"><path d="M265.5,152 L335.5,152 A3.75,3.75 0 0 1 338,154.5 L345,174.2969 L456.5,174.2969 A2.5,2.5 0 0 1 459,176.7969 L459,240.5 A2.5,2.5 0 0 1 456.5,243 L265.5,243 A2.5,2.5 0 0 1 263,240.5 L263,154.5 A2.5,2.5 0 0 1 265.5,152 " fill="#FFE4B5" style="stroke:#000000;stroke-width:1.5;"/><line style="stroke:#000000;stroke-width:1.5;" x1="263" x2="345" y1="174.2969" y2="174.2969"/><text fill="#000000" font-family="sans-serif" font-size="14" font-weight="bold" lengthAdjust="spacing" textLength="69" x="267" y="166.9951">methdos</text></g><!--cluster repositories--><g id="cluster_repositories"><path d="M562,195 L659,195 A3.75,3.75 0 0 1 661.5,197.5 L668.5,217.2969 L687,217.2969 A2.5,2.5 0 0 1 689.5,219.7969 L689.5,283.5 A2.5,2.5 0 0 1 687,286 L562,286 A2.5,2.5 0 0 1 559.5,283.5 L559.5,197.5 A2.5,2.5 0 0 1 562,195 " fill="#FFE4B5" style="stroke:#000000;stroke-width:1.5;"/><line style="stroke:#000000;stroke-width:1.5;" x1="559.5" x2="668.5" y1="217.2969" y2="217.2969"/><text fill="#000000" font-family="sans-serif" font-size="14" font-weight="bold" lengthAdjust="spacing" textLength="96" x="563.5" y="209.9951">repositories</text></g><!--cluster ws--><g id="cluster_ws"><path d="M8.5,152 L32.5,152 A3.75,3.75 0 0 1 35,154.5 L42,174.2969 L166.5,174.2969 A2.5,2.5 0 0 1 169,176.7969 L169,240.5 A2.5,2.5 0 0 1 166.5,243 L8.5,243 A2.5,2.5 0 0 1 6,240.5 L6,154.5 A2.5,2.5 0 0 1 8.5,152 " fill="#FFE4B5" style="stroke:#000000;stroke-width:1.5;"/><line style="stroke:#000000;stroke-width:1.5;" x1="6" x2="42" y1="174.2969" y2="174.2969"/><text fill="#000000" font-family="sans-serif" font-size="14" font-weight="bold" lengthAdjust="spacing" textLength="23" x="10" y="166.9951">ws</text></g><!--entity datastore--><g id="elem_datastore"><path d="M846.5,230.35 L935.5,230.35 A3.75,3.75 0 0 1 938,232.85 L945,252.6469 L959.5,252.6469 A2.5,2.5 0 0 1 962,255.1469 L962,267.1469 A2.5,2.5 0 0 1 959.5,269.6469 L846.5,269.6469 A2.5,2.5 0 0 1 844,267.1469 L844,232.85 A2.5,2.5 0 0 1 846.5,230.35 " fill="#FFE4B5" style="stroke:#181818;stroke-width:0.5;"/><line style="stroke:#181818;stroke-width:0.5;" x1="844" x2="945" y1="252.6469" y2="252.6469"/><text fill="#000000" font-family="sans-serif" font-size="14" font-weight="bold" lengthAdjust="spacing" textLength="76" x="854" y="246.3451">datastore</text></g><!--entity dataExtractions.utils--><g id="elem_dataExtractions.utils"><path d="M804.5,100.35 L977.5,100.35 A3.75,3.75 0 0 1 980,102.85 L987,122.6469 L1001.5,122.6469 A2.5,2.5 0 0 1 1004,125.1469 L1004,137.1469 A2.5,2.5 0 0 1 1001.5,139.6469 L804.5,139.6469 A2.5,2.5 0 0 1 802,137.1469 L802,102.85 A2.5,2.5 0 0 1 804.5,100.35 " fill="#FFE4B5" style="stroke:#181818;stroke-width:0.5;"/><line style="stroke:#181818;stroke-width:0.5;" x1="802" x2="987" y1="122.6469" y2="122.6469"/><text fill="#000000" font-family="sans-serif" font-size="14" font-weight="bold" lengthAdjust="spacing" textLength="160" x="812" y="116.3451">dataExtractions.utils</text></g><!--entity identity--><g id="elem_identity"><path d="M576.5,41.35 L648.5,41.35 A3.75,3.75 0 0 1 651,43.85 L658,63.6469 L672.5,63.6469 A2.5,2.5 0 0 1 675,66.1469 L675,78.1469 A2.5,2.5 0 0 1 672.5,80.6469 L576.5,80.6469 A2.5,2.5 0 0 1 574,78.1469 L574,43.85 A2.5,2.5 0 0 1 576.5,41.35 " fill="#FFE4B5" style="stroke:#181818;stroke-width:0.5;"/><line style="stroke:#181818;stroke-width:0.5;" x1="574" x2="658" y1="63.6469" y2="63.6469"/><text fill="#000000" font-family="sans-serif" font-size="14" font-weight="bold" lengthAdjust="spacing" textLength="59" x="584" y="57.3451">identity</text></g><!--entity methods--><g id="elem_methods"><path d="M571.5,115.35 L653.5,115.35 A3.75,3.75 0 0 1 656,117.85 L663,137.6469 L677.5,137.6469 A2.5,2.5 0 0 1 680,140.1469 L680,152.1469 A2.5,2.5 0 0 1 677.5,154.6469 L571.5,154.6469 A2.5,2.5 0 0 1 569,152.1469 L569,117.85 A2.5,2.5 0 0 1 571.5,115.35 " fill="#FFE4B5" style="stroke:#181818;stroke-width:0.5;"/><line style="stroke:#181818;stroke-width:0.5;" x1="569" x2="663" y1="137.6469" y2="137.6469"/><text fill="#000000" font-family="sans-serif" font-size="14" font-weight="bold" lengthAdjust="spacing" textLength="69" x="579" y="131.3451">methods</text></g><!--entity managers.pulse--><g id="elem_managers.pulse"><path d="M279.5,41.35 L418.5,41.35 A3.75,3.75 0 0 1 421,43.85 L428,63.6469 L442.5,63.6469 A2.5,2.5 0 0 1 445,66.1469 L445,78.1469 A2.5,2.5 0 0 1 442.5,80.6469 L279.5,80.6469 A2.5,2.5 0 0 1 277,78.1469 L277,43.85 A2.5,2.5 0 0 1 279.5,41.35 " fill="#FFE4B5" style="stroke:#181818;stroke-width:0.5;"/><line style="stroke:#181818;stroke-width:0.5;" x1="277" x2="428" y1="63.6469" y2="63.6469"/><text fill="#000000" font-family="sans-serif" font-size="14" font-weight="bold" lengthAdjust="spacing" textLength="126" x="287" y="57.3451">managers.pulse</text></g><!--entity dataExtractions--><g id="elem_dataExtractions"><path d="M281.5,187.35 L416.5,187.35 A3.75,3.75 0 0 1 419,189.85 L426,209.6469 L440.5,209.6469 A2.5,2.5 0 0 1 443,212.1469 L443,224.1469 A2.5,2.5 0 0 1 440.5,226.6469 L281.5,226.6469 A2.5,2.5 0 0 1 279,224.1469 L279,189.85 A2.5,2.5 0 0 1 281.5,187.35 " fill="#FFE4B5" style="stroke:#181818;stroke-width:0.5;"/><line style="stroke:#181818;stroke-width:0.5;" x1="279" x2="426" y1="209.6469" y2="209.6469"/><text fill="#000000" font-family="sans-serif" font-size="14" font-weight="bold" lengthAdjust="spacing" textLength="122" x="289" y="203.3451">dataExtractions</text></g><!--entity project--><g id="elem_project"><path d="M578,230.35 L647,230.35 A3.75,3.75 0 0 1 649.5,232.85 L656.5,252.6469 L671,252.6469 A2.5,2.5 0 0 1 673.5,255.1469 L673.5,267.1469 A2.5,2.5 0 0 1 671,269.6469 L578,269.6469 A2.5,2.5 0 0 1 575.5,267.1469 L575.5,232.85 A2.5,2.5 0 0 1 578,230.35 " fill="#FFE4B5" style="stroke:#181818;stroke-width:0.5;"/><line style="stroke:#181818;stroke-width:0.5;" x1="575.5" x2="656.5" y1="252.6469" y2="252.6469"/><text fill="#000000" font-family="sans-serif" font-size="14" font-weight="bold" lengthAdjust="spacing" textLength="56" x="585.5" y="246.3451">project</text></g><!--entity boundaries--><g id="elem_boundaries"><path d="M24.5,187.35 L126.5,187.35 A3.75,3.75 0 0 1 129,189.85 L136,209.6469 L150.5,209.6469 A2.5,2.5 0 0 1 153,212.1469 L153,224.1469 A2.5,2.5 0 0 1 150.5,226.6469 L24.5,226.6469 A2.5,2.5 0 0 1 22,224.1469 L22,189.85 A2.5,2.5 0 0 1 24.5,187.35 " fill="#FFE4B5" style="stroke:#181818;stroke-width:0.5;"/><line style="stroke:#181818;stroke-width:0.5;" x1="22" x2="136" y1="209.6469" y2="209.6469"/><text fill="#000000" font-family="sans-serif" font-size="14" font-weight="bold" lengthAdjust="spacing" textLength="89" x="32" y="203.3451">boundaries</text></g><!--link project to datastore--><g id="link_project_datastore"><path d="M673.98,250 C721.37,250 787.56,250 837.98,250 " fill="none" id="project-to-datastore" style="stroke:#181818;stroke-width:1.0;stroke-dasharray:7.0,7.0;"/><polygon fill="#181818" points="843.98,250,834.98,246,838.98,250,834.98,254,843.98,250" style="stroke:#181818;stroke-width:1.0;"/><text fill="#000000" font-family="sans-serif" font-size="13" lengthAdjust="spacing" textLength="58" x="712" y="246.0669">«import»</text></g><!--link dataExtractions to project--><g id="link_dataExtractions_project"><path d="M443.31,220.37 C486.49,227.47 532.1796,234.9861 569.0796,241.0561 " fill="none" id="dataExtractions-to-project" style="stroke:#181818;stroke-width:1.0;stroke-dasharray:7.0,7.0;"/><polygon fill="#181818" points="575,242.03,566.7686,236.6222,570.0663,241.2184,565.4701,244.5161,575,242.03" style="stroke:#181818;stroke-width:1.0;"/><text fill="#000000" font-family="sans-serif" font-size="13" lengthAdjust="spacing" textLength="60" x="476" y="222.0669">«access»</text></g><!--link managers.pulse to identity--><g id="link_managers.pulse_identity"><path d="M445.46,61 C487.61,61 531.34,61 567.51,61 " fill="none" id="managers.pulse-to-identity" style="stroke:#181818;stroke-width:1.0;stroke-dasharray:7.0,7.0;"/><polygon fill="#181818" points="573.51,61,564.51,57,568.51,61,564.51,65,573.51,61" style="stroke:#181818;stroke-width:1.0;"/><text fill="#000000" font-family="sans-serif" font-size="13" lengthAdjust="spacing" textLength="58" x="477" y="57.0669">«import»</text></g><!--link methods to dataExtractions.utils--><g id="link_methods_dataExtractions.utils"><path d="M680.46,132.02 C715.03,130.14 754.6788,127.9954 795.5588,125.7754 " fill="none" id="methods-to-dataExtractions.utils" style="stroke:#181818;stroke-width:1.0;stroke-dasharray:7.0,7.0;"/><polygon fill="#181818" points="801.55,125.45,792.3463,121.9439,796.5574,125.7211,792.7801,129.9321,801.55,125.45" style="stroke:#181818;stroke-width:1.0;"/><text fill="#000000" font-family="sans-serif" font-size="13" lengthAdjust="spacing" textLength="60" x="711" y="124.0669">«access»</text></g><!--link dataExtractions to methods--><g id="link_dataExtractions_methods"><path d="M434.84,186.94 C477.31,175.25 524.2053,162.343 563.0953,151.633 " fill="none" id="dataExtractions-to-methods" style="stroke:#181818;stroke-width:1.0;stroke-dasharray:7.0,7.0;"/><polygon fill="#181818" points="568.88,150.04,559.141,148.5731,564.0595,151.3675,561.2651,156.286,568.88,150.04" style="stroke:#181818;stroke-width:1.0;"/><text fill="#000000" font-family="sans-serif" font-size="13" lengthAdjust="spacing" textLength="60" x="476" y="157.0669">«access»</text></g><!--link boundaries to dataExtractions--><g id="link_boundaries_dataExtractions"><path d="M153.19,207 C190.75,207 232.42,207 272.53,207 " fill="none" id="boundaries-to-dataExtractions" style="stroke:#181818;stroke-width:1.0;stroke-dasharray:7.0,7.0;"/><polygon fill="#181818" points="278.53,207,269.53,203,273.53,207,269.53,211,278.53,207" style="stroke:#181818;stroke-width:1.0;"/><text fill="#000000" font-family="sans-serif" font-size="13" lengthAdjust="spacing" textLength="60" x="186" y="203.0669">«access»</text></g><!--SRC=[XP1BRiCm34JtEWNX0_W0HU1DqMKFmKYgmyOM1P96KmIzUnNL-IW9K6q4YM-6v4pnmy0OXCQTGI29teYJSxgdb55mXen-ZsE4euDojkKr2YyflFB40k_iFIebz-FScUm26ggnnAwesWhFIAbRpHh1sy44QtVj5wD9kvQX49EHVTzzpz5s70fyssR6L6xHFY-JnkxO5eiYiFutHEieCRDIsOcY5h-hAWj_bj1Q-klHVNlA3AiSAlkdWxuVu9BN2smsD6SM6mPtDqybLzM9G- -ZQk7QPIjspghnMvEwT7m8l75zrdrrQBZhNi-CRz5V]--></g></svg>