<svg xmlns="http://www.w3.org/2000/svg" xmlns:xlink="http://www.w3.org/1999/xlink" contentStyleType="text/css" height="296px" preserveAspectRatio="none" style="width:929px;height:296px;background:#FFFFFF;" version="1.1" viewBox="0 0 929 296" width="929px" zoomAndPan="magnify"><defs/><g><!--class AbstractSyntaxTree--><g id="elem_AbstractSyntaxTree"><rect codeLine="6" fill="#F1F1F1" height="48" id="AbstractSyntaxTree" rx="2.5" ry="2.5" style="stroke:#181818;stroke-width:0.5;" width="166" x="23" y="132"/><rect fill="#444444" height="32" rx="2.5" ry="2.5" style="stroke:#444444;stroke-width:0.5;" width="166" x="23" y="132"/><rect fill="#444444" height="2.5" style="stroke:#444444;stroke-width:0.5;" width="166" x="23" y="161.5"/><rect codeLine="6" fill="none" height="48" id="AbstractSyntaxTree" rx="2.5" ry="2.5" style="stroke:#181818;stroke-width:0.5;" width="166" x="23" y="132"/><ellipse cx="38" cy="148" fill="#ADD1B2" rx="11" ry="11" style="stroke:#181818;stroke-width:1.0;"/><path d="M40.9688,153.6406 Q40.3906,153.9375 39.75,154.0781 Q39.1094,154.2344 38.4063,154.2344 Q35.9063,154.2344 34.5781,152.5938 Q33.2656,150.9375 33.2656,147.8125 Q33.2656,144.6875 34.5781,143.0313 Q35.9063,141.375 38.4063,141.375 Q39.1094,141.375 39.75,141.5313 Q40.4063,141.6875 40.9688,141.9844 L40.9688,144.7031 Q40.3438,144.125 39.75,143.8594 Q39.1563,143.5781 38.5313,143.5781 Q37.1875,143.5781 36.5,144.6563 Q35.8125,145.7188 35.8125,147.8125 Q35.8125,149.9063 36.5,150.9844 Q37.1875,152.0469 38.5313,152.0469 Q39.1563,152.0469 39.75,151.7813 Q40.3438,151.5 40.9688,150.9219 L40.9688,153.6406 Z " fill="#000000"/><text fill="#FFFFFF" font-family="sans-serif" font-size="14" lengthAdjust="spacing" textLength="134" x="52" y="152.8467">AbstractSyntaxTree</text><line style="stroke:#181818;stroke-width:0.5;" x1="24" x2="188" y1="164" y2="164"/><line style="stroke:#181818;stroke-width:0.5;" x1="24" x2="188" y1="172" y2="172"/></g><!--class AbstractSyntaxTreeDependent--><g id="elem_AbstractSyntaxTreeDependent"><rect codeLine="7" fill="#FFFFFF" height="48" id="AbstractSyntaxTreeDependent" rx="2.5" ry="2.5" style="stroke:#181818;stroke-width:0.5;" width="245" x="224.5" y="132"/><ellipse cx="239.5" cy="148" fill="#B4A7E5" rx="11" ry="11" style="stroke:#181818;stroke-width:1.0;"/><path d="M235.4219,143.7656 L235.4219,141.6094 L242.8125,141.6094 L242.8125,143.7656 L240.3438,143.7656 L240.3438,151.8438 L242.8125,151.8438 L242.8125,154 L235.4219,154 L235.4219,151.8438 L237.8906,151.8438 L237.8906,143.7656 L235.4219,143.7656 Z " fill="#000000"/><text fill="#000000" font-family="sans-serif" font-size="14" font-style="italic" lengthAdjust="spacing" textLength="213" x="253.5" y="152.8467">AbstractSyntaxTreeDependent</text><line style="stroke:#181818;stroke-width:0.5;" x1="225.5" x2="468.5" y1="164" y2="164"/><line style="stroke:#181818;stroke-width:0.5;" x1="225.5" x2="468.5" y1="172" y2="172"/></g><!--class AbstractSyntaxTreeFork--><g id="elem_AbstractSyntaxTreeFork"><rect codeLine="8" fill="#F1F1F1" height="48" id="AbstractSyntaxTreeFork" rx="2.5" ry="2.5" style="stroke:#181818;stroke-width:0.5;" width="196" x="162" y="7"/><rect fill="#444444" height="32" rx="2.5" ry="2.5" style="stroke:#444444;stroke-width:0.5;" width="196" x="162" y="7"/><rect fill="#444444" height="2.5" style="stroke:#444444;stroke-width:0.5;" width="196" x="162" y="36.5"/><rect codeLine="8" fill="none" height="48" id="AbstractSyntaxTreeFork" rx="2.5" ry="2.5" style="stroke:#181818;stroke-width:0.5;" width="196" x="162" y="7"/><ellipse cx="177" cy="23" fill="#ADD1B2" rx="11" ry="11" style="stroke:#181818;stroke-width:1.0;"/><path d="M179.9688,28.6406 Q179.3906,28.9375 178.75,29.0781 Q178.1094,29.2344 177.4063,29.2344 Q174.9063,29.2344 173.5781,27.5938 Q172.2656,25.9375 172.2656,22.8125 Q172.2656,19.6875 173.5781,18.0313 Q174.9063,16.375 177.4063,16.375 Q178.1094,16.375 178.75,16.5313 Q179.4063,16.6875 179.9688,16.9844 L179.9688,19.7031 Q179.3438,19.125 178.75,18.8594 Q178.1563,18.5781 177.5313,18.5781 Q176.1875,18.5781 175.5,19.6563 Q174.8125,20.7188 174.8125,22.8125 Q174.8125,24.9063 175.5,25.9844 Q176.1875,27.0469 177.5313,27.0469 Q178.1563,27.0469 178.75,26.7813 Q179.3438,26.5 179.9688,25.9219 L179.9688,28.6406 Z " fill="#000000"/><text fill="#FFFFFF" font-family="sans-serif" font-size="14" lengthAdjust="spacing" textLength="164" x="191" y="27.8467">AbstractSyntaxTreeFork</text><line style="stroke:#181818;stroke-width:0.5;" x1="163" x2="357" y1="39" y2="39"/><line style="stroke:#181818;stroke-width:0.5;" x1="163" x2="357" y1="47" y2="47"/></g><!--class DataExtractionApproach--><g id="elem_DataExtractionApproach"><rect codeLine="9" fill="#FFFFFF" height="48" id="DataExtractionApproach" rx="2.5" ry="2.5" style="stroke:#181818;stroke-width:0.5;" width="198" x="7" y="241"/><ellipse cx="22" cy="257" fill="#B4A7E5" rx="11" ry="11" style="stroke:#181818;stroke-width:1.0;"/><path d="M17.9219,252.7656 L17.9219,250.6094 L25.3125,250.6094 L25.3125,252.7656 L22.8438,252.7656 L22.8438,260.8438 L25.3125,260.8438 L25.3125,263 L17.9219,263 L17.9219,260.8438 L20.3906,260.8438 L20.3906,252.7656 L17.9219,252.7656 Z " fill="#000000"/><text fill="#000000" font-family="sans-serif" font-size="14" font-style="italic" lengthAdjust="spacing" textLength="166" x="36" y="261.8467">DataExtractionApproach</text><line style="stroke:#181818;stroke-width:0.5;" x1="8" x2="204" y1="273" y2="273"/><line style="stroke:#181818;stroke-width:0.5;" x1="8" x2="204" y1="281" y2="281"/></g><!--class DataExtractionDependent--><g id="elem_DataExtractionDependent"><rect codeLine="10" fill="#FFFFFF" height="48" id="DataExtractionDependent" rx="2.5" ry="2.5" style="stroke:#181818;stroke-width:0.5;" width="211" x="241.5" y="241"/><ellipse cx="256.5" cy="257" fill="#B4A7E5" rx="11" ry="11" style="stroke:#181818;stroke-width:1.0;"/><path d="M252.4219,252.7656 L252.4219,250.6094 L259.8125,250.6094 L259.8125,252.7656 L257.3438,252.7656 L257.3438,260.8438 L259.8125,260.8438 L259.8125,263 L252.4219,263 L252.4219,260.8438 L254.8906,260.8438 L254.8906,252.7656 L252.4219,252.7656 Z " fill="#000000"/><text fill="#000000" font-family="sans-serif" font-size="14" font-style="italic" lengthAdjust="spacing" textLength="179" x="270.5" y="261.8467">DataExtractionDependent</text><line style="stroke:#181818;stroke-width:0.5;" x1="242.5" x2="451.5" y1="273" y2="273"/><line style="stroke:#181818;stroke-width:0.5;" x1="242.5" x2="451.5" y1="281" y2="281"/></g><!--class DataExtractionFork--><g id="elem_DataExtractionFork"><rect codeLine="11" fill="#FFFFFF" height="48" id="DataExtractionFork" rx="2.5" ry="2.5" style="stroke:#181818;stroke-width:0.5;" width="162" x="505" y="132"/><ellipse cx="520" cy="148" fill="#B4A7E5" rx="11" ry="11" style="stroke:#181818;stroke-width:1.0;"/><path d="M515.9219,143.7656 L515.9219,141.6094 L523.3125,141.6094 L523.3125,143.7656 L520.8438,143.7656 L520.8438,151.8438 L523.3125,151.8438 L523.3125,154 L515.9219,154 L515.9219,151.8438 L518.3906,151.8438 L518.3906,143.7656 L515.9219,143.7656 Z " fill="#000000"/><text fill="#000000" font-family="sans-serif" font-size="14" font-style="italic" lengthAdjust="spacing" textLength="130" x="534" y="152.8467">DataExtractionFork</text><line style="stroke:#181818;stroke-width:0.5;" x1="506" x2="666" y1="164" y2="164"/><line style="stroke:#181818;stroke-width:0.5;" x1="506" x2="666" y1="172" y2="172"/></g><!--class DataHandler--><g id="elem_DataHandler"><rect codeLine="12" fill="#FFFFFF" height="48" id="DataHandler" rx="2.5" ry="2.5" style="stroke:#181818;stroke-width:0.5;" width="117" x="527.5" y="241"/><ellipse cx="542.5" cy="257" fill="#B4A7E5" rx="11" ry="11" style="stroke:#181818;stroke-width:1.0;"/><path d="M538.4219,252.7656 L538.4219,250.6094 L545.8125,250.6094 L545.8125,252.7656 L543.3438,252.7656 L543.3438,260.8438 L545.8125,260.8438 L545.8125,263 L538.4219,263 L538.4219,260.8438 L540.8906,260.8438 L540.8906,252.7656 L538.4219,252.7656 Z " fill="#000000"/><text fill="#000000" font-family="sans-serif" font-size="14" font-style="italic" lengthAdjust="spacing" textLength="85" x="556.5" y="261.8467">DataHandler</text><line style="stroke:#181818;stroke-width:0.5;" x1="528.5" x2="643.5" y1="273" y2="273"/><line style="stroke:#181818;stroke-width:0.5;" x1="528.5" x2="643.5" y1="281" y2="281"/></g><!--class DetectionMethodsManager--><g id="elem_DetectionMethodsManager"><rect codeLine="13" fill="#FFFFFF" height="48" id="DetectionMethodsManager" rx="2.5" ry="2.5" style="stroke:#181818;stroke-width:0.5;" width="221" x="701.5" y="132"/><ellipse cx="716.5" cy="148" fill="#B4A7E5" rx="11" ry="11" style="stroke:#181818;stroke-width:1.0;"/><path d="M712.4219,143.7656 L712.4219,141.6094 L719.8125,141.6094 L719.8125,143.7656 L717.3438,143.7656 L717.3438,151.8438 L719.8125,151.8438 L719.8125,154 L712.4219,154 L712.4219,151.8438 L714.8906,151.8438 L714.8906,143.7656 L712.4219,143.7656 Z " fill="#000000"/><text fill="#000000" font-family="sans-serif" font-size="14" font-style="italic" lengthAdjust="spacing" textLength="189" x="730.5" y="152.8467">DetectionMethodsManager</text><line style="stroke:#181818;stroke-width:0.5;" x1="702.5" x2="921.5" y1="164" y2="164"/><line style="stroke:#181818;stroke-width:0.5;" x1="702.5" x2="921.5" y1="172" y2="172"/></g><!--class DetectionMethodsManagerImpl--><g id="elem_DetectionMethodsManagerImpl"><rect codeLine="14" fill="#FFFFFF" height="48" id="DetectionMethodsManagerImpl" rx="2.5" ry="2.5" style="stroke:#181818;stroke-width:0.5;" width="249" x="612.5" y="7"/><ellipse cx="627.5" cy="23" fill="#ADD1B2" rx="11" ry="11" style="stroke:#181818;stroke-width:1.0;"/><path d="M630.4688,28.6406 Q629.8906,28.9375 629.25,29.0781 Q628.6094,29.2344 627.9063,29.2344 Q625.4063,29.2344 624.0781,27.5938 Q622.7656,25.9375 622.7656,22.8125 Q622.7656,19.6875 624.0781,18.0313 Q625.4063,16.375 627.9063,16.375 Q628.6094,16.375 629.25,16.5313 Q629.9063,16.6875 630.4688,16.9844 L630.4688,19.7031 Q629.8438,19.125 629.25,18.8594 Q628.6563,18.5781 628.0313,18.5781 Q626.6875,18.5781 626,19.6563 Q625.3125,20.7188 625.3125,22.8125 Q625.3125,24.9063 626,25.9844 Q626.6875,27.0469 628.0313,27.0469 Q628.6563,27.0469 629.25,26.7813 Q629.8438,26.5 630.4688,25.9219 L630.4688,28.6406 Z " fill="#000000"/><text fill="#000000" font-family="sans-serif" font-size="14" lengthAdjust="spacing" textLength="217" x="641.5" y="27.8467">DetectionMethodsManagerImpl</text><line style="stroke:#181818;stroke-width:0.5;" x1="613.5" x2="860.5" y1="39" y2="39"/><line style="stroke:#181818;stroke-width:0.5;" x1="613.5" x2="860.5" y1="47" y2="47"/></g><!--link AbstractSyntaxTree to DataExtractionApproach--><g id="link_AbstractSyntaxTree_DataExtractionApproach"><path codeLine="16" d="M106,180.48 C106,198.32 106,204.75 106,222.57 " fill="none" id="AbstractSyntaxTree-to-DataExtractionApproach" style="stroke:#181818;stroke-width:1.0;stroke-dasharray:7.0,7.0;"/><polygon fill="none" points="106,240.57,112,222.57,100,222.57,106,240.57" style="stroke:#181818;stroke-width:1.0;"/></g><!--link AbstractSyntaxTreeDependent to DataExtractionDependent--><g id="link_AbstractSyntaxTreeDependent_DataExtractionDependent"><path codeLine="17" d="M347,180.48 C347,198.32 347,204.75 347,222.57 " fill="none" id="AbstractSyntaxTreeDependent-to-DataExtractionDependent" style="stroke:#181818;stroke-width:1.0;"/><polygon fill="none" points="347,240.57,353,222.57,341,222.57,347,240.57" style="stroke:#181818;stroke-width:1.0;"/></g><!--link AbstractSyntaxTreeFork to AbstractSyntaxTree--><g id="link_AbstractSyntaxTreeFork_AbstractSyntaxTree"><path codeLine="18" d="M199.13,55.39 C183.07,63.3 166.48,73.18 153,85 C138.14,98.03 128.8038,111.5406 120.5338,126.3606 " fill="none" id="AbstractSyntaxTreeFork-to-AbstractSyntaxTree" style="stroke:#181818;stroke-width:1.0;stroke-dasharray:7.0,7.0;"/><polygon fill="#181818" points="117.61,131.6,125.4886,125.69,120.0465,127.2338,118.5027,121.7917,117.61,131.6" style="stroke:#181818;stroke-width:1.0;"/><text fill="#000000" font-family="sans-serif" font-size="13" lengthAdjust="spacing" textLength="41" x="154" y="98.0669">create</text></g><!--link AbstractSyntaxTreeFork to AbstractSyntaxTree--><g id="link_AbstractSyntaxTreeFork_AbstractSyntaxTree"><path codeLine="19" d="M236.1021,64.7858 C224.9321,79.3658 216.57,88.38 200,102 C186.39,113.18 175.3707,120.4147 160.2007,128.7347 " fill="none" id="AbstractSyntaxTreeFork-AbstractSyntaxTree" style="stroke:#181818;stroke-width:1.0;"/><polygon fill="#181818" points="243.4,55.26,236.5758,57.5903,236.1021,64.7858,242.9263,62.4555,243.4,55.26" style="stroke:#181818;stroke-width:1.0;"/><polygon fill="#181818" points="154.94,131.62,164.7546,130.7993,159.3239,129.2156,160.9076,123.785,154.94,131.62" style="stroke:#181818;stroke-width:1.0;"/><text fill="#000000" font-family="sans-serif" font-size="13" lengthAdjust="spacing" textLength="8" x="230.3788" y="75.0846">1</text><text fill="#000000" font-family="sans-serif" font-size="13" lengthAdjust="spacing" textLength="20" x="142.9714" y="105.5922">ast</text><text fill="#000000" font-family="sans-serif" font-size="13" lengthAdjust="spacing" textLength="8" x="148.9714" y="120.725">1</text></g><!--link AbstractSyntaxTreeFork to AbstractSyntaxTreeDependent--><g id="link_AbstractSyntaxTreeFork_AbstractSyntaxTreeDependent"><path codeLine="20" d="M283.4986,65.2177 C298.9786,87.1077 311.5655,104.9013 327.0255,126.7613 " fill="none" id="AbstractSyntaxTreeFork-AbstractSyntaxTreeDependent" style="stroke:#181818;stroke-width:1.0;"/><polygon fill="#181818" points="276.57,55.42,276.7684,62.6284,283.4986,65.2177,283.3002,58.0093,276.57,55.42" style="stroke:#181818;stroke-width:1.0;"/><polygon fill="#181818" points="330.49,131.66,328.5591,122.0023,327.6029,127.5778,322.0275,126.6216,330.49,131.66" style="stroke:#181818;stroke-width:1.0;"/><text fill="#000000" font-family="sans-serif" font-size="13" lengthAdjust="spacing" textLength="8" x="271.4768" y="74.8838">1</text><text fill="#000000" font-family="sans-serif" font-size="13" lengthAdjust="spacing" textLength="124" x="190.2973" y="105.6404">dependentMethods</text><text fill="#000000" font-family="sans-serif" font-size="13" lengthAdjust="spacing" textLength="7" x="248.7973" y="120.7732">*</text></g><!--link AbstractSyntaxTreeFork to DataExtractionFork--><g id="link_AbstractSyntaxTreeFork_DataExtractionFork"><path codeLine="21" d="M322.09,55.42 C380,77.28 449.0991,103.3451 507.0291,125.2051 " fill="none" id="AbstractSyntaxTreeFork-to-DataExtractionFork" style="stroke:#181818;stroke-width:1.0;stroke-dasharray:7.0,7.0;"/><polygon fill="none" points="523.87,131.56,509.1474,119.5914,504.9108,130.8187,523.87,131.56" style="stroke:#181818;stroke-width:1.0;"/></g><!--link DataExtractionFork to DataHandler--><g id="link_DataExtractionFork_DataHandler"><path codeLine="22" d="M586,180.48 C586,198.32 586,204.75 586,222.57 " fill="none" id="DataExtractionFork-to-DataHandler" style="stroke:#181818;stroke-width:1.0;"/><polygon fill="none" points="586,240.57,592,222.57,580,222.57,586,240.57" style="stroke:#181818;stroke-width:1.0;"/></g><!--link DetectionMethodsManagerImpl to DataExtractionFork--><g id="link_DetectionMethodsManagerImpl_DataExtractionFork"><path codeLine="23" d="M698.9365,62.9992 C672.0665,84.8892 646.1315,106.0101 619.3015,127.8701 " fill="none" id="DetectionMethodsManagerImpl-DataExtractionFork" style="stroke:#181818;stroke-width:1.0;"/><polygon fill="#181818" points="708.24,55.42,701.0618,56.1084,698.9365,62.9992,706.1147,62.3108,708.24,55.42" style="stroke:#181818;stroke-width:1.0;"/><polygon fill="#181818" points="614.65,131.66,624.1539,129.0762,618.5263,128.5018,619.1007,122.8742,614.65,131.66" style="stroke:#181818;stroke-width:1.0;"/><text fill="#000000" font-family="sans-serif" font-size="13" lengthAdjust="spacing" textLength="8" x="692.6643" y="74.8838">1</text><text fill="#000000" font-family="sans-serif" font-size="13" lengthAdjust="spacing" textLength="127" x="480.4622" y="105.6404">dataExtractionForks</text><text fill="#000000" font-family="sans-serif" font-size="13" lengthAdjust="spacing" textLength="7" x="540.4622" y="120.7732">*</text></g><!--link DetectionMethodsManagerImpl to DetectionMethodsManager--><g id="link_DetectionMethodsManagerImpl_DetectionMethodsManager"><path codeLine="24" d="M751.28,55.42 C764.63,77.31 775.0687,94.4319 788.3987,116.2919 " fill="none" id="DetectionMethodsManagerImpl-to-DetectionMethodsManager" style="stroke:#181818;stroke-width:1.0;stroke-dasharray:7.0,7.0;"/><polygon fill="none" points="797.77,131.66,793.5214,113.1681,783.276,119.4157,797.77,131.66" style="stroke:#181818;stroke-width:1.0;"/></g><!--SRC=[bPA_RW8n3CRtF8LrR4WCbPWw8D5IH0UcTYkjP18Vd3YSA34IF5CVeHjFrkEkjAVx4r6FyK-V_NsnM0TYOMr5x1vCvabBPbc5NSOEFUv1vnZ2tB8ysjnwm4C1ecIwXWGXJrPEZk9SARKWDEGVKEystXxOLFXWF1uhLG8mNGVngENbn8B7Lq-aCYv6fAYfepaZHso81GPfclPgpAtVrNHcAFXqB9d2xzGvRr5lAua-gZ6f3xjCwY8Mo2OdtsgHLA4lIRRMX2KoRgvOvQO7UTwxlC9Kso_yrUZDODYIUHzzG9_nibGitKB6vPXnXqeDwbOf8sakCm68hNqFoVbJUqAXyrSI5Ktk4XZ-hZU118Eik7YCwVzFqLmj_dp1YeT9z1XlJQ4LPeswR1bhjhxaUcBDKh4BQdjjZQpinlUCJ6ZOxIQ_0G00]--></g></svg>