<svg xmlns="http://www.w3.org/2000/svg" xmlns:xlink="http://www.w3.org/1999/xlink" contentStyleType="text/css" height="233px" preserveAspectRatio="none" style="width:642px;height:233px;background:#FFFFFF;" version="1.1" viewBox="0 0 642 233" width="642px" zoomAndPan="magnify"><defs/><g><!--cluster managers--><g id="cluster_managers"><path d="M265.5,61.65 L344.5,61.65 A3.75,3.75 0 0 1 347,64.15 L354,83.9469 L408.5,83.9469 A2.5,2.5 0 0 1 411,86.4469 L411,224.15 A2.5,2.5 0 0 1 408.5,226.65 L265.5,226.65 A2.5,2.5 0 0 1 263,224.15 L263,64.15 A2.5,2.5 0 0 1 265.5,61.65 " fill="#FFE4B5" style="stroke:#000000;stroke-width:1.5;"/><line style="stroke:#000000;stroke-width:1.5;" x1="263" x2="354" y1="83.9469" y2="83.9469"/><text fill="#000000" font-family="sans-serif" font-size="14" font-weight="bold" lengthAdjust="spacing" textLength="78" x="267" y="76.6451">managers</text></g><!--cluster ws--><g id="cluster_ws"><path d="M8.5,61.65 L32.5,61.65 A3.75,3.75 0 0 1 35,64.15 L42,83.9469 L166.5,83.9469 A2.5,2.5 0 0 1 169,86.4469 L169,150.15 A2.5,2.5 0 0 1 166.5,152.65 L8.5,152.65 A2.5,2.5 0 0 1 6,150.15 L6,64.15 A2.5,2.5 0 0 1 8.5,61.65 " fill="#FFE4B5" style="stroke:#000000;stroke-width:1.5;"/><line style="stroke:#000000;stroke-width:1.5;" x1="6" x2="42" y1="83.9469" y2="83.9469"/><text fill="#000000" font-family="sans-serif" font-size="14" font-weight="bold" lengthAdjust="spacing" textLength="23" x="10" y="76.6451">ws</text></g><!--entity members--><g id="elem_members"><path d="M281.5,97 L368.5,97 A3.75,3.75 0 0 1 371,99.5 L378,119.2969 L392.5,119.2969 A2.5,2.5 0 0 1 395,121.7969 L395,133.7969 A2.5,2.5 0 0 1 392.5,136.2969 L281.5,136.2969 A2.5,2.5 0 0 1 279,133.7969 L279,99.5 A2.5,2.5 0 0 1 281.5,97 " fill="#FFE4B5" style="stroke:#181818;stroke-width:0.5;"/><line style="stroke:#181818;stroke-width:0.5;" x1="279" x2="378" y1="119.2969" y2="119.2969"/><text fill="#000000" font-family="sans-serif" font-size="14" font-weight="bold" lengthAdjust="spacing" textLength="74" x="289" y="112.9951">members</text></g><!--entity projects--><g id="elem_projects"><path d="M286,171 L364,171 A3.75,3.75 0 0 1 366.5,173.5 L373.5,193.2969 L388,193.2969 A2.5,2.5 0 0 1 390.5,195.7969 L390.5,207.7969 A2.5,2.5 0 0 1 388,210.2969 L286,210.2969 A2.5,2.5 0 0 1 283.5,207.7969 L283.5,173.5 A2.5,2.5 0 0 1 286,171 " fill="#FFE4B5" style="stroke:#181818;stroke-width:0.5;"/><line style="stroke:#181818;stroke-width:0.5;" x1="283.5" x2="373.5" y1="193.2969" y2="193.2969"/><text fill="#000000" font-family="sans-serif" font-size="14" font-weight="bold" lengthAdjust="spacing" textLength="65" x="293.5" y="186.9951">projects</text></g><!--entity boundaries--><g id="elem_boundaries"><path d="M24.5,97 L126.5,97 A3.75,3.75 0 0 1 129,99.5 L136,119.2969 L150.5,119.2969 A2.5,2.5 0 0 1 153,121.7969 L153,133.7969 A2.5,2.5 0 0 1 150.5,136.2969 L24.5,136.2969 A2.5,2.5 0 0 1 22,133.7969 L22,99.5 A2.5,2.5 0 0 1 24.5,97 " fill="#FFE4B5" style="stroke:#181818;stroke-width:0.5;"/><line style="stroke:#181818;stroke-width:0.5;" x1="22" x2="136" y1="119.2969" y2="119.2969"/><text fill="#000000" font-family="sans-serif" font-size="14" font-weight="bold" lengthAdjust="spacing" textLength="89" x="32" y="112.9951">boundaries</text></g><!--entity datastore--><g id="elem_datastore"><path d="M519.5,6 L608.5,6 A3.75,3.75 0 0 1 611,8.5 L618,28.2969 L632.5,28.2969 A2.5,2.5 0 0 1 635,30.7969 L635,42.7969 A2.5,2.5 0 0 1 632.5,45.2969 L519.5,45.2969 A2.5,2.5 0 0 1 517,42.7969 L517,8.5 A2.5,2.5 0 0 1 519.5,6 " fill="#FFE4B5" style="stroke:#181818;stroke-width:0.5;"/><line style="stroke:#181818;stroke-width:0.5;" x1="517" x2="618" y1="28.2969" y2="28.2969"/><text fill="#000000" font-family="sans-serif" font-size="14" font-weight="bold" lengthAdjust="spacing" textLength="76" x="527" y="21.9951">datastore</text></g><!--entity files--><g id="elem_files"><path d="M302,6 L348,6 A3.75,3.75 0 0 1 350.5,8.5 L357.5,28.2969 L372,28.2969 A2.5,2.5 0 0 1 374.5,30.7969 L374.5,42.7969 A2.5,2.5 0 0 1 372,45.2969 L302,45.2969 A2.5,2.5 0 0 1 299.5,42.7969 L299.5,8.5 A2.5,2.5 0 0 1 302,6 " fill="#FFE4B5" style="stroke:#181818;stroke-width:0.5;"/><line style="stroke:#181818;stroke-width:0.5;" x1="299.5" x2="357.5" y1="28.2969" y2="28.2969"/><text fill="#000000" font-family="sans-serif" font-size="14" font-weight="bold" lengthAdjust="spacing" textLength="33" x="309.5" y="21.9951">files</text></g><!--link files to datastore--><g id="link_files_datastore"><path d="M374.77,25.65 C412.74,25.65 466.52,25.65 510.89,25.65 " fill="none" id="files-to-datastore" style="stroke:#181818;stroke-width:1.0;stroke-dasharray:7.0,7.0;"/><polygon fill="#181818" points="516.89,25.65,507.89,21.65,511.89,25.65,507.89,29.65,516.89,25.65" style="stroke:#181818;stroke-width:1.0;"/><text fill="#000000" font-family="sans-serif" font-size="13" lengthAdjust="spacing" textLength="58" x="428" y="21.7169">«import»</text></g><!--link boundaries to files--><g id="link_boundaries_files"><path d="M143.12,96.57 C190.53,79.14 252.2287,56.4508 293.5087,41.2708 " fill="none" id="boundaries-to-files" style="stroke:#181818;stroke-width:1.0;stroke-dasharray:7.0,7.0;"/><polygon fill="#181818" points="299.14,39.2,289.3125,38.552,294.4472,40.9257,292.0736,46.0604,299.14,39.2" style="stroke:#181818;stroke-width:1.0;"/><text fill="#000000" font-family="sans-serif" font-size="13" lengthAdjust="spacing" textLength="60" x="186" y="56.7169">«access»</text></g><!--link boundaries to projects--><g id="link_boundaries_projects"><path d="M153.2,136 C193.74,148.11 239.5615,161.8109 277.5815,173.1809 " fill="none" id="boundaries-to-projects" style="stroke:#181818;stroke-width:1.0;stroke-dasharray:7.0,7.0;"/><polygon fill="#181818" points="283.33,174.9,275.8534,168.4891,278.5396,173.4674,273.5613,176.1537,283.33,174.9" style="stroke:#181818;stroke-width:1.0;"/><text fill="#000000" font-family="sans-serif" font-size="13" lengthAdjust="spacing" textLength="60" x="186" y="143.7169">«access»</text></g><!--link boundaries to members--><g id="link_boundaries_members"><path d="M153.2,116.65 C192.16,116.65 235.32,116.65 272.84,116.65 " fill="none" id="boundaries-to-members" style="stroke:#181818;stroke-width:1.0;stroke-dasharray:7.0,7.0;"/><polygon fill="#181818" points="278.84,116.65,269.84,112.65,273.84,116.65,269.84,120.65,278.84,116.65" style="stroke:#181818;stroke-width:1.0;"/><text fill="#000000" font-family="sans-serif" font-size="13" lengthAdjust="spacing" textLength="60" x="186" y="112.7169">«access»</text></g><!--SRC=[VO_13e8m38RlUuh61-013E7YsOSees05rgMRyM1yTyS4WP2uIzElNzf_0xKHee1oTulGi9ADBCwOqBFpg3Y2HzjZH_0oa5wTkaxbuPgB3A9m5Mini3DlOnRpr63444Nf11lQya1XHqPqgMg2t-NhWCOwyptsAlSKSEBRSy_ZWdfAYCeqk_as54K5lsndA4iUlMYiAhFwMShw9A2r5C9HM9B0Fsd-nSxv0000]--></g></svg>