<svg xmlns="http://www.w3.org/2000/svg" xmlns:xlink="http://www.w3.org/1999/xlink" contentStyleType="text/css" height="537px" preserveAspectRatio="none" style="width:1685px;height:537px;background:#FFFFFF;" version="1.1" viewBox="0 0 1685 537" width="1685px" zoomAndPan="magnify"><defs/><g><rect fill="#ADD8E6" height="36.2969" rx="12.5" ry="12.5" style="stroke:#181818;stroke-width:1.5;" width="244.3281" x="10" y="249.6328"/><text fill="#000000" font-family="sans-serif" font-size="14" lengthAdjust="spacing" textLength="224.3281" x="20" y="272.6279">Methodology for improving RMT</text><rect fill="#98FB98" height="52.5938" rx="12.5" ry="12.5" style="stroke:#181818;stroke-width:1.5;" width="226.3154" x="304.3281" y="20"/><text fill="#000000" font-family="sans-serif" font-size="14" lengthAdjust="spacing" textLength="206.3154" x="314.3281" y="42.9951">Analyze Intermediary Service</text><text fill="#000000" font-family="sans-serif" font-size="14" lengthAdjust="spacing" textLength="132.8428" x="318.7783" y="59.292">code and structure</text><rect fill="#FFC0CB" height="52.5938" rx="12.5" ry="12.5" style="stroke:#181818;stroke-width:1.5;" width="192.8193" x="580.6436" y="20"/><text fill="#000000" font-family="sans-serif" font-size="14" lengthAdjust="spacing" textLength="172.8193" x="590.6436" y="42.9951">Restrucutere the service</text><text fill="#000000" font-family="sans-serif" font-size="14" lengthAdjust="spacing" textLength="166.4619" x="595.0938" y="59.292">as the new architecture</text><rect fill="#FAFAD2" height="36.2969" rx="12.5" ry="12.5" style="stroke:#181818;stroke-width:1.5;" width="308.6338" x="823.4629" y="28.1484"/><text fill="#000000" font-family="sans-serif" font-size="14" lengthAdjust="spacing" textLength="288.6338" x="833.4629" y="51.1436">Test the service to guarantee the rewrite</text><path d="M773.4629,46.2969 L783.4629,46.2969 C798.4629,46.2969 798.4629,46.2969 813.4629,46.2969 L823.4629,46.2969 " fill="none" style="stroke:#181818;stroke-width:1.0;"/><path d="M530.6436,46.2969 L540.6436,46.2969 C555.6436,46.2969 555.6436,46.2969 570.6436,46.2969 L580.6436,46.2969 " fill="none" style="stroke:#181818;stroke-width:1.0;"/><path d="M254.3281,267.7813 L264.3281,267.7813 C279.3281,267.7813 279.3281,46.2969 294.3281,46.2969 L304.3281,46.2969 " fill="none" style="stroke:#181818;stroke-width:1.0;"/><rect fill="#98FB98" height="52.5938" rx="12.5" ry="12.5" style="stroke:#181818;stroke-width:1.5;" width="203.8184" x="304.3281" y="185.1875"/><text fill="#000000" font-family="sans-serif" font-size="14" lengthAdjust="spacing" textLength="183.8184" x="314.3281" y="208.1826">Analyze Detection Service</text><text fill="#000000" font-family="sans-serif" font-size="14" lengthAdjust="spacing" textLength="132.8428" x="318.7783" y="224.4795">code and structure</text><rect fill="#FFB6C1" height="52.5938" rx="12.5" ry="12.5" style="stroke:#181818;stroke-width:1.5;" width="160.5264" x="558.1465" y="185.1875"/><text fill="#000000" font-family="sans-serif" font-size="14" lengthAdjust="spacing" textLength="140.5264" x="568.1465" y="208.1826">Create unit test and</text><text fill="#000000" font-family="sans-serif" font-size="14" lengthAdjust="spacing" textLength="117.4551" x="572.5967" y="224.4795">design scenarios</text><rect fill="#FAFAD2" height="36.2969" rx="12.5" ry="12.5" style="stroke:#181818;stroke-width:1.5;" width="211.1055" x="768.6729" y="92.5938"/><text fill="#000000" font-family="sans-serif" font-size="14" lengthAdjust="spacing" textLength="191.1055" x="778.6729" y="115.5889">Update code dependencies</text><path d="M718.6729,211.4844 L728.6729,211.4844 C743.6729,211.4844 743.6729,110.7422 758.6729,110.7422 L768.6729,110.7422 " fill="none" style="stroke:#181818;stroke-width:1.0;"/><rect fill="#FAFAD2" height="36.2969" rx="12.5" ry="12.5" style="stroke:#181818;stroke-width:1.5;" width="263.7422" x="768.6729" y="148.8906"/><text fill="#000000" font-family="sans-serif" font-size="14" lengthAdjust="spacing" textLength="243.7422" x="778.6729" y="171.8857">Appling IDE automated refactoring</text><path d="M718.6729,211.4844 L728.6729,211.4844 C743.6729,211.4844 743.6729,167.0391 758.6729,167.0391 L768.6729,167.0391 " fill="none" style="stroke:#181818;stroke-width:1.0;"/><rect fill="#FAFAD2" height="52.5938" rx="12.5" ry="12.5" style="stroke:#181818;stroke-width:1.5;" width="297.1836" x="768.6729" y="205.1875"/><text fill="#000000" font-family="sans-serif" font-size="14" lengthAdjust="spacing" textLength="277.1836" x="778.6729" y="228.1826">Optimizing refactoring application code</text><text fill="#000000" font-family="sans-serif" font-size="14" lengthAdjust="spacing" textLength="240.2012" x="783.123" y="244.4795">by reducing duplicated operations</text><path d="M718.6729,211.4844 L728.6729,211.4844 C743.6729,211.4844 743.6729,231.4844 758.6729,231.4844 L768.6729,231.4844 " fill="none" style="stroke:#181818;stroke-width:1.0;"/><rect fill="#FAFAD2" height="52.5938" rx="12.5" ry="12.5" style="stroke:#181818;stroke-width:1.5;" width="266.0049" x="768.6729" y="277.7813"/><text fill="#000000" font-family="sans-serif" font-size="14" lengthAdjust="spacing" textLength="160.8564" x="778.6729" y="300.7764">Restructuring the code</text><text fill="#000000" font-family="sans-serif" font-size="14" lengthAdjust="spacing" textLength="241.5547" x="783.123" y="317.0732">and applying the new architecture</text><rect fill="#E6E6FA" height="52.5938" rx="12.5" ry="12.5" style="stroke:#181818;stroke-width:1.5;" width="235.3594" x="1084.6777" y="277.7813"/><text fill="#000000" font-family="sans-serif" font-size="14" lengthAdjust="spacing" textLength="202.8975" x="1094.6777" y="300.7764">Testing the tool with the test</text><text fill="#000000" font-family="sans-serif" font-size="14" lengthAdjust="spacing" textLength="210.9092" x="1099.1279" y="317.0732">cases available in each article</text><rect fill="#FFDAB9" height="36.2969" rx="12.5" ry="12.5" style="stroke:#181818;stroke-width:1.5;" width="248.3135" x="1370.0371" y="285.9297"/><text fill="#000000" font-family="sans-serif" font-size="14" lengthAdjust="spacing" textLength="228.3135" x="1380.0371" y="308.9248">Fixing issues found while testing</text><path d="M1320.0371,304.0781 L1330.0371,304.0781 C1345.0371,304.0781 1345.0371,304.0781 1360.0371,304.0781 L1370.0371,304.0781 " fill="none" style="stroke:#181818;stroke-width:1.0;"/><path d="M1034.6777,304.0781 L1044.6777,304.0781 C1059.6777,304.0781 1059.6777,304.0781 1074.6777,304.0781 L1084.6777,304.0781 " fill="none" style="stroke:#181818;stroke-width:1.0;"/><path d="M718.6729,211.4844 L728.6729,211.4844 C743.6729,211.4844 743.6729,304.0781 758.6729,304.0781 L768.6729,304.0781 " fill="none" style="stroke:#181818;stroke-width:1.0;"/><path d="M508.1465,211.4844 L518.1465,211.4844 C533.1465,211.4844 533.1465,211.4844 548.1465,211.4844 L558.1465,211.4844 " fill="none" style="stroke:#181818;stroke-width:1.0;"/><path d="M254.3281,267.7813 L264.3281,267.7813 C279.3281,267.7813 279.3281,211.4844 294.3281,211.4844 L304.3281,211.4844 " fill="none" style="stroke:#181818;stroke-width:1.0;"/><rect fill="#98FB98" height="52.5938" rx="12.5" ry="12.5" style="stroke:#181818;stroke-width:1.5;" width="186.626" x="304.3281" y="406.6719"/><text fill="#000000" font-family="sans-serif" font-size="14" lengthAdjust="spacing" textLength="166.626" x="314.3281" y="429.667">Analyze Metrics Service</text><text fill="#000000" font-family="sans-serif" font-size="14" lengthAdjust="spacing" textLength="132.8428" x="318.7783" y="445.9639">code and structure</text><rect fill="#FFB6C1" height="52.5938" rx="12.5" ry="12.5" style="stroke:#181818;stroke-width:1.5;" width="160.5264" x="540.9541" y="406.6719"/><text fill="#000000" font-family="sans-serif" font-size="14" lengthAdjust="spacing" textLength="140.5264" x="550.9541" y="429.667">Create unit test and</text><text fill="#000000" font-family="sans-serif" font-size="14" lengthAdjust="spacing" textLength="117.4551" x="555.4043" y="445.9639">design scenarios</text><rect fill="#FAFAD2" height="36.2969" rx="12.5" ry="12.5" style="stroke:#181818;stroke-width:1.5;" width="185.9287" x="751.4805" y="350.375"/><text fill="#000000" font-family="sans-serif" font-size="14" lengthAdjust="spacing" textLength="165.9287" x="761.4805" y="373.3701">Updating dependencies</text><path d="M701.4805,432.9688 L711.4805,432.9688 C726.4805,432.9688 726.4805,368.5234 741.4805,368.5234 L751.4805,368.5234 " fill="none" style="stroke:#181818;stroke-width:1.0;"/><rect fill="#FAFAD2" height="36.2969" rx="12.5" ry="12.5" style="stroke:#181818;stroke-width:1.5;" width="361.5166" x="751.4805" y="406.6719"/><text fill="#000000" font-family="sans-serif" font-size="14" lengthAdjust="spacing" textLength="341.5166" x="761.4805" y="429.667">Removing hard-coded metrics calculation library</text><path d="M701.4805,432.9688 L711.4805,432.9688 C726.4805,432.9688 726.4805,424.8203 741.4805,424.8203 L751.4805,424.8203 " fill="none" style="stroke:#181818;stroke-width:1.0;"/><rect fill="#FAFAD2" height="52.5938" rx="12.5" ry="12.5" style="stroke:#181818;stroke-width:1.5;" width="274.9873" x="751.4805" y="462.9688"/><text fill="#000000" font-family="sans-serif" font-size="14" lengthAdjust="spacing" textLength="179.3613" x="761.4805" y="485.9639">Restructuring the code to</text><text fill="#000000" font-family="sans-serif" font-size="14" lengthAdjust="spacing" textLength="250.5371" x="765.9307" y="502.2607">accommodate the new architecture</text><rect fill="#E6E6FA" height="36.2969" rx="12.5" ry="12.5" style="stroke:#181818;stroke-width:1.5;" width="337.8711" x="1076.4678" y="471.1172"/><text fill="#000000" font-family="sans-serif" font-size="14" lengthAdjust="spacing" textLength="317.8711" x="1086.4678" y="494.1123">Refactoring the code, adding design patterns</text><rect fill="#FFDAB9" height="52.5938" rx="12.5" ry="12.5" style="stroke:#181818;stroke-width:1.5;" width="209.1504" x="1464.3389" y="462.9688"/><text fill="#000000" font-family="sans-serif" font-size="14" lengthAdjust="spacing" textLength="189.1504" x="1474.3389" y="485.9639">Testing the tool to validate</text><text fill="#000000" font-family="sans-serif" font-size="14" lengthAdjust="spacing" textLength="160.2754" x="1478.7891" y="502.2607">the metrics calculation</text><path d="M1414.3389,489.2656 L1424.3389,489.2656 C1439.3389,489.2656 1439.3389,489.2656 1454.3389,489.2656 L1464.3389,489.2656 " fill="none" style="stroke:#181818;stroke-width:1.0;"/><path d="M1026.4678,489.2656 L1036.4678,489.2656 C1051.4678,489.2656 1051.4678,489.2656 1066.4678,489.2656 L1076.4678,489.2656 " fill="none" style="stroke:#181818;stroke-width:1.0;"/><path d="M701.4805,432.9688 L711.4805,432.9688 C726.4805,432.9688 726.4805,489.2656 741.4805,489.2656 L751.4805,489.2656 " fill="none" style="stroke:#181818;stroke-width:1.0;"/><path d="M490.9541,432.9688 L500.9541,432.9688 C515.9541,432.9688 515.9541,432.9688 530.9541,432.9688 L540.9541,432.9688 " fill="none" style="stroke:#181818;stroke-width:1.0;"/><path d="M254.3281,267.7813 L264.3281,267.7813 C279.3281,267.7813 279.3281,432.9688 294.3281,432.9688 L304.3281,432.9688 " fill="none" style="stroke:#181818;stroke-width:1.0;"/><!--SRC=[nLHBJnj13Bxlhx3K2uY2W294Su8Ig4Y9GE5nQNDmPfpTKMTdLlD8klpwshi9HIsDK2yzZX-VF_kpvpGc3AasJjVO5CNErtVMb5MQsKnJ65EglFRMbotCVG1JDy4lZ2jXChulTZYuGKjb879JE7DesoU2AvSerAGDXXRkA2oCecyEbDS4w3J45B9AEH03289ntwSmeSwSEPKWLGJnEH5ZPt2q10ogCecUizTiIsyrkU1rIzRwvHJk6Uub32GFPSQ0pAt73xGC3FMt9eOaPOntR-YWez2tSHu84q5sXiiB1mxdJ4tHb0wY8eV1-BYH-qEZ1QEhfgaXnsvbQ7FIMTDOqULgU06OawyPGdEJSrJ91_PipBvfagdDam2yI04KK8NT68GETp9hEK9d9MwTUpSNyWs5BcupovNAF3h95nbMi39LgTQkxQ-gBRYua864Nk9rTFBUmjAagd_9u4KlZ1G15sWipYo1SK2eAiPDHjaLfCWlrYRFvrEuD3y4qyIOENNkC_DQLiRseFqONzqNlfHWLFnFszAfyTPLcL3Ttt25GUyAJGtrYhv2gxBj5RTc5lY4_q5GraCqLShNjU-M-MsIJbxitXhhFQ3MVN_TL1fC_4UizkmtzVvO2Rxw1LeZ59YGc5zfj2XEkVxp3tXh-PDu65_3WaAKEHpi7UuV7kqTRzrXWb6si7yC-ny71qU33oVmS7yEujukjZxVNaFqEV1lemsFnSoom6yN8rv1c6J7DqO3lZLoe-6NjG4ktC84xsfogHWzZdy571_jVkB5a8sY08_ZOiZZoJPn1W-6-nnmzSlTa-8Q7Vzj9MEJAyvvPrDesNVt4m00]--></g></svg>