<svg xmlns="http://www.w3.org/2000/svg" xmlns:xlink="http://www.w3.org/1999/xlink" contentStyleType="text/css" height="1540px" preserveAspectRatio="none" style="width:1690px;height:1540px;" version="1.1" viewBox="0 0 1690 1540" width="1690px" zoomAndPan="magnify"><defs/><g><rect fill="none" height="20.9531" style="stroke:none;stroke-width:1.0;" width="1657.0303" x="15" y="12.7451"/><ellipse cx="338.9136" cy="48.6982" fill="#222222" rx="10" ry="10" style="stroke:#222222;stroke-width:1.0;"/><polygon fill="#C2F0FF" points="266.9067,78.6982,420.9204,78.6982,410.9204,95.6826,420.9204,112.667,266.9067,112.667" style="stroke:#181818;stroke-width:0.5;"/><text fill="#000000" font-family="sans-serif" font-size="12" lengthAdjust="spacing" textLength="124.0137" x="276.9067" y="99.8369">User uploads project</text><path d="M20,237.4561 L20,277.7217 A0,0 0 0 0 20,277.7217 L205.106,277.7217 A0,0 0 0 0 205.106,277.7217 L205.106,261.5889 L225.106,257.5889 L205.106,253.5889 L205.106,247.4561 L195.106,237.4561 L20,237.4561 A0,0 0 0 0 20,237.4561 " fill="#FFE0E0" style="stroke:#181818;stroke-width:0.5;"/><path d="M195.106,237.4561 L195.106,247.4561 L205.106,247.4561 L195.106,237.4561 " fill="#FFE0E0" style="stroke:#181818;stroke-width:0.5;"/><text fill="#000000" font-family="sans-serif" font-size="13" lengthAdjust="spacing" textLength="106.2534" x="26" y="254.5229">This step has no</text><text fill="#000000" font-family="sans-serif" font-size="13" lengthAdjust="spacing" textLength="159.9736" x="30.1323" y="269.6558">interaction with the user</text><rect fill="#FFFFCC" height="33.9688" rx="12.5" ry="12.5" style="stroke:#181818;stroke-width:0.5;" width="227.6152" x="225.106" y="240.6045"/><text fill="#000000" font-family="sans-serif" font-size="12" lengthAdjust="spacing" textLength="207.6152" x="235.106" y="261.7432">Makes Http request with project id</text><ellipse cx="223.1904" cy="758.4404" fill="none" rx="11" ry="11" style="stroke:#222222;stroke-width:1.0;"/><ellipse cx="223.1904" cy="758.4404" fill="#222222" rx="6" ry="6" style="stroke:#222222;stroke-width:1.0;"/><polygon fill="#FFFFCC" points="357.7803,1436.9717,551.4932,1436.9717,561.4932,1453.9561,551.4932,1470.9404,357.7803,1470.9404" style="stroke:#181818;stroke-width:0.5;"/><text fill="#000000" font-family="sans-serif" font-size="12" lengthAdjust="spacing" textLength="173.7129" x="367.7803" y="1458.1104">Shows informations recieved</text><ellipse cx="454.6367" cy="1501.9404" fill="none" rx="11" ry="11" style="stroke:#222222;stroke-width:1.0;"/><ellipse cx="454.6367" cy="1501.9404" fill="#222222" rx="6" ry="6" style="stroke:#222222;stroke-width:1.0;"/><line style="stroke:#000000;stroke-width:1.5;" x1="15" x2="15" y1="12.7451" y2="1528.9404"/><polygon fill="#C2F0FF" points="700.7017,132.667,872.1333,132.667,862.1333,166.6357,690.7017,166.6357" style="stroke:#181818;stroke-width:0.5;"/><text fill="#000000" font-family="sans-serif" font-size="12" lengthAdjust="spacing" textLength="161.4316" x="700.7017" y="153.8057">Save project into database</text><rect fill="#C2F0FF" height="33.9688" rx="12.5" ry="12.5" style="stroke:#181818;stroke-width:0.5;" width="141.8691" x="710.4829" y="186.6357"/><text fill="#000000" font-family="sans-serif" font-size="12" lengthAdjust="spacing" textLength="121.8691" x="720.4829" y="207.7744">Finishes the request</text><rect fill="#FFFFCC" height="47.9375" rx="12.5" ry="12.5" style="stroke:#181818;stroke-width:0.5;" width="227.6152" x="667.6099" y="297.7217"/><text fill="#000000" font-family="sans-serif" font-size="12" lengthAdjust="spacing" textLength="207.6152" x="677.6099" y="318.8604">Makes Http request with project id</text><text fill="#000000" font-family="sans-serif" font-size="12" lengthAdjust="spacing" textLength="178.1191" x="677.6099" y="332.8291">to find refactoring candidates</text><polygon fill="#FFFFCC" points="736.8616,635.5029,825.9734,635.5029,837.9734,647.5029,825.9734,659.5029,736.8616,659.5029,724.8616,647.5029,736.8616,635.5029" style="stroke:#181818;stroke-width:0.5;"/><text fill="#000000" font-family="sans-serif" font-size="11" lengthAdjust="spacing" textLength="89.1118" x="736.8616" y="651.311">has candidates?</text><text fill="#000000" font-family="sans-serif" font-size="11" lengthAdjust="spacing" textLength="13.7017" x="711.1599" y="644.9087">no</text><text fill="#000000" font-family="sans-serif" font-size="11" lengthAdjust="spacing" textLength="19.0083" x="837.9734" y="644.9087">yes</text><rect fill="#FFFFCC" height="47.9375" rx="12.5" ry="12.5" style="stroke:#181818;stroke-width:0.5;" width="166.4023" x="582.4932" y="679.5029"/><text fill="#000000" font-family="sans-serif" font-size="12" lengthAdjust="spacing" textLength="146.4023" x="592.4932" y="700.6416">Returns to client that no</text><text fill="#000000" font-family="sans-serif" font-size="12" lengthAdjust="spacing" textLength="137.3555" x="592.4932" y="714.6104">candidates were found</text><rect fill="#FFFFCC" height="47.9375" rx="12.5" ry="12.5" style="stroke:#181818;stroke-width:0.5;" width="227.6152" x="783.333" y="679.5029"/><text fill="#000000" font-family="sans-serif" font-size="12" lengthAdjust="spacing" textLength="207.6152" x="793.333" y="700.6416">Makes Http request with project id</text><text fill="#000000" font-family="sans-serif" font-size="12" lengthAdjust="spacing" textLength="132.9668" x="793.333" y="714.6104">to refactor candidates</text><rect fill="#FFFFCC" height="47.9375" rx="12.5" ry="12.5" style="stroke:#181818;stroke-width:0.5;" width="227.6152" x="783.333" y="1031.2529"/><text fill="#000000" font-family="sans-serif" font-size="12" lengthAdjust="spacing" textLength="207.6152" x="793.333" y="1052.3916">Makes Http request with project id</text><text fill="#000000" font-family="sans-serif" font-size="12" lengthAdjust="spacing" textLength="149.3555" x="793.333" y="1066.3604">and refactored project id</text><rect fill="#FFFFCC" height="33.9688" rx="12.5" ry="12.5" style="stroke:#181818;stroke-width:0.5;" width="208.0566" x="793.1123" y="1315.0654"/><text fill="#000000" font-family="sans-serif" font-size="12" lengthAdjust="spacing" textLength="188.0566" x="803.1123" y="1336.2041">Agroup candidates and metrics</text><polygon fill="#FFFFCC" points="789.9219,1369.0342,1004.3594,1369.0342,1014.3594,1393.0029,1004.3594,1416.9717,789.9219,1416.9717" style="stroke:#181818;stroke-width:0.5;"/><text fill="#000000" font-family="sans-serif" font-size="12" lengthAdjust="spacing" textLength="194.4375" x="799.9219" y="1390.1729">Returns candidates with metrics</text><text fill="#000000" font-family="sans-serif" font-size="12" lengthAdjust="spacing" textLength="162.0527" x="799.9219" y="1404.1416">and refactoring candidates</text><line style="stroke:#000000;stroke-width:1.5;" x1="576.4932" x2="576.4932" y1="12.7451" y2="1528.9404"/><rect fill="#FFFFCC" height="33.9688" rx="12.5" ry="12.5" style="stroke:#181818;stroke-width:0.5;" width="223.8652" x="1044.1924" y="365.6592"/><text fill="#000000" font-family="sans-serif" font-size="12" lengthAdjust="spacing" textLength="203.8652" x="1054.1924" y="386.7979">Retrive the project from database</text><polygon fill="#FFFFCC" points="1054.3594,419.6279,1267.8906,419.6279,1257.8906,453.5967,1044.3594,453.5967" style="stroke:#181818;stroke-width:0.5;"/><text fill="#000000" font-family="sans-serif" font-size="12" lengthAdjust="spacing" textLength="203.5313" x="1054.3594" y="440.7666">Save the project to the filesystem</text><rect fill="#FFFFCC" height="33.9688" style="stroke:#181818;stroke-width:0.5;" width="128.6445" x="1091.8027" y="473.5967"/><text fill="#000000" font-family="sans-serif" font-size="12" lengthAdjust="spacing" textLength="108.6445" x="1101.8027" y="494.7354">Parses the project</text><rect fill="#FFFFCC" height="33.9688" style="stroke:#181818;stroke-width:0.5;" width="234.916" x="1038.667" y="527.5654"/><text fill="#000000" font-family="sans-serif" font-size="12" lengthAdjust="spacing" textLength="214.916" x="1048.667" y="548.7041">Searches for refactoring candidates</text><polygon fill="#FFFFCC" points="1087.8975,581.5342,1224.3525,581.5342,1234.3525,598.5186,1224.3525,615.5029,1087.8975,615.5029" style="stroke:#181818;stroke-width:0.5;"/><text fill="#000000" font-family="sans-serif" font-size="12" lengthAdjust="spacing" textLength="116.4551" x="1097.8975" y="602.6729">Returns candidates</text><polygon fill="#FFFFCC" points="1160.4204,747.4404,1393.2759,747.4404,1383.2759,795.3779,1150.4204,795.3779" style="stroke:#181818;stroke-width:0.5;"/><text fill="#000000" font-family="sans-serif" font-size="12" lengthAdjust="spacing" textLength="222.8555" x="1160.4204" y="768.5791">Retrive the project from database;no</text><text fill="#000000" font-family="sans-serif" font-size="12" lengthAdjust="spacing" textLength="207.5742" x="1160.4204" y="782.5479">:Save the project to the filesystem</text><rect fill="#FFFFCC" height="33.9688" rx="12.5" ry="12.5" style="stroke:#181818;stroke-width:0.5;" width="128.6445" x="1207.5259" y="815.3779"/><text fill="#000000" font-family="sans-serif" font-size="12" lengthAdjust="spacing" textLength="108.6445" x="1217.5259" y="836.5166">Parses the project</text><rect fill="#FFFFCC" height="33.9688" style="stroke:#181818;stroke-width:0.5;" width="218.6855" x="1162.5054" y="869.3467"/><text fill="#000000" font-family="sans-serif" font-size="12" lengthAdjust="spacing" textLength="198.6855" x="1172.5054" y="890.4854">Applies refactoring to the project</text><polygon fill="#FFFFCC" points="1153.603,923.3154,1400.0933,923.3154,1390.0933,957.2842,1143.603,957.2842" style="stroke:#181818;stroke-width:0.5;"/><text fill="#000000" font-family="sans-serif" font-size="12" lengthAdjust="spacing" textLength="236.4902" x="1153.603" y="944.4541">Save the refactoring project to datbase</text><polygon fill="#FFFFCC" points="1178.1733,977.2842,1365.5229,977.2842,1375.5229,994.2686,1365.5229,1011.2529,1178.1733,1011.2529" style="stroke:#181818;stroke-width:0.5;"/><text fill="#000000" font-family="sans-serif" font-size="12" lengthAdjust="spacing" textLength="167.3496" x="1188.1733" y="998.4229">Return refactored project id</text><line style="stroke:#000000;stroke-width:1.5;" x1="1029.3594" x2="1029.3594" y1="12.7451" y2="1528.9404"/><rect fill="#FFFFCC" height="33.9688" rx="12.5" ry="12.5" style="stroke:#181818;stroke-width:0.5;" width="245.0762" x="1421.0933" y="1099.1904"/><text fill="#000000" font-family="sans-serif" font-size="12" lengthAdjust="spacing" textLength="225.0762" x="1431.0933" y="1120.3291">Retrieve both projects from database</text><rect fill="#FFFFCC" height="33.9688" style="stroke:#181818;stroke-width:0.5;" width="124.7539" x="1481.2544" y="1153.1592"/><text fill="#000000" font-family="sans-serif" font-size="12" lengthAdjust="spacing" textLength="104.7539" x="1491.2544" y="1174.2979">Calculate metrics</text><rect fill="#FFFFCC" height="33.9688" style="stroke:#181818;stroke-width:0.5;" width="183.3184" x="1451.9722" y="1207.1279"/><text fill="#000000" font-family="sans-serif" font-size="12" lengthAdjust="spacing" textLength="163.3184" x="1461.9722" y="1228.2666">Calculate quality attributes</text><polygon fill="#FFFFCC" points="1488.9917,1261.0967,1598.271,1261.0967,1608.271,1278.0811,1598.271,1295.0654,1488.9917,1295.0654" style="stroke:#181818;stroke-width:0.5;"/><text fill="#000000" font-family="sans-serif" font-size="12" lengthAdjust="spacing" textLength="89.2793" x="1498.9917" y="1282.2354">Return metrics</text><line style="stroke:#000000;stroke-width:1.5;" x1="1415.0933" x2="1415.0933" y1="12.7451" y2="1528.9404"/><line style="stroke:#000000;stroke-width:1.5;" x1="1670.1694" x2="1670.1694" y1="12.7451" y2="1528.9404"/><line style="stroke:#181818;stroke-width:1.0;" x1="338.9136" x2="338.9136" y1="58.6982" y2="78.6982"/><polygon fill="#181818" points="334.9136,68.6982,338.9136,78.6982,342.9136,68.6982,338.9136,72.6982" style="stroke:#181818;stroke-width:1.0;"/><line style="stroke:#181818;stroke-width:1.0;" x1="454.6367" x2="454.6367" y1="1470.9404" y2="1490.9404"/><polygon fill="#181818" points="450.6367,1480.9404,454.6367,1490.9404,458.6367,1480.9404,454.6367,1484.9404" style="stroke:#181818;stroke-width:1.0;"/><line style="stroke:#181818;stroke-width:1.0;" x1="781.4175" x2="781.4175" y1="166.6357" y2="186.6357"/><polygon fill="#181818" points="777.4175,176.6357,781.4175,186.6357,785.4175,176.6357,781.4175,180.6357" style="stroke:#181818;stroke-width:1.0;"/><line style="stroke:#181818;stroke-width:1.0;" x1="897.1406" x2="897.1406" y1="1349.0342" y2="1369.0342"/><polygon fill="#181818" points="893.1406,1359.0342,897.1406,1369.0342,901.1406,1359.0342,897.1406,1363.0342" style="stroke:#181818;stroke-width:1.0;"/><line style="stroke:#181818;stroke-width:1.0;" x1="724.8616" x2="665.6943" y1="647.5029" y2="647.5029"/><line style="stroke:#181818;stroke-width:1.0;" x1="665.6943" x2="665.6943" y1="647.5029" y2="679.5029"/><polygon fill="#181818" points="661.6943,669.5029,665.6943,679.5029,669.6943,669.5029,665.6943,673.5029" style="stroke:#181818;stroke-width:1.0;"/><line style="stroke:#181818;stroke-width:1.0;" x1="837.9734" x2="897.1406" y1="647.5029" y2="647.5029"/><line style="stroke:#181818;stroke-width:1.0;" x1="897.1406" x2="897.1406" y1="647.5029" y2="679.5029"/><polygon fill="#181818" points="893.1406,669.5029,897.1406,679.5029,901.1406,669.5029,897.1406,673.5029" style="stroke:#181818;stroke-width:1.0;"/><line style="stroke:#181818;stroke-width:1.0;" x1="1156.125" x2="1156.125" y1="399.6279" y2="419.6279"/><polygon fill="#181818" points="1152.125,409.6279,1156.125,419.6279,1160.125,409.6279,1156.125,413.6279" style="stroke:#181818;stroke-width:1.0;"/><line style="stroke:#181818;stroke-width:1.0;" x1="1156.125" x2="1156.125" y1="453.5967" y2="473.5967"/><polygon fill="#181818" points="1152.125,463.5967,1156.125,473.5967,1160.125,463.5967,1156.125,467.5967" style="stroke:#181818;stroke-width:1.0;"/><line style="stroke:#181818;stroke-width:1.0;" x1="1156.125" x2="1156.125" y1="507.5654" y2="527.5654"/><polygon fill="#181818" points="1152.125,517.5654,1156.125,527.5654,1160.125,517.5654,1156.125,521.5654" style="stroke:#181818;stroke-width:1.0;"/><line style="stroke:#181818;stroke-width:1.0;" x1="1156.125" x2="1156.125" y1="561.5342" y2="581.5342"/><polygon fill="#181818" points="1152.125,571.5342,1156.125,581.5342,1160.125,571.5342,1156.125,575.5342" style="stroke:#181818;stroke-width:1.0;"/><line style="stroke:#181818;stroke-width:1.0;" x1="1271.8481" x2="1271.8481" y1="795.3779" y2="815.3779"/><polygon fill="#181818" points="1267.8481,805.3779,1271.8481,815.3779,1275.8481,805.3779,1271.8481,809.3779" style="stroke:#181818;stroke-width:1.0;"/><line style="stroke:#181818;stroke-width:1.0;" x1="1271.8481" x2="1271.8481" y1="849.3467" y2="869.3467"/><polygon fill="#181818" points="1267.8481,859.3467,1271.8481,869.3467,1275.8481,859.3467,1271.8481,863.3467" style="stroke:#181818;stroke-width:1.0;"/><line style="stroke:#181818;stroke-width:1.0;" x1="1271.8481" x2="1271.8481" y1="903.3154" y2="923.3154"/><polygon fill="#181818" points="1267.8481,913.3154,1271.8481,923.3154,1275.8481,913.3154,1271.8481,917.3154" style="stroke:#181818;stroke-width:1.0;"/><line style="stroke:#181818;stroke-width:1.0;" x1="1271.8481" x2="1271.8481" y1="957.2842" y2="977.2842"/><polygon fill="#181818" points="1267.8481,967.2842,1271.8481,977.2842,1275.8481,967.2842,1271.8481,971.2842" style="stroke:#181818;stroke-width:1.0;"/><line style="stroke:#181818;stroke-width:1.0;" x1="1543.6313" x2="1543.6313" y1="1133.1592" y2="1153.1592"/><polygon fill="#181818" points="1539.6313,1143.1592,1543.6313,1153.1592,1547.6313,1143.1592,1543.6313,1147.1592" style="stroke:#181818;stroke-width:1.0;"/><line style="stroke:#181818;stroke-width:1.0;" x1="1543.6313" x2="1543.6313" y1="1187.1279" y2="1207.1279"/><polygon fill="#181818" points="1539.6313,1197.1279,1543.6313,1207.1279,1547.6313,1197.1279,1543.6313,1201.1279" style="stroke:#181818;stroke-width:1.0;"/><line style="stroke:#181818;stroke-width:1.0;" x1="1543.6313" x2="1543.6313" y1="1241.0967" y2="1261.0967"/><polygon fill="#181818" points="1539.6313,1251.0967,1543.6313,1261.0967,1547.6313,1251.0967,1543.6313,1255.0967" style="stroke:#181818;stroke-width:1.0;"/><line style="stroke:#181818;stroke-width:1.0;" x1="338.9136" x2="338.9136" y1="112.667" y2="117.667"/><line style="stroke:#181818;stroke-width:1.0;" x1="338.9136" x2="781.4175" y1="117.667" y2="117.667"/><line style="stroke:#181818;stroke-width:1.0;" x1="781.4175" x2="781.4175" y1="117.667" y2="132.667"/><polygon fill="#181818" points="777.4175,122.667,781.4175,132.667,785.4175,122.667,781.4175,126.667" style="stroke:#181818;stroke-width:1.0;"/><line style="stroke:#181818;stroke-width:1.0;" x1="781.4175" x2="781.4175" y1="220.6045" y2="225.6045"/><line style="stroke:#181818;stroke-width:1.0;" x1="781.4175" x2="338.9136" y1="225.6045" y2="225.6045"/><line style="stroke:#181818;stroke-width:1.0;" x1="338.9136" x2="338.9136" y1="225.6045" y2="240.6045"/><polygon fill="#181818" points="334.9136,230.6045,338.9136,240.6045,342.9136,230.6045,338.9136,234.6045" style="stroke:#181818;stroke-width:1.0;"/><line style="stroke:#181818;stroke-width:1.0;" x1="338.9136" x2="338.9136" y1="274.5732" y2="282.7217"/><line style="stroke:#181818;stroke-width:1.0;" x1="338.9136" x2="781.4175" y1="282.7217" y2="282.7217"/><line style="stroke:#181818;stroke-width:1.0;" x1="781.4175" x2="781.4175" y1="282.7217" y2="297.7217"/><polygon fill="#181818" points="777.4175,287.7217,781.4175,297.7217,785.4175,287.7217,781.4175,291.7217" style="stroke:#181818;stroke-width:1.0;"/><line style="stroke:#181818;stroke-width:1.0;" x1="781.4175" x2="781.4175" y1="345.6592" y2="350.6592"/><line style="stroke:#181818;stroke-width:1.0;" x1="781.4175" x2="1156.125" y1="350.6592" y2="350.6592"/><line style="stroke:#181818;stroke-width:1.0;" x1="1156.125" x2="1156.125" y1="350.6592" y2="365.6592"/><polygon fill="#181818" points="1152.125,355.6592,1156.125,365.6592,1160.125,355.6592,1156.125,359.6592" style="stroke:#181818;stroke-width:1.0;"/><line style="stroke:#181818;stroke-width:1.0;" x1="665.6943" x2="665.6943" y1="727.4404" y2="732.4404"/><line style="stroke:#181818;stroke-width:1.0;" x1="665.6943" x2="223.1904" y1="732.4404" y2="732.4404"/><line style="stroke:#181818;stroke-width:1.0;" x1="223.1904" x2="223.1904" y1="732.4404" y2="747.4404"/><polygon fill="#181818" points="219.1904,737.4404,223.1904,747.4404,227.1904,737.4404,223.1904,741.4404" style="stroke:#181818;stroke-width:1.0;"/><line style="stroke:#181818;stroke-width:1.0;" x1="897.1406" x2="897.1406" y1="727.4404" y2="732.4404"/><line style="stroke:#181818;stroke-width:1.0;" x1="897.1406" x2="1271.8481" y1="732.4404" y2="732.4404"/><line style="stroke:#181818;stroke-width:1.0;" x1="1271.8481" x2="1271.8481" y1="732.4404" y2="747.4404"/><polygon fill="#181818" points="1267.8481,737.4404,1271.8481,747.4404,1275.8481,737.4404,1271.8481,741.4404" style="stroke:#181818;stroke-width:1.0;"/><line style="stroke:#181818;stroke-width:1.0;" x1="1271.8481" x2="1271.8481" y1="1011.2529" y2="1016.2529"/><line style="stroke:#181818;stroke-width:1.0;" x1="1271.8481" x2="897.1406" y1="1016.2529" y2="1016.2529"/><line style="stroke:#181818;stroke-width:1.0;" x1="897.1406" x2="897.1406" y1="1016.2529" y2="1031.2529"/><polygon fill="#181818" points="893.1406,1021.2529,897.1406,1031.2529,901.1406,1021.2529,897.1406,1025.2529" style="stroke:#181818;stroke-width:1.0;"/><line style="stroke:#181818;stroke-width:1.0;" x1="897.1406" x2="897.1406" y1="1079.1904" y2="1084.1904"/><line style="stroke:#181818;stroke-width:1.0;" x1="897.1406" x2="1543.6313" y1="1084.1904" y2="1084.1904"/><line style="stroke:#181818;stroke-width:1.0;" x1="1543.6313" x2="1543.6313" y1="1084.1904" y2="1099.1904"/><polygon fill="#181818" points="1539.6313,1089.1904,1543.6313,1099.1904,1547.6313,1089.1904,1543.6313,1093.1904" style="stroke:#181818;stroke-width:1.0;"/><line style="stroke:#181818;stroke-width:1.0;" x1="1543.6313" x2="1543.6313" y1="1295.0654" y2="1300.0654"/><line style="stroke:#181818;stroke-width:1.0;" x1="1543.6313" x2="897.1406" y1="1300.0654" y2="1300.0654"/><line style="stroke:#181818;stroke-width:1.0;" x1="897.1406" x2="897.1406" y1="1300.0654" y2="1315.0654"/><polygon fill="#181818" points="893.1406,1305.0654,897.1406,1315.0654,901.1406,1305.0654,897.1406,1309.0654" style="stroke:#181818;stroke-width:1.0;"/><line style="stroke:#181818;stroke-width:1.0;" x1="897.1406" x2="897.1406" y1="1416.9717" y2="1421.9717"/><line style="stroke:#181818;stroke-width:1.0;" x1="897.1406" x2="454.6367" y1="1421.9717" y2="1421.9717"/><line style="stroke:#181818;stroke-width:1.0;" x1="454.6367" x2="454.6367" y1="1421.9717" y2="1436.9717"/><polygon fill="#181818" points="450.6367,1426.9717,454.6367,1436.9717,458.6367,1426.9717,454.6367,1430.9717" style="stroke:#181818;stroke-width:1.0;"/><line style="stroke:#181818;stroke-width:1.0;" x1="1156.125" x2="1156.125" y1="615.5029" y2="620.5029"/><line style="stroke:#181818;stroke-width:1.0;" x1="1156.125" x2="781.4175" y1="620.5029" y2="620.5029"/><line style="stroke:#181818;stroke-width:1.0;" x1="781.4175" x2="781.4175" y1="620.5029" y2="635.5029"/><polygon fill="#181818" points="777.4175,625.5029,781.4175,635.5029,785.4175,625.5029,781.4175,629.5029" style="stroke:#181818;stroke-width:1.0;"/><text fill="#000000" font-family="sans-serif" font-size="18" font-weight="bold" lengthAdjust="spacing" textLength="59.1768" x="266.1582" y="29.4531">Client</text><text fill="#000000" font-family="sans-serif" font-size="18" font-weight="bold" lengthAdjust="spacing" textLength="213.0732" x="696.3896" y="29.4531">Intermediary Service</text><text fill="#000000" font-family="sans-serif" font-size="18" font-weight="bold" lengthAdjust="spacing" textLength="179.6836" x="1132.3845" y="29.4531">Detection Service</text><text fill="#000000" font-family="sans-serif" font-size="18" font-weight="bold" lengthAdjust="spacing" textLength="156.252" x="1464.5054" y="29.4531">Metrics Service</text><!--SRC=[hLHDRnen4BtxLupK2t3X3eWgJLMrXqXLQM_bOBopmOtNtdXcGQZfV-zuFuA1Y4PjZplxvkEzDvu5yS7XKcd3TcVv03yLm3jj7kvZQ7nn6ro8i6d8UYHIlvGFZ0bp3h5LxR12pvfjy084A89fKgGjUP70KNkgTHI0e1VJVWxrD9dSEYlHoUH94Ul8weskQsTDMtdsZJ12KxkW2u8wXXzeUD6cVVACiSB2wdY05SQTDPYAdAIlz0w7DB2U0nIQzKOJJa-17wotj4K2tY94V6oGU7ustknEFmZY8tCzG61lUNjiKCmxnHoMF8ElMqj0Z3LiDO4FyDsd6J0czOFlSbE_HaXUvVIApagubTONyh-K-Y5QVmz6-y8AOwIEotjax7hdnRyWHoiwfL66WcKCrRDMSzK9cGEaNVeihKCw2CbggcQVTQHUmXwsbapKqIHbIrc3buTRjpCqqLCMN5vLn9OmIgeUyM_787AFV1Yd0Vonf4ngMWybhZdve8vPiCSeBDAYpY-sCTHNPq172AC3qlYr1Wtq_vinFlorDMBgJNe04irTwPCp_uRoEIfh9RDqxwaN_1c7HSP- -Q_x3KfdotrIkvFmBebbw590bFatuLYCBfRxLZlJE743ggx8EeyzDjgbKwbP_csQV5y7_1_OtQHBM6UcG-BIvyvVMlwEVOyufNxwTCvFw6or3NkICoElhMfFMxBN9174WxJIlm40]--></g></svg>