<svg xmlns="http://www.w3.org/2000/svg" xmlns:xlink="http://www.w3.org/1999/xlink" contentStyleType="text/css" height="1434px" preserveAspectRatio="none" style="width:1025px;height:1434px;background:#FFFFFF;" version="1.1" viewBox="0 0 1025 1434" width="1025px" zoomAndPan="magnify"><defs/><g><rect fill="none" height="20.9531" style="stroke:none;stroke-width:1.0;" width="992.2085" x="15" y="12.7451"/><ellipse cx="122.9219" cy="48.6982" fill="#222222" rx="10" ry="10" style="stroke:#222222;stroke-width:1.0;"/><polygon fill="#FAFAD2" points="50.915,78.6982,204.9287,78.6982,194.9287,95.6826,204.9287,112.667,50.915,112.667" style="stroke:#181818;stroke-width:0.5;"/><text fill="#000000" font-family="sans-serif" font-size="12" lengthAdjust="spacing" textLength="124.0137" x="60.915" y="99.8369">User upload projects</text><ellipse cx="122.9219" cy="1088.4756" fill="#222222" rx="10" ry="10" style="stroke:#222222;stroke-width:1.0;"/><rect fill="#FAFAD2" height="33.9688" rx="12.5" ry="12.5" style="stroke:#181818;stroke-width:0.5;" width="199.5488" x="23.1475" y="1118.4756"/><text fill="#000000" font-family="sans-serif" font-size="12" lengthAdjust="spacing" textLength="179.5488" x="33.1475" y="1139.6143">Asks if the refactoring is done</text><polygon fill="#FAFAD2" points="30,1308.3193,215.8438,1308.3193,225.8438,1332.2881,215.8438,1356.2568,30,1356.2568" style="stroke:#181818;stroke-width:0.5;"/><text fill="#000000" font-family="sans-serif" font-size="12" lengthAdjust="spacing" textLength="165.8438" x="40" y="1329.458">Displays project candidates</text><text fill="#000000" font-family="sans-serif" font-size="12" lengthAdjust="spacing" textLength="124.834" x="43.8145" y="1343.4268">and metrics if exisits</text><ellipse cx="122.9219" cy="1387.2568" fill="none" rx="11" ry="11" style="stroke:#222222;stroke-width:1.0;"/><ellipse cx="122.9219" cy="1387.2568" fill="#222222" rx="6" ry="6" style="stroke:#222222;stroke-width:1.0;"/><line style="stroke:#000000;stroke-width:1.5;" x1="15" x2="15" y1="12.7451" y2="1422.6592"/><polygon fill="#FAFAD2" points="265.8438,132.667,483.1777,132.667,473.1777,166.6357,255.8438,166.6357" style="stroke:#181818;stroke-width:0.5;"/><text fill="#000000" font-family="sans-serif" font-size="12" lengthAdjust="spacing" textLength="207.334" x="265.8438" y="153.8057">Save project to the redis database</text><polygon fill="#FAFAD2" points="267.4697,186.6357,481.5518,186.6357,471.5518,220.6045,257.4697,220.6045" style="stroke:#181818;stroke-width:0.5;"/><text fill="#000000" font-family="sans-serif" font-size="12" lengthAdjust="spacing" textLength="204.082" x="267.4697" y="207.7744">Save project zip to the S3 storage</text><polygon fill="#FAFAD2" points="282.3926,240.6045,456.6289,240.6045,466.6289,257.5889,456.6289,274.5732,282.3926,274.5732" style="stroke:#181818;stroke-width:0.5;"/><text fill="#000000" font-family="sans-serif" font-size="12" lengthAdjust="spacing" textLength="154.2363" x="292.3926" y="261.7432">Sends project id to queue</text><rect fill="#FAFAD2" height="47.9375" rx="12.5" ry="12.5" style="stroke:#181818;stroke-width:0.5;" width="158.6211" x="290.2002" y="1172.4443"/><text fill="#000000" font-family="sans-serif" font-size="12" lengthAdjust="spacing" textLength="112.4121" x="300.2002" y="1193.583">Retrive the project</text><text fill="#000000" font-family="sans-serif" font-size="12" lengthAdjust="spacing" textLength="134.8066" x="304.0146" y="1207.5518">informaiton from redis</text><rect fill="#FAFAD2" height="47.9375" rx="12.5" ry="12.5" style="stroke:#181818;stroke-width:0.5;" width="164.7324" x="287.1445" y="1240.3818"/><text fill="#000000" font-family="sans-serif" font-size="12" lengthAdjust="spacing" textLength="133.9219" x="297.1445" y="1261.5205">Return the refactoring</text><text fill="#000000" font-family="sans-serif" font-size="12" lengthAdjust="spacing" textLength="140.918" x="300.959" y="1275.4893">candidates and metrics</text><line style="stroke:#000000;stroke-width:1.5;" x1="240.8438" x2="240.8438" y1="12.7451" y2="1422.6592"/><rect fill="#FAFAD2" height="47.9375" rx="12.5" ry="12.5" style="stroke:#181818;stroke-width:0.5;" width="205.6953" x="534.0293" y="294.5732"/><text fill="#000000" font-family="sans-serif" font-size="12" lengthAdjust="spacing" textLength="185.6953" x="544.0293" y="315.7119">Retrive the project information</text><text fill="#000000" font-family="sans-serif" font-size="12" lengthAdjust="spacing" textLength="137.127" x="547.8438" y="329.6807">from the redis databse</text><rect fill="#FAFAD2" height="33.9688" rx="12.5" ry="12.5" style="stroke:#181818;stroke-width:0.5;" width="212.9551" x="530.3994" y="362.5107"/><text fill="#000000" font-family="sans-serif" font-size="12" lengthAdjust="spacing" textLength="192.9551" x="540.3994" y="383.6494">Retrieve the project file from S3</text><rect fill="#C2F0FF" height="33.9688" style="stroke:#181818;stroke-width:0.5;" width="234.916" x="519.4189" y="416.4795"/><text fill="#000000" font-family="sans-serif" font-size="12" lengthAdjust="spacing" textLength="214.916" x="529.4189" y="437.6182">Searches for refactoring candidates</text><rect fill="#C2F0FF" height="33.9688" style="stroke:#181818;stroke-width:0.5;" width="164.0176" x="554.8682" y="518.8506"/><text fill="#000000" font-family="sans-serif" font-size="12" lengthAdjust="spacing" textLength="144.0176" x="564.8682" y="539.9893">Refactor the candidates</text><polygon fill="#FAFAD2" points="536.9248,572.8193,746.8291,572.8193,736.8291,606.7881,526.9248,606.7881" style="stroke:#181818;stroke-width:0.5;"/><text fill="#000000" font-family="sans-serif" font-size="12" lengthAdjust="spacing" textLength="199.9043" x="536.9248" y="593.958">Save the refactored project to S3</text><polygon fill="#FAFAD2" points="534.1387,626.7881,749.6152,626.7881,739.6152,660.7568,524.1387,660.7568" style="stroke:#181818;stroke-width:0.5;"/><text fill="#000000" font-family="sans-serif" font-size="12" lengthAdjust="spacing" textLength="205.4766" x="534.1387" y="647.9268">Update the project status on redis</text><rect fill="#FAFAD2" height="33.9688" rx="12.5" ry="12.5" style="stroke:#181818;stroke-width:0.5;" width="197.7441" x="538.0049" y="680.7568"/><text fill="#000000" font-family="sans-serif" font-size="12" lengthAdjust="spacing" textLength="177.7441" x="548.0049" y="701.8955">Sends project id to the queue</text><polygon fill="#FAFAD2" points="592.321,470.4482,681.4329,470.4482,693.4329,482.4482,681.4329,494.4482,592.321,494.4482,580.321,482.4482,592.321,470.4482" style="stroke:#181818;stroke-width:0.5;"/><text fill="#000000" font-family="sans-serif" font-size="11" lengthAdjust="spacing" textLength="19.0083" x="640.877" y="504.6587">yes</text><text fill="#000000" font-family="sans-serif" font-size="11" lengthAdjust="spacing" textLength="89.1118" x="592.321" y="486.2563">has candidates?</text><text fill="#000000" font-family="sans-serif" font-size="11" lengthAdjust="spacing" textLength="13.7017" x="693.4329" y="479.854">no</text><ellipse cx="729.1345" cy="482.4482" fill="none" rx="11" ry="11" style="stroke:#222222;stroke-width:1.0;"/><ellipse cx="729.1345" cy="482.4482" fill="#222222" rx="6" ry="6" style="stroke:#222222;stroke-width:1.0;"/><line style="stroke:#000000;stroke-width:1.5;" x1="498.1777" x2="498.1777" y1="12.7451" y2="1422.6592"/><rect fill="#FAFAD2" height="47.9375" rx="12.5" ry="12.5" style="stroke:#181818;stroke-width:0.5;" width="205.6953" x="787.6143" y="734.7256"/><text fill="#000000" font-family="sans-serif" font-size="12" lengthAdjust="spacing" textLength="185.6953" x="797.6143" y="755.8643">Retrive the project information</text><text fill="#000000" font-family="sans-serif" font-size="12" lengthAdjust="spacing" textLength="144.4805" x="801.4287" y="769.833">from the redis database</text><rect fill="#FAFAD2" height="47.9375" rx="12.5" ry="12.5" style="stroke:#181818;stroke-width:0.5;" width="215.3633" x="782.7803" y="802.6631"/><text fill="#000000" font-family="sans-serif" font-size="12" lengthAdjust="spacing" textLength="171.4395" x="792.7803" y="823.8018">Retrieve both the refactored</text><text fill="#000000" font-family="sans-serif" font-size="12" lengthAdjust="spacing" textLength="191.5488" x="796.5947" y="837.7705">and the original project from S3</text><rect fill="#C2F0FF" height="33.9688" style="stroke:#181818;stroke-width:0.5;" width="128.5684" x="826.1777" y="870.6006"/><text fill="#000000" font-family="sans-serif" font-size="12" lengthAdjust="spacing" textLength="108.5684" x="836.1777" y="891.7393">Calculate  metrics</text><rect fill="#C2F0FF" height="33.9688" style="stroke:#181818;stroke-width:0.5;" width="178.6133" x="801.1553" y="924.5693"/><text fill="#000000" font-family="sans-serif" font-size="12" lengthAdjust="spacing" textLength="158.6133" x="811.1553" y="945.708">Calculate quality attribues</text><polygon fill="#FAFAD2" points="800.5762,978.5381,990.3477,978.5381,980.3477,1026.4756,790.5762,1026.4756" style="stroke:#181818;stroke-width:0.5;"/><text fill="#000000" font-family="sans-serif" font-size="12" lengthAdjust="spacing" textLength="179.7715" x="800.5762" y="999.6768">Update the project status and</text><text fill="#000000" font-family="sans-serif" font-size="12" lengthAdjust="spacing" textLength="144" x="804.3906" y="1013.6455">add the metrics to redis</text><ellipse cx="890.4619" cy="1057.4756" fill="none" rx="11" ry="11" style="stroke:#222222;stroke-width:1.0;"/><ellipse cx="890.4619" cy="1057.4756" fill="#222222" rx="6" ry="6" style="stroke:#222222;stroke-width:1.0;"/><line style="stroke:#000000;stroke-width:1.5;" x1="775.5762" x2="775.5762" y1="12.7451" y2="1422.6592"/><line style="stroke:#000000;stroke-width:1.5;" x1="1005.3477" x2="1005.3477" y1="12.7451" y2="1422.6592"/><line style="stroke:#181818;stroke-width:1.0;" x1="122.9219" x2="122.9219" y1="58.6982" y2="78.6982"/><polygon fill="#181818" points="118.9219,68.6982,122.9219,78.6982,126.9219,68.6982,122.9219,72.6982" style="stroke:#181818;stroke-width:1.0;"/><line style="stroke:#181818;stroke-width:1.0;" x1="122.9219" x2="122.9219" y1="1098.4756" y2="1118.4756"/><polygon fill="#181818" points="118.9219,1108.4756,122.9219,1118.4756,126.9219,1108.4756,122.9219,1112.4756" style="stroke:#181818;stroke-width:1.0;"/><line style="stroke:#181818;stroke-width:1.0;" x1="122.9219" x2="122.9219" y1="1356.2568" y2="1376.2568"/><polygon fill="#181818" points="118.9219,1366.2568,122.9219,1376.2568,126.9219,1366.2568,122.9219,1370.2568" style="stroke:#181818;stroke-width:1.0;"/><line style="stroke:#181818;stroke-width:1.0;" x1="369.5107" x2="369.5107" y1="166.6357" y2="186.6357"/><polygon fill="#181818" points="365.5107,176.6357,369.5107,186.6357,373.5107,176.6357,369.5107,180.6357" style="stroke:#181818;stroke-width:1.0;"/><line style="stroke:#181818;stroke-width:1.0;" x1="369.5107" x2="369.5107" y1="220.6045" y2="240.6045"/><polygon fill="#181818" points="365.5107,230.6045,369.5107,240.6045,373.5107,230.6045,369.5107,234.6045" style="stroke:#181818;stroke-width:1.0;"/><line style="stroke:#181818;stroke-width:1.0;" x1="369.5107" x2="369.5107" y1="1220.3818" y2="1240.3818"/><polygon fill="#181818" points="365.5107,1230.3818,369.5107,1240.3818,373.5107,1230.3818,369.5107,1234.3818" style="stroke:#181818;stroke-width:1.0;"/><line style="stroke:#181818;stroke-width:1.0;" x1="636.877" x2="636.877" y1="342.5107" y2="362.5107"/><polygon fill="#181818" points="632.877,352.5107,636.877,362.5107,640.877,352.5107,636.877,356.5107" style="stroke:#181818;stroke-width:1.0;"/><line style="stroke:#181818;stroke-width:1.0;" x1="636.877" x2="636.877" y1="396.4795" y2="416.4795"/><polygon fill="#181818" points="632.877,406.4795,636.877,416.4795,640.877,406.4795,636.877,410.4795" style="stroke:#181818;stroke-width:1.0;"/><line style="stroke:#181818;stroke-width:1.0;" x1="636.877" x2="636.877" y1="552.8193" y2="572.8193"/><polygon fill="#181818" points="632.877,562.8193,636.877,572.8193,640.877,562.8193,636.877,566.8193" style="stroke:#181818;stroke-width:1.0;"/><line style="stroke:#181818;stroke-width:1.0;" x1="636.877" x2="636.877" y1="606.7881" y2="626.7881"/><polygon fill="#181818" points="632.877,616.7881,636.877,626.7881,640.877,616.7881,636.877,620.7881" style="stroke:#181818;stroke-width:1.0;"/><line style="stroke:#181818;stroke-width:1.0;" x1="636.877" x2="636.877" y1="660.7568" y2="680.7568"/><polygon fill="#181818" points="632.877,670.7568,636.877,680.7568,640.877,670.7568,636.877,674.7568" style="stroke:#181818;stroke-width:1.0;"/><line style="stroke:#181818;stroke-width:1.0;" x1="636.877" x2="636.877" y1="494.4482" y2="518.8506"/><polygon fill="#181818" points="632.877,508.8506,636.877,518.8506,640.877,508.8506,636.877,512.8506" style="stroke:#181818;stroke-width:1.0;"/><line style="stroke:#181818;stroke-width:1.0;" x1="693.4329" x2="718.1345" y1="482.4482" y2="482.4482"/><polygon fill="#181818" points="708.1345,478.4482,718.1345,482.4482,708.1345,486.4482,712.1345,482.4482" style="stroke:#181818;stroke-width:1.0;"/><line style="stroke:#181818;stroke-width:1.0;" x1="636.877" x2="636.877" y1="450.4482" y2="470.4482"/><polygon fill="#181818" points="632.877,460.4482,636.877,470.4482,640.877,460.4482,636.877,464.4482" style="stroke:#181818;stroke-width:1.0;"/><line style="stroke:#181818;stroke-width:1.0;" x1="890.4619" x2="890.4619" y1="782.6631" y2="802.6631"/><polygon fill="#181818" points="886.4619,792.6631,890.4619,802.6631,894.4619,792.6631,890.4619,796.6631" style="stroke:#181818;stroke-width:1.0;"/><line style="stroke:#181818;stroke-width:1.0;" x1="890.4619" x2="890.4619" y1="850.6006" y2="870.6006"/><polygon fill="#181818" points="886.4619,860.6006,890.4619,870.6006,894.4619,860.6006,890.4619,864.6006" style="stroke:#181818;stroke-width:1.0;"/><line style="stroke:#181818;stroke-width:1.0;" x1="890.4619" x2="890.4619" y1="904.5693" y2="924.5693"/><polygon fill="#181818" points="886.4619,914.5693,890.4619,924.5693,894.4619,914.5693,890.4619,918.5693" style="stroke:#181818;stroke-width:1.0;"/><line style="stroke:#181818;stroke-width:1.0;" x1="890.4619" x2="890.4619" y1="958.5381" y2="978.5381"/><polygon fill="#181818" points="886.4619,968.5381,890.4619,978.5381,894.4619,968.5381,890.4619,972.5381" style="stroke:#181818;stroke-width:1.0;"/><line style="stroke:#181818;stroke-width:1.0;" x1="890.4619" x2="890.4619" y1="1026.4756" y2="1046.4756"/><polygon fill="#181818" points="886.4619,1036.4756,890.4619,1046.4756,894.4619,1036.4756,890.4619,1040.4756" style="stroke:#181818;stroke-width:1.0;"/><line style="stroke:#181818;stroke-width:1.0;" x1="122.9219" x2="122.9219" y1="112.667" y2="117.667"/><line style="stroke:#181818;stroke-width:1.0;" x1="122.9219" x2="369.5107" y1="117.667" y2="117.667"/><line style="stroke:#181818;stroke-width:1.0;" x1="369.5107" x2="369.5107" y1="117.667" y2="132.667"/><polygon fill="#181818" points="365.5107,122.667,369.5107,132.667,373.5107,122.667,369.5107,126.667" style="stroke:#181818;stroke-width:1.0;"/><line style="stroke:#181818;stroke-width:1.0;" x1="369.5107" x2="369.5107" y1="274.5732" y2="279.5732"/><line style="stroke:#181818;stroke-width:1.0;" x1="369.5107" x2="636.877" y1="279.5732" y2="279.5732"/><line style="stroke:#181818;stroke-width:1.0;" x1="636.877" x2="636.877" y1="279.5732" y2="294.5732"/><polygon fill="#181818" points="632.877,284.5732,636.877,294.5732,640.877,284.5732,636.877,288.5732" style="stroke:#181818;stroke-width:1.0;"/><line style="stroke:#181818;stroke-width:1.0;" x1="636.877" x2="636.877" y1="714.7256" y2="719.7256"/><line style="stroke:#181818;stroke-width:1.0;" x1="636.877" x2="890.4619" y1="719.7256" y2="719.7256"/><line style="stroke:#181818;stroke-width:1.0;" x1="890.4619" x2="890.4619" y1="719.7256" y2="734.7256"/><polygon fill="#181818" points="886.4619,724.7256,890.4619,734.7256,894.4619,724.7256,890.4619,728.7256" style="stroke:#181818;stroke-width:1.0;"/><line style="stroke:#181818;stroke-width:1.0;" x1="122.9219" x2="122.9219" y1="1152.4443" y2="1157.4443"/><line style="stroke:#181818;stroke-width:1.0;" x1="122.9219" x2="369.5107" y1="1157.4443" y2="1157.4443"/><line style="stroke:#181818;stroke-width:1.0;" x1="369.5107" x2="369.5107" y1="1157.4443" y2="1172.4443"/><polygon fill="#181818" points="365.5107,1162.4443,369.5107,1172.4443,373.5107,1162.4443,369.5107,1166.4443" style="stroke:#181818;stroke-width:1.0;"/><line style="stroke:#181818;stroke-width:1.0;" x1="369.5107" x2="369.5107" y1="1288.3193" y2="1293.3193"/><line style="stroke:#181818;stroke-width:1.0;" x1="369.5107" x2="122.9219" y1="1293.3193" y2="1293.3193"/><line style="stroke:#181818;stroke-width:1.0;" x1="122.9219" x2="122.9219" y1="1293.3193" y2="1308.3193"/><polygon fill="#181818" points="118.9219,1298.3193,122.9219,1308.3193,126.9219,1298.3193,122.9219,1302.3193" style="stroke:#181818;stroke-width:1.0;"/><text fill="#000000" font-family="sans-serif" font-size="18" font-weight="bold" lengthAdjust="spacing" textLength="59.1768" x="98.3335" y="29.4531">Client</text><text fill="#000000" font-family="sans-serif" font-size="18" font-weight="bold" lengthAdjust="spacing" textLength="171.1143" x="283.9536" y="29.4531">Project Sync BFF</text><text fill="#000000" font-family="sans-serif" font-size="18" font-weight="bold" lengthAdjust="spacing" textLength="267.3984" x="503.1777" y="29.4531">Detection and Refactoring</text><text fill="#000000" font-family="sans-serif" font-size="18" font-weight="bold" lengthAdjust="spacing" textLength="194.7041" x="793.1099" y="29.4531">Metrics Calculation</text><!--SRC=[fPC_Rzim4CLtVee3kjXUCdYpZHIDWsm5YWZPae4Mpn8RcbHuL1AbwNVlaQByHx6dZYJUktltEt95eJDuBMGPzAiE7VmH03UoVAwyQwrQE-Cy65tLeN96eVLETMYCUnD_XN9bkqCRakUBwQtM0LcrkiejnETijZQQ3RFPfw0WVH2B1q8FRMESLD1uznlBGAia_TMVeEXi2JTtTz6qAEGh3Ze83aADu55f0YM3t4Z2gv7eGpU3i9W31UTbbKHe5UrLMaNHIujj3dgBWU-rio2jWdlSCY3djQrIZ7iCNdEJM7LVmcwTtydeURImzMutJaUup5OSURVQO6yfvalnJJQDqMKgnJcbBsiauEfSR9y3IWwckIxIaz1RcDIIZkw-Ju7RJgoRnaQMSRj623I4amvfUjfZ62zbEgxRe-p7w2MeZl4NSoRvq4JroJoytD0ICBqq_WNSqP6GBnFodv5CIR2MfcnDIlOViEKfxOqBzMYGntwtyPA9LjfASrZ8sLqCoH1WruTzkYHuQQM9tqa6rctQ1FCoACuHqwW-JQuT4MLy_VRE_PyVz4p0wpyUBRwEYC7PJFRiLpg3bJDai3guZ3Kbw4cstexxiEFmNXBE77uvYhkurTGOsHtUmC6N5p6CpTFWkoOTw3eD_Wy0]--></g></svg>