<svg xmlns="http://www.w3.org/2000/svg" xmlns:xlink="http://www.w3.org/1999/xlink" contentStyleType="text/css" height="1394px" preserveAspectRatio="none" style="width:1039px;height:1394px;background:#FFFFFF;" version="1.1" viewBox="0 0 1039 1394" width="1039px" zoomAndPan="magnify"><defs/><g><rect fill="none" height="20.9531" style="stroke:none;stroke-width:1.0;" width="1006.7358" x="15" y="12.7451"/><ellipse cx="122.9219" cy="48.6982" fill="#222222" rx="10" ry="10" style="stroke:#222222;stroke-width:1.0;"/><polygon fill="#FAFAD2" points="50.915,78.6982,204.9287,78.6982,194.9287,95.6826,204.9287,112.667,50.915,112.667" style="stroke:#181818;stroke-width:0.5;"/><text fill="#000000" font-family="sans-serif" font-size="12" lengthAdjust="spacing" textLength="124.0137" x="60.915" y="99.8369">User upload projects</text><ellipse cx="122.9219" cy="1048.4756" fill="#222222" rx="10" ry="10" style="stroke:#222222;stroke-width:1.0;"/><rect fill="#FAFAD2" height="33.9688" rx="12.5" ry="12.5" style="stroke:#181818;stroke-width:0.5;" width="199.5488" x="23.1475" y="1078.4756"/><text fill="#000000" font-family="sans-serif" font-size="12" lengthAdjust="spacing" textLength="179.5488" x="33.1475" y="1099.6143">Asks if the refactoring is done</text><polygon fill="#FAFAD2" points="30,1268.3193,215.8438,1268.3193,225.8438,1292.2881,215.8438,1316.2568,30,1316.2568" style="stroke:#181818;stroke-width:0.5;"/><text fill="#000000" font-family="sans-serif" font-size="12" lengthAdjust="spacing" textLength="165.8438" x="40" y="1289.458">Displays project candidates</text><text fill="#000000" font-family="sans-serif" font-size="12" lengthAdjust="spacing" textLength="124.834" x="43.8145" y="1303.4268">and metrics if exisits</text><ellipse cx="122.9219" cy="1347.2568" fill="none" rx="11" ry="11" style="stroke:#222222;stroke-width:1.0;"/><ellipse cx="122.9219" cy="1347.2568" fill="#222222" rx="6" ry="6" style="stroke:#222222;stroke-width:1.0;"/><line style="stroke:#000000;stroke-width:1.5;" x1="15" x2="15" y1="12.7451" y2="1382.6592"/><polygon fill="#FAFAD2" points="265.8438,132.667,483.1777,132.667,473.1777,166.6357,255.8438,166.6357" style="stroke:#181818;stroke-width:0.5;"/><text fill="#000000" font-family="sans-serif" font-size="12" lengthAdjust="spacing" textLength="207.334" x="265.8438" y="153.8057">Save project to the redis database</text><polygon fill="#FAFAD2" points="267.4697,186.6357,481.5518,186.6357,471.5518,220.6045,257.4697,220.6045" style="stroke:#181818;stroke-width:0.5;"/><text fill="#000000" font-family="sans-serif" font-size="12" lengthAdjust="spacing" textLength="204.082" x="267.4697" y="207.7744">Save project zip to the S3 storage</text><polygon fill="#FAFAD2" points="282.3926,240.6045,456.6289,240.6045,466.6289,257.5889,456.6289,274.5732,282.3926,274.5732" style="stroke:#181818;stroke-width:0.5;"/><text fill="#000000" font-family="sans-serif" font-size="12" lengthAdjust="spacing" textLength="154.2363" x="292.3926" y="261.7432">Sends project id to queue</text><rect fill="#FAFAD2" height="47.9375" rx="12.5" ry="12.5" style="stroke:#181818;stroke-width:0.5;" width="158.6211" x="290.2002" y="1132.4443"/><text fill="#000000" font-family="sans-serif" font-size="12" lengthAdjust="spacing" textLength="112.4121" x="300.2002" y="1153.583">Retrive the project</text><text fill="#000000" font-family="sans-serif" font-size="12" lengthAdjust="spacing" textLength="134.8066" x="304.0146" y="1167.5518">informaiton from redis</text><rect fill="#FAFAD2" height="47.9375" rx="12.5" ry="12.5" style="stroke:#181818;stroke-width:0.5;" width="164.7324" x="287.1445" y="1200.3818"/><text fill="#000000" font-family="sans-serif" font-size="12" lengthAdjust="spacing" textLength="133.9219" x="297.1445" y="1221.5205">Return the refactoring</text><text fill="#000000" font-family="sans-serif" font-size="12" lengthAdjust="spacing" textLength="140.918" x="300.959" y="1235.4893">candidates and metrics</text><line style="stroke:#000000;stroke-width:1.5;" x1="240.8438" x2="240.8438" y1="12.7451" y2="1382.6592"/><rect fill="#FAFAD2" height="47.9375" rx="12.5" ry="12.5" style="stroke:#181818;stroke-width:0.5;" width="205.6953" x="542.293" y="294.5732"/><text fill="#000000" font-family="sans-serif" font-size="12" lengthAdjust="spacing" textLength="185.6953" x="552.293" y="315.7119">Retrive the project information</text><text fill="#000000" font-family="sans-serif" font-size="12" lengthAdjust="spacing" textLength="137.127" x="556.1074" y="329.6807">from the redis databse</text><rect fill="#FAFAD2" height="33.9688" rx="12.5" ry="12.5" style="stroke:#181818;stroke-width:0.5;" width="212.9551" x="538.6631" y="362.5107"/><text fill="#000000" font-family="sans-serif" font-size="12" lengthAdjust="spacing" textLength="192.9551" x="548.6631" y="383.6494">Retrieve the project file from S3</text><rect fill="#FAFAD2" height="33.9688" style="stroke:#181818;stroke-width:0.5;" width="281.9258" x="504.1777" y="416.4795"/><text fill="#000000" font-family="sans-serif" font-size="12" lengthAdjust="spacing" textLength="261.9258" x="514.1777" y="437.6182">Analyse code to find refactoring candidates</text><rect fill="#FAFAD2" height="33.9688" style="stroke:#181818;stroke-width:0.5;" width="164.0176" x="563.1318" y="518.8506"/><text fill="#000000" font-family="sans-serif" font-size="12" lengthAdjust="spacing" textLength="144.0176" x="573.1318" y="539.9893">Refactor the candidates</text><polygon fill="#FAFAD2" points="545.1885,572.8193,755.0928,572.8193,745.0928,606.7881,535.1885,606.7881" style="stroke:#181818;stroke-width:0.5;"/><text fill="#000000" font-family="sans-serif" font-size="12" lengthAdjust="spacing" textLength="199.9043" x="545.1885" y="593.958">Save the refactored project to S3</text><polygon fill="#FAFAD2" points="542.4023,626.7881,757.8789,626.7881,747.8789,660.7568,532.4023,660.7568" style="stroke:#181818;stroke-width:0.5;"/><text fill="#000000" font-family="sans-serif" font-size="12" lengthAdjust="spacing" textLength="205.4766" x="542.4023" y="647.9268">Update the project status on redis</text><rect fill="#FAFAD2" height="33.9688" rx="12.5" ry="12.5" style="stroke:#181818;stroke-width:0.5;" width="197.7441" x="546.2686" y="680.7568"/><text fill="#000000" font-family="sans-serif" font-size="12" lengthAdjust="spacing" textLength="177.7441" x="556.2686" y="701.8955">Sends project id to the queue</text><polygon fill="#FAFAD2" points="600.5847,470.4482,689.6965,470.4482,701.6965,482.4482,689.6965,494.4482,600.5847,494.4482,588.5847,482.4482,600.5847,470.4482" style="stroke:#181818;stroke-width:0.5;"/><text fill="#000000" font-family="sans-serif" font-size="11" lengthAdjust="spacing" textLength="19.0083" x="649.1406" y="504.6587">yes</text><text fill="#000000" font-family="sans-serif" font-size="11" lengthAdjust="spacing" textLength="89.1118" x="600.5847" y="486.2563">has candidates?</text><text fill="#000000" font-family="sans-serif" font-size="11" lengthAdjust="spacing" textLength="13.7017" x="701.6965" y="479.854">no</text><ellipse cx="737.3982" cy="482.4482" fill="none" rx="11" ry="11" style="stroke:#222222;stroke-width:1.0;"/><ellipse cx="737.3982" cy="482.4482" fill="#222222" rx="6" ry="6" style="stroke:#222222;stroke-width:1.0;"/><line style="stroke:#000000;stroke-width:1.5;" x1="498.1777" x2="498.1777" y1="12.7451" y2="1382.6592"/><rect fill="#FAFAD2" height="47.9375" rx="12.5" ry="12.5" style="stroke:#181818;stroke-width:0.5;" width="205.6953" x="802.1416" y="734.7256"/><text fill="#000000" font-family="sans-serif" font-size="12" lengthAdjust="spacing" textLength="185.6953" x="812.1416" y="755.8643">Retrive the project information</text><text fill="#000000" font-family="sans-serif" font-size="12" lengthAdjust="spacing" textLength="144.4805" x="815.9561" y="769.833">from the redis database</text><rect fill="#FAFAD2" height="47.9375" rx="12.5" ry="12.5" style="stroke:#181818;stroke-width:0.5;" width="215.3633" x="797.3076" y="802.6631"/><text fill="#000000" font-family="sans-serif" font-size="12" lengthAdjust="spacing" textLength="171.4395" x="807.3076" y="823.8018">Retrieve both the refactored</text><text fill="#000000" font-family="sans-serif" font-size="12" lengthAdjust="spacing" textLength="191.5488" x="811.1221" y="837.7705">and the original project from S3</text><rect fill="#FAFAD2" height="47.9375" style="stroke:#181818;stroke-width:0.5;" width="174.6523" x="817.6631" y="870.6006"/><text fill="#000000" font-family="sans-serif" font-size="12" lengthAdjust="spacing" textLength="154.6523" x="827.6631" y="891.7393">Calculate the metrics and</text><text fill="#000000" font-family="sans-serif" font-size="12" lengthAdjust="spacing" textLength="98.7539" x="831.4775" y="905.708">quality attribues</text><polygon fill="#FAFAD2" points="815.1035,938.5381,1004.875,938.5381,994.875,986.4756,805.1035,986.4756" style="stroke:#181818;stroke-width:0.5;"/><text fill="#000000" font-family="sans-serif" font-size="12" lengthAdjust="spacing" textLength="179.7715" x="815.1035" y="959.6768">Update the project status and</text><text fill="#000000" font-family="sans-serif" font-size="12" lengthAdjust="spacing" textLength="144" x="818.918" y="973.6455">add the metrics to redis</text><ellipse cx="904.9893" cy="1017.4756" fill="none" rx="11" ry="11" style="stroke:#222222;stroke-width:1.0;"/><ellipse cx="904.9893" cy="1017.4756" fill="#222222" rx="6" ry="6" style="stroke:#222222;stroke-width:1.0;"/><line style="stroke:#000000;stroke-width:1.5;" x1="790.1035" x2="790.1035" y1="12.7451" y2="1382.6592"/><line style="stroke:#000000;stroke-width:1.5;" x1="1019.875" x2="1019.875" y1="12.7451" y2="1382.6592"/><line style="stroke:#181818;stroke-width:1.0;" x1="122.9219" x2="122.9219" y1="58.6982" y2="78.6982"/><polygon fill="#181818" points="118.9219,68.6982,122.9219,78.6982,126.9219,68.6982,122.9219,72.6982" style="stroke:#181818;stroke-width:1.0;"/><line style="stroke:#181818;stroke-width:1.0;" x1="122.9219" x2="122.9219" y1="1058.4756" y2="1078.4756"/><polygon fill="#181818" points="118.9219,1068.4756,122.9219,1078.4756,126.9219,1068.4756,122.9219,1072.4756" style="stroke:#181818;stroke-width:1.0;"/><line style="stroke:#181818;stroke-width:1.0;" x1="122.9219" x2="122.9219" y1="1316.2568" y2="1336.2568"/><polygon fill="#181818" points="118.9219,1326.2568,122.9219,1336.2568,126.9219,1326.2568,122.9219,1330.2568" style="stroke:#181818;stroke-width:1.0;"/><line style="stroke:#181818;stroke-width:1.0;" x1="369.5107" x2="369.5107" y1="166.6357" y2="186.6357"/><polygon fill="#181818" points="365.5107,176.6357,369.5107,186.6357,373.5107,176.6357,369.5107,180.6357" style="stroke:#181818;stroke-width:1.0;"/><line style="stroke:#181818;stroke-width:1.0;" x1="369.5107" x2="369.5107" y1="220.6045" y2="240.6045"/><polygon fill="#181818" points="365.5107,230.6045,369.5107,240.6045,373.5107,230.6045,369.5107,234.6045" style="stroke:#181818;stroke-width:1.0;"/><line style="stroke:#181818;stroke-width:1.0;" x1="369.5107" x2="369.5107" y1="1180.3818" y2="1200.3818"/><polygon fill="#181818" points="365.5107,1190.3818,369.5107,1200.3818,373.5107,1190.3818,369.5107,1194.3818" style="stroke:#181818;stroke-width:1.0;"/><line style="stroke:#181818;stroke-width:1.0;" x1="645.1406" x2="645.1406" y1="342.5107" y2="362.5107"/><polygon fill="#181818" points="641.1406,352.5107,645.1406,362.5107,649.1406,352.5107,645.1406,356.5107" style="stroke:#181818;stroke-width:1.0;"/><line style="stroke:#181818;stroke-width:1.0;" x1="645.1406" x2="645.1406" y1="396.4795" y2="416.4795"/><polygon fill="#181818" points="641.1406,406.4795,645.1406,416.4795,649.1406,406.4795,645.1406,410.4795" style="stroke:#181818;stroke-width:1.0;"/><line style="stroke:#181818;stroke-width:1.0;" x1="645.1406" x2="645.1406" y1="552.8193" y2="572.8193"/><polygon fill="#181818" points="641.1406,562.8193,645.1406,572.8193,649.1406,562.8193,645.1406,566.8193" style="stroke:#181818;stroke-width:1.0;"/><line style="stroke:#181818;stroke-width:1.0;" x1="645.1406" x2="645.1406" y1="606.7881" y2="626.7881"/><polygon fill="#181818" points="641.1406,616.7881,645.1406,626.7881,649.1406,616.7881,645.1406,620.7881" style="stroke:#181818;stroke-width:1.0;"/><line style="stroke:#181818;stroke-width:1.0;" x1="645.1406" x2="645.1406" y1="660.7568" y2="680.7568"/><polygon fill="#181818" points="641.1406,670.7568,645.1406,680.7568,649.1406,670.7568,645.1406,674.7568" style="stroke:#181818;stroke-width:1.0;"/><line style="stroke:#181818;stroke-width:1.0;" x1="645.1406" x2="645.1406" y1="494.4482" y2="518.8506"/><polygon fill="#181818" points="641.1406,508.8506,645.1406,518.8506,649.1406,508.8506,645.1406,512.8506" style="stroke:#181818;stroke-width:1.0;"/><line style="stroke:#181818;stroke-width:1.0;" x1="701.6965" x2="726.3982" y1="482.4482" y2="482.4482"/><polygon fill="#181818" points="716.3982,478.4482,726.3982,482.4482,716.3982,486.4482,720.3982,482.4482" style="stroke:#181818;stroke-width:1.0;"/><line style="stroke:#181818;stroke-width:1.0;" x1="645.1406" x2="645.1406" y1="450.4482" y2="470.4482"/><polygon fill="#181818" points="641.1406,460.4482,645.1406,470.4482,649.1406,460.4482,645.1406,464.4482" style="stroke:#181818;stroke-width:1.0;"/><line style="stroke:#181818;stroke-width:1.0;" x1="904.9893" x2="904.9893" y1="782.6631" y2="802.6631"/><polygon fill="#181818" points="900.9893,792.6631,904.9893,802.6631,908.9893,792.6631,904.9893,796.6631" style="stroke:#181818;stroke-width:1.0;"/><line style="stroke:#181818;stroke-width:1.0;" x1="904.9893" x2="904.9893" y1="850.6006" y2="870.6006"/><polygon fill="#181818" points="900.9893,860.6006,904.9893,870.6006,908.9893,860.6006,904.9893,864.6006" style="stroke:#181818;stroke-width:1.0;"/><line style="stroke:#181818;stroke-width:1.0;" x1="904.9893" x2="904.9893" y1="918.5381" y2="938.5381"/><polygon fill="#181818" points="900.9893,928.5381,904.9893,938.5381,908.9893,928.5381,904.9893,932.5381" style="stroke:#181818;stroke-width:1.0;"/><line style="stroke:#181818;stroke-width:1.0;" x1="904.9893" x2="904.9893" y1="986.4756" y2="1006.4756"/><polygon fill="#181818" points="900.9893,996.4756,904.9893,1006.4756,908.9893,996.4756,904.9893,1000.4756" style="stroke:#181818;stroke-width:1.0;"/><line style="stroke:#181818;stroke-width:1.0;" x1="122.9219" x2="122.9219" y1="112.667" y2="117.667"/><line style="stroke:#181818;stroke-width:1.0;" x1="122.9219" x2="369.5107" y1="117.667" y2="117.667"/><line style="stroke:#181818;stroke-width:1.0;" x1="369.5107" x2="369.5107" y1="117.667" y2="132.667"/><polygon fill="#181818" points="365.5107,122.667,369.5107,132.667,373.5107,122.667,369.5107,126.667" style="stroke:#181818;stroke-width:1.0;"/><line style="stroke:#181818;stroke-width:1.0;" x1="369.5107" x2="369.5107" y1="274.5732" y2="279.5732"/><line style="stroke:#181818;stroke-width:1.0;" x1="369.5107" x2="645.1406" y1="279.5732" y2="279.5732"/><line style="stroke:#181818;stroke-width:1.0;" x1="645.1406" x2="645.1406" y1="279.5732" y2="294.5732"/><polygon fill="#181818" points="641.1406,284.5732,645.1406,294.5732,649.1406,284.5732,645.1406,288.5732" style="stroke:#181818;stroke-width:1.0;"/><line style="stroke:#181818;stroke-width:1.0;" x1="645.1406" x2="645.1406" y1="714.7256" y2="719.7256"/><line style="stroke:#181818;stroke-width:1.0;" x1="645.1406" x2="904.9893" y1="719.7256" y2="719.7256"/><line style="stroke:#181818;stroke-width:1.0;" x1="904.9893" x2="904.9893" y1="719.7256" y2="734.7256"/><polygon fill="#181818" points="900.9893,724.7256,904.9893,734.7256,908.9893,724.7256,904.9893,728.7256" style="stroke:#181818;stroke-width:1.0;"/><line style="stroke:#181818;stroke-width:1.0;" x1="122.9219" x2="122.9219" y1="1112.4443" y2="1117.4443"/><line style="stroke:#181818;stroke-width:1.0;" x1="122.9219" x2="369.5107" y1="1117.4443" y2="1117.4443"/><line style="stroke:#181818;stroke-width:1.0;" x1="369.5107" x2="369.5107" y1="1117.4443" y2="1132.4443"/><polygon fill="#181818" points="365.5107,1122.4443,369.5107,1132.4443,373.5107,1122.4443,369.5107,1126.4443" style="stroke:#181818;stroke-width:1.0;"/><line style="stroke:#181818;stroke-width:1.0;" x1="369.5107" x2="369.5107" y1="1248.3193" y2="1253.3193"/><line style="stroke:#181818;stroke-width:1.0;" x1="369.5107" x2="122.9219" y1="1253.3193" y2="1253.3193"/><line style="stroke:#181818;stroke-width:1.0;" x1="122.9219" x2="122.9219" y1="1253.3193" y2="1268.3193"/><polygon fill="#181818" points="118.9219,1258.3193,122.9219,1268.3193,126.9219,1258.3193,122.9219,1262.3193" style="stroke:#181818;stroke-width:1.0;"/><text fill="#000000" font-family="sans-serif" font-size="18" font-weight="bold" lengthAdjust="spacing" textLength="59.1768" x="98.3335" y="29.4531">Client</text><text fill="#000000" font-family="sans-serif" font-size="18" font-weight="bold" lengthAdjust="spacing" textLength="171.1143" x="283.9536" y="29.4531">Project Sync BFF</text><text fill="#000000" font-family="sans-serif" font-size="18" font-weight="bold" lengthAdjust="spacing" textLength="267.3984" x="510.4414" y="29.4531">Detection and Refactoring</text><text fill="#000000" font-family="sans-serif" font-size="18" font-weight="bold" lengthAdjust="spacing" textLength="194.7041" x="807.6372" y="29.4531">Metrics Calculation</text><!--SRC=[fPC_Szim3CLtVGgCjfSCtcnVUebpsNgNYovREj0Y9BEX2OMWagXDltj1KlwdEbD7uTu37duGLnnwYzU5ge9vCw67tmN0hQfU6a-TqskovC6QPXiQiXgT9zsZjVHU_2aqLTqENKYUVqplMnDGLAkhOKJnEPkjhH73RFPPS50-58idHWzTQqbfQ3tzn2hmAaaVyXUKlQlWzlu-cXQbUiEz3W91s29ur8P1gw0sYl5g9Ffbshsmd0C7ygf98dIQ3ogZe-Yrmsu8UeT1weOSAAVX4Mi1HDwu9iLunE2D38bT3orSJNwdekVPGUrfDqx7k1oiEFBMncAsb7FHt3XbUqQeI6FCLHl9u8yPe99GHdeY_oXC3PEjufFQjod8o8cZQHpY13MrHO6MST8ZJsE6t2fbEEsLqUNOMOBw57Sv5t9FRLIVvPTZXev1QALrly0R7GdnCY7-7abK36jbgyucSFy1LvtJtL3OZXPvphUCHQ7O685yFC21_JvDdhyRCefHxA-Til6Dg23LJPU8VKqZUvJMPvs4my0ed-NIexZX5mQvwsd-UFQuAxa1tyNtSO6TP1ZecK03kvGWu-gy6yyHn_6dICo6yCjHtCMTuTQg_dZees-WlLzRji4FmoRmTLhyBm00]--></g></svg>