<svg xmlns="http://www.w3.org/2000/svg" xmlns:xlink="http://www.w3.org/1999/xlink" contentStyleType="text/css" height="351px" preserveAspectRatio="none" style="width:701px;height:351px;background:#FFFFFF;" version="1.1" viewBox="0 0 701 351" width="701px" zoomAndPan="magnify"><defs/><g><!--cluster refactor--><g id="cluster_refactor"><path d="M239.07,135.65 L303.5212,135.65 A3.75,3.75 0 0 1 306.0212,138.15 L313.0212,157.9469 L691.51,157.9469 A2.5,2.5 0 0 1 694.01,160.4469 L694.01,342.15 A2.5,2.5 0 0 1 691.51,344.65 L239.07,344.65 A2.5,2.5 0 0 1 236.57,342.15 L236.57,138.15 A2.5,2.5 0 0 1 239.07,135.65 " fill="#FFE4B5" style="stroke:#000000;stroke-width:1.5;"/><line style="stroke:#000000;stroke-width:1.5;" x1="236.57" x2="313.0212" y1="157.9469" y2="157.9469"/><text fill="#000000" font-family="sans-serif" font-size="14" font-weight="bold" lengthAdjust="spacing" textLength="63.4512" x="240.57" y="150.6451">refactor</text></g><!--cluster dataExtraction--><g id="cluster_dataExtraction"><path d="M533.04,186.65 L650.6611,186.65 A3.75,3.75 0 0 1 653.1611,189.15 L660.1611,208.9469 L659.51,208.9469 A2.5,2.5 0 0 1 662.01,211.4469 L662.01,310.15 A2.5,2.5 0 0 1 659.51,312.65 L533.04,312.65 A2.5,2.5 0 0 1 530.54,310.15 L530.54,189.15 A2.5,2.5 0 0 1 533.04,186.65 " fill="#F8F8FF" style="stroke:#000000;stroke-width:1.5;"/><line style="stroke:#000000;stroke-width:1.5;" x1="530.54" x2="660.1611" y1="208.9469" y2="208.9469"/><text fill="#000000" font-family="sans-serif" font-size="14" font-weight="bold" lengthAdjust="spacing" textLength="116.6211" x="534.54" y="201.6451">dataExtraction</text></g><!--entity methods--><g id="elem_methods"><path d="M255.07,177 L336.7848,177 A3.75,3.75 0 0 1 339.2848,179.5 L346.2848,199.2969 L360.7848,199.2969 A2.5,2.5 0 0 1 363.2848,201.7969 L363.2848,213.7969 A2.5,2.5 0 0 1 360.7848,216.2969 L255.07,216.2969 A2.5,2.5 0 0 1 252.57,213.7969 L252.57,179.5 A2.5,2.5 0 0 1 255.07,177 " fill="#F8F8FF" style="stroke:#181818;stroke-width:0.5;"/><line style="stroke:#181818;stroke-width:0.5;" x1="252.57" x2="346.2848" y1="199.2969" y2="199.2969"/><text fill="#000000" font-family="sans-serif" font-size="14" font-weight="bold" lengthAdjust="spacing" textLength="68.7148" x="262.57" y="192.9951">methods</text></g><!--entity ast--><g id="elem_ast"><path d="M565.04,249 L602.5127,249 A3.75,3.75 0 0 1 605.0127,251.5 L612.0127,271.2969 L626.5127,271.2969 A2.5,2.5 0 0 1 629.0127,273.7969 L629.0127,285.7969 A2.5,2.5 0 0 1 626.5127,288.2969 L565.04,288.2969 A2.5,2.5 0 0 1 562.54,285.7969 L562.54,251.5 A2.5,2.5 0 0 1 565.04,249 " fill="#F8F8FF" style="stroke:#181818;stroke-width:0.5;"/><line style="stroke:#181818;stroke-width:0.5;" x1="562.54" x2="612.0127" y1="271.2969" y2="271.2969"/><text fill="#000000" font-family="sans-serif" font-size="14" font-weight="bold" lengthAdjust="spacing" textLength="24.4727" x="572.54" y="264.9951">ast</text></g><!--entity configuration--><g id="elem_configuration"><path d="M524.18,6 L643.3695,6 A3.75,3.75 0 0 1 645.8695,8.5 L652.8695,28.2969 L667.3695,28.2969 A2.5,2.5 0 0 1 669.8695,30.7969 L669.8695,42.7969 A2.5,2.5 0 0 1 667.3695,45.2969 L524.18,45.2969 A2.5,2.5 0 0 1 521.68,42.7969 L521.68,8.5 A2.5,2.5 0 0 1 524.18,6 " fill="#FFE4B5" style="stroke:#181818;stroke-width:0.5;"/><line style="stroke:#181818;stroke-width:0.5;" x1="521.68" x2="652.8695" y1="28.2969" y2="28.2969"/><text fill="#000000" font-family="sans-serif" font-size="14" font-weight="bold" lengthAdjust="spacing" textLength="106.1895" x="531.68" y="21.9951">configuration</text></g><!--entity consumer--><g id="elem_consumer"><path d="M8.5,80 L98.6709,80 A3.75,3.75 0 0 1 101.1709,82.5 L108.1709,102.2969 L122.6709,102.2969 A2.5,2.5 0 0 1 125.1709,104.7969 L125.1709,116.7969 A2.5,2.5 0 0 1 122.6709,119.2969 L8.5,119.2969 A2.5,2.5 0 0 1 6,116.7969 L6,82.5 A2.5,2.5 0 0 1 8.5,80 " fill="#FFE4B5" style="stroke:#181818;stroke-width:0.5;"/><line style="stroke:#181818;stroke-width:0.5;" x1="6" x2="108.1709" y1="102.2969" y2="102.2969"/><text fill="#000000" font-family="sans-serif" font-size="14" font-weight="bold" lengthAdjust="spacing" textLength="77.1709" x="16" y="95.9951">consumer</text></g><!--entity gateway--><g id="elem_gateway"><path d="M255.85,6 L336.0131,6 A3.75,3.75 0 0 1 338.5131,8.5 L345.5131,28.2969 L360.0131,28.2969 A2.5,2.5 0 0 1 362.5131,30.7969 L362.5131,42.7969 A2.5,2.5 0 0 1 360.0131,45.2969 L255.85,45.2969 A2.5,2.5 0 0 1 253.35,42.7969 L253.35,8.5 A2.5,2.5 0 0 1 255.85,6 " fill="#FFE4B5" style="stroke:#181818;stroke-width:0.5;"/><line style="stroke:#181818;stroke-width:0.5;" x1="253.35" x2="345.5131" y1="28.2969" y2="28.2969"/><text fill="#000000" font-family="sans-serif" font-size="14" font-weight="bold" lengthAdjust="spacing" textLength="67.1631" x="263.35" y="21.9951">gateway</text></g><!--entity repository--><g id="elem_repository"><path d="M248.67,80 L343.1817,80 A3.75,3.75 0 0 1 345.6817,82.5 L352.6817,102.2969 L367.1817,102.2969 A2.5,2.5 0 0 1 369.6817,104.7969 L369.6817,116.7969 A2.5,2.5 0 0 1 367.1817,119.2969 L248.67,119.2969 A2.5,2.5 0 0 1 246.17,116.7969 L246.17,82.5 A2.5,2.5 0 0 1 248.67,80 " fill="#FFE4B5" style="stroke:#181818;stroke-width:0.5;"/><line style="stroke:#181818;stroke-width:0.5;" x1="246.17" x2="352.6817" y1="102.2969" y2="102.2969"/><text fill="#000000" font-family="sans-serif" font-size="14" font-weight="bold" lengthAdjust="spacing" textLength="81.5117" x="256.17" y="95.9951">repository</text></g><!--link consumer to repository--><g id="link_consumer_repository"><path d="M125.38,121.9469 C161.93,121.9469 202.83,99.65 239.81,99.65 " fill="none" id="consumer-to-repository" style="stroke:#181818;stroke-width:1.0;stroke-dasharray:7.0,7.0;"/><polygon fill="#181818" points="245.81,99.65,236.81,95.65,240.81,99.65,236.81,103.65,245.81,99.65" style="stroke:#181818;stroke-width:1.0;"/><text fill="#000000" font-family="sans-serif" font-size="13" lengthAdjust="spacing" textLength="59.7124" x="156.17" y="95.7169">«access»</text></g><!--link consumer to methods--><g id="link_consumer_methods"><path d="M116.38,119.75 C157.63,136.4 210.3961,157.6944 251.6261,174.3344 " fill="none" id="consumer-to-methods" style="stroke:#181818;stroke-width:1.0;stroke-dasharray:7.0,7.0;"/><polygon fill="#181818" points="257.19,176.58,250.3411,169.5024,252.5534,174.7087,247.347,176.921,257.19,176.58" style="stroke:#181818;stroke-width:1.0;"/><text fill="#000000" font-family="sans-serif" font-size="13" lengthAdjust="spacing" textLength="59.7124" x="156.17" y="132.7169">«access»</text></g><!--link consumer to gateway--><g id="link_consumer_gateway"><path d="M125.38,103.8469 C164.29,91.8669 209.2056,55.7353 247.1156,44.0653 " fill="none" id="consumer-to-gateway" style="stroke:#181818;stroke-width:1.0;stroke-dasharray:7.0,7.0;"/><polygon fill="#181818" points="252.85,42.3,243.0715,41.1249,248.0713,43.771,245.4252,48.7709,252.85,42.3" style="stroke:#181818;stroke-width:1.0;"/><text fill="#000000" font-family="sans-serif" font-size="13" lengthAdjust="spacing" textLength="59.7124" x="156.17" y="50.7169">«access»</text></g><!--link gateway to configuration--><g id="link_gateway_configuration"><path d="M362.69,47.9469 C407.49,47.9469 465.75,25.65 515.29,25.65 " fill="none" id="gateway-to-configuration" style="stroke:#181818;stroke-width:1.0;stroke-dasharray:7.0,7.0;"/><polygon fill="#181818" points="521.29,25.65,512.29,21.65,516.29,25.65,512.29,29.65,521.29,25.65" style="stroke:#181818;stroke-width:1.0;"/><text fill="#000000" font-family="sans-serif" font-size="13" lengthAdjust="spacing" textLength="58.8301" x="401.18" y="21.7169">«import»</text></g><!--link methods to dataExtraction--><g id="link_methods_dataExtraction"><path d="M363.7,199.91 C404.555,202.34 461.1725,205.7075 508.1388,208.5 C514.0095,208.8491 519.7295,209.1891 525.2491,209.5173 C526.6289,209.5993 527.9963,209.6806 529.3504,209.7611 C529.6889,209.7812 524.0371,209.4452 524.374,209.4653 " fill="none" id="methods-to-dataExtraction" style="stroke:#181818;stroke-width:1.0;stroke-dasharray:7.0,7.0;"/><polygon fill="#181818" points="530.3634,209.8213,521.6166,205.2943,525.3722,209.5246,521.1419,213.2802,530.3634,209.8213" style="stroke:#181818;stroke-width:1.0;"/><text fill="#000000" font-family="sans-serif" font-size="13" lengthAdjust="spacing" textLength="59.7124" x="400.68" y="198.7169">«access»</text></g><!--SRC=[TP0nRiCm34LtdO9mzXoW2Bm47Ni8bgPb8R5eK3JIel3TAoTEQWxbflyVFhzuvTx013J5mQ1BocH9SWZbalA4YYDCI1UC33y1wdpMLrIPStUMgoXy216MbCCImfDiI7AVugouPZNWdJAFh4wCQ7p3xsOdAVT89jgiMrzgXuRlNwP8Z-137AJORKZ6ZtOl4eivkxhBFcba6wGhdbbSWKbAgWtMMi_MS3osyEUymUc4H5nAstfcY_yVsBxiW4sx- -w2AvN6ITGgjKNVANyFsAVz0W00]--></g></svg>